<?xml version="1.0" encoding="UTF-8" standalone="no"?>
<!DOCTYPE svg PUBLIC "-//W3C//DTD SVG 1.1//EN"
 "http://www.w3.org/Graphics/SVG/1.1/DTD/svg11.dtd">
<!-- Generated by graphviz version 2.43.0 (0)
 -->
<!-- Title: %3 Pages: 1 -->
<svg width="3507pt" height="2585pt"
 viewBox="0.00 0.00 3506.87 2584.51" xmlns="http://www.w3.org/2000/svg" xmlns:xlink="http://www.w3.org/1999/xlink">
<g id="graph0" class="graph" transform="scale(1 1) rotate(0) translate(4 2580.51)">
<title>%3</title>
<polygon fill="white" stroke="transparent" points="-4,4 -4,-2580.51 3502.87,-2580.51 3502.87,4 -4,4"/>
<!-- Atributos de la Persona -->
<g id="node1" class="node">
<title>Atributos de la Persona</title>
<polygon fill="none" stroke="red" points="239.18,-520.15 -0.18,-485.65 478.54,-485.65 239.18,-520.15"/>
<text text-anchor="middle" x="239.18" y="-493.45" font-family="Times,serif" font-size="14.00">Atributos de la Persona</text>
</g>
<!-- Innatos -->
<g id="node2" class="node">
<title>Innatos</title>
<polygon fill="none" stroke="white" points="1397.3,-2544.15 1327.3,-2544.15 1327.3,-2508.15 1397.3,-2508.15 1397.3,-2544.15"/>
<text text-anchor="middle" x="1362.3" y="-2522.45" font-family="Times,serif" font-size="14.00">Innatos</text>
</g>
<!-- Atributos de la Persona&#45;&gt;Innatos -->
<g id="edge1" class="edge">
<title>Atributos de la Persona&#45;&gt;Innatos</title>
<path fill="none" stroke="black" d="M242.79,-519.91C254.47,-610.41 310.74,-946.96 514.36,-1095.15 572.68,-1137.6 788.09,-1079.88 836.73,-1133.15 939.1,-1245.28 766.93,-2390.25 872.73,-2499.15 990.79,-2620.67 1221.44,-2569.23 1317.58,-2540.58"/>
<polygon fill="black" stroke="black" points="1318.73,-2543.89 1327.28,-2537.63 1316.69,-2537.19 1318.73,-2543.89"/>
</g>
<!-- Nombre -->
<g id="node3" class="node">
<title>Nombre</title>
<polygon fill="none" stroke="yellow" points="712.54,-492.15 638.54,-492.15 638.54,-456.15 712.54,-456.15 712.54,-492.15"/>
<text text-anchor="middle" x="675.54" y="-470.45" font-family="Times,serif" font-size="14.00">Nombre</text>
</g>
<!-- Atributos de la Persona&#45;&gt;Nombre -->
<g id="edge2" class="edge">
<title>Atributos de la Persona&#45;&gt;Nombre</title>
<path fill="none" stroke="black" d="M457.36,-485.65C521.88,-482.24 586.41,-478.82 628.15,-476.61"/>
<polygon fill="black" stroke="black" points="628.46,-480.1 638.26,-476.07 628.09,-473.11 628.46,-480.1"/>
</g>
<!-- Domicilio -->
<g id="node4" class="node">
<title>Domicilio</title>
<polygon fill="none" stroke="yellow" points="717.04,-249.15 634.04,-249.15 634.04,-213.15 717.04,-213.15 717.04,-249.15"/>
<text text-anchor="middle" x="675.54" y="-227.45" font-family="Times,serif" font-size="14.00">Domicilio</text>
</g>
<!-- Atributos de la Persona&#45;&gt;Domicilio -->
<g id="edge3" class="edge">
<title>Atributos de la Persona&#45;&gt;Domicilio</title>
<path fill="none" stroke="black" d="M255.8,-485.59C296.97,-455.34 412.35,-372.04 514.36,-312.15 550.92,-290.68 593.87,-269.15 626.09,-253.69"/>
<polygon fill="black" stroke="black" points="627.78,-256.76 635.3,-249.3 624.77,-250.45 627.78,-256.76"/>
</g>
<!-- Capacidad -->
<g id="node5" class="node">
<title>Capacidad</title>
<polygon fill="none" stroke="yellow" points="721.04,-195.15 630.04,-195.15 630.04,-159.15 721.04,-159.15 721.04,-195.15"/>
<text text-anchor="middle" x="675.54" y="-173.45" font-family="Times,serif" font-size="14.00">Capacidad</text>
</g>
<!-- Atributos de la Persona&#45;&gt;Capacidad -->
<g id="edge4" class="edge">
<title>Atributos de la Persona&#45;&gt;Capacidad</title>
<path fill="none" stroke="black" d="M247.09,-485.39C274.37,-440.19 379.63,-276.49 514.36,-204.15 546.64,-186.82 587.42,-180.12 619.76,-177.73"/>
<polygon fill="black" stroke="black" points="620.17,-181.22 629.93,-177.1 619.74,-174.23 620.17,-181.22"/>
</g>
<!-- Estado Civil -->
<g id="node6" class="node">
<title>Estado Civil</title>
<polygon fill="none" stroke="yellow" points="727.04,-357.15 624.04,-357.15 624.04,-321.15 727.04,-321.15 727.04,-357.15"/>
<text text-anchor="middle" x="675.54" y="-335.45" font-family="Times,serif" font-size="14.00">Estado Civil</text>
</g>
<!-- Atributos de la Persona&#45;&gt;Estado Civil -->
<g id="edge5" class="edge">
<title>Atributos de la Persona&#45;&gt;Estado Civil</title>
<path fill="none" stroke="black" d="M272.12,-485.53C344.5,-459.21 521.94,-394.66 615.14,-360.76"/>
<polygon fill="black" stroke="black" points="616.51,-363.98 624.72,-357.28 614.12,-357.41 616.51,-363.98"/>
</g>
<!-- Vitalicios -->
<g id="node9" class="node">
<title>Vitalicios</title>
<polygon fill="none" stroke="white" points="1403.3,-654.15 1321.3,-654.15 1321.3,-618.15 1403.3,-618.15 1403.3,-654.15"/>
<text text-anchor="middle" x="1362.3" y="-632.45" font-family="Times,serif" font-size="14.00">Vitalicios</text>
</g>
<!-- Atributos de la Persona&#45;&gt;Vitalicios -->
<g id="edge47" class="edge">
<title>Atributos de la Persona&#45;&gt;Vitalicios</title>
<path fill="none" stroke="black" d="M273.55,-515.37C323.96,-541.81 423.33,-589.77 514.36,-609.15 810.65,-672.26 1178.28,-651.31 1310.77,-640.7"/>
<polygon fill="black" stroke="black" points="1311.33,-644.17 1321.01,-639.86 1310.76,-637.19 1311.33,-644.17"/>
</g>
<!-- Inalienables -->
<g id="node10" class="node">
<title>Inalienables</title>
<polygon fill="none" stroke="white" points="727.04,-600.15 624.04,-600.15 624.04,-564.15 727.04,-564.15 727.04,-600.15"/>
<text text-anchor="middle" x="675.54" y="-578.45" font-family="Times,serif" font-size="14.00">Inalienables</text>
</g>
<!-- Atributos de la Persona&#45;&gt;Inalienables -->
<g id="edge40" class="edge">
<title>Atributos de la Persona&#45;&gt;Inalienables</title>
<path fill="none" stroke="black" d="M307.57,-510.34C391.44,-526.75 533.4,-554.53 613.97,-570.3"/>
<polygon fill="black" stroke="black" points="613.47,-573.77 623.96,-572.25 614.82,-566.9 613.47,-573.77"/>
</g>
<!-- Imprescriptibles -->
<g id="node11" class="node">
<title>Imprescriptibles</title>
<polygon fill="none" stroke="white" points="742.54,-141.15 608.54,-141.15 608.54,-105.15 742.54,-105.15 742.54,-141.15"/>
<text text-anchor="middle" x="675.54" y="-119.45" font-family="Times,serif" font-size="14.00">Imprescriptibles</text>
</g>
<!-- Atributos de la Persona&#45;&gt;Imprescriptibles -->
<g id="edge41" class="edge">
<title>Atributos de la Persona&#45;&gt;Imprescriptibles</title>
<path fill="none" stroke="black" d="M245.48,-485.35C268.77,-435.06 367.35,-237.18 514.36,-150.15 539.43,-135.31 570.35,-128.05 598.32,-124.67"/>
<polygon fill="black" stroke="black" points="598.9,-128.13 608.48,-123.59 598.16,-121.17 598.9,-128.13"/>
</g>
<!-- Patrimonio -->
<g id="node12" class="node">
<title>Patrimonio</title>
<polygon fill="none" stroke="yellow" points="723.04,-87.15 628.04,-87.15 628.04,-51.15 723.04,-51.15 723.04,-87.15"/>
<text text-anchor="middle" x="675.54" y="-65.45" font-family="Times,serif" font-size="14.00">Patrimonio</text>
</g>
<!-- Atributos de la Persona&#45;&gt;Patrimonio -->
<g id="edge6" class="edge">
<title>Atributos de la Persona&#45;&gt;Patrimonio</title>
<path fill="none" stroke="black" d="M244.23,-485.43C263.85,-430.68 354.5,-198.39 514.36,-96.15 544.91,-76.61 585.18,-69.89 617.7,-68.04"/>
<polygon fill="black" stroke="black" points="618.13,-71.52 627.97,-67.6 617.83,-64.53 618.13,-71.52"/>
</g>
<!-- Único -->
<g id="node15" class="node">
<title>Único</title>
<polygon fill="none" stroke="white" points="1391.3,-546.15 1333.3,-546.15 1333.3,-510.15 1391.3,-510.15 1391.3,-546.15"/>
<text text-anchor="middle" x="1362.3" y="-524.45" font-family="Times,serif" font-size="14.00">Único</text>
</g>
<!-- Atributos de la Persona&#45;&gt;Único -->
<g id="edge39" class="edge">
<title>Atributos de la Persona&#45;&gt;Único</title>
<path fill="none" stroke="black" d="M373.47,-500.84C628.77,-507.9 1174.68,-522.99 1323.28,-527.1"/>
<polygon fill="black" stroke="black" points="1323.19,-530.6 1333.28,-527.38 1323.38,-523.6 1323.19,-530.6"/>
</g>
<!-- Irrenunciables -->
<g id="node43" class="node">
<title>Irrenunciables</title>
<polygon fill="none" stroke="white" points="735.54,-1232.15 615.54,-1232.15 615.54,-1196.15 735.54,-1196.15 735.54,-1232.15"/>
<text text-anchor="middle" x="675.54" y="-1210.45" font-family="Times,serif" font-size="14.00">Irrenunciables</text>
</g>
<!-- Atributos de la Persona&#45;&gt;Irrenunciables -->
<g id="edge42" class="edge">
<title>Atributos de la Persona&#45;&gt;Irrenunciables</title>
<path fill="none" stroke="black" d="M241.55,-519.91C248.77,-617.86 291.05,-1006.66 514.36,-1187.15 539.58,-1207.54 574.47,-1215.06 605.25,-1217.16"/>
<polygon fill="black" stroke="black" points="605.34,-1220.67 615.51,-1217.67 605.69,-1213.68 605.34,-1220.67"/>
</g>
<!-- Inembargables -->
<g id="node44" class="node">
<title>Inembargables</title>
<polygon fill="none" stroke="white" points="737.04,-1178.15 614.04,-1178.15 614.04,-1142.15 737.04,-1142.15 737.04,-1178.15"/>
<text text-anchor="middle" x="675.54" y="-1156.45" font-family="Times,serif" font-size="14.00">Inembargables</text>
</g>
<!-- Atributos de la Persona&#45;&gt;Inembargables -->
<g id="edge43" class="edge">
<title>Atributos de la Persona&#45;&gt;Inembargables</title>
<path fill="none" stroke="black" d="M242.6,-519.7C253.73,-611.77 308.71,-962.18 514.36,-1128.15 539.24,-1148.23 573.28,-1156.83 603.58,-1160.17"/>
<polygon fill="black" stroke="black" points="603.42,-1163.67 613.7,-1161.11 604.06,-1156.7 603.42,-1163.67"/>
</g>
<!-- Nombre&#45;&gt;Único -->
<g id="edge7" class="edge">
<title>Nombre&#45;&gt;Único</title>
<path fill="none" stroke="black" d="M712.6,-480.01C751.87,-486.19 816.6,-495.75 872.73,-501.15 1040.01,-517.26 1240.51,-524.6 1323,-527.1"/>
<polygon fill="black" stroke="black" points="1323.05,-530.6 1333.15,-527.4 1323.26,-523.6 1323.05,-530.6"/>
</g>
<!-- Indivisible -->
<g id="node16" class="node">
<title>Indivisible</title>
<polygon fill="none" stroke="white" points="1407.8,-492.15 1316.8,-492.15 1316.8,-456.15 1407.8,-456.15 1407.8,-492.15"/>
<text text-anchor="middle" x="1362.3" y="-470.45" font-family="Times,serif" font-size="14.00">Indivisible</text>
</g>
<!-- Nombre&#45;&gt;Indivisible -->
<g id="edge8" class="edge">
<title>Nombre&#45;&gt;Indivisible</title>
<path fill="none" stroke="black" d="M712.88,-474.15C825.78,-474.15 1171.07,-474.15 1306.23,-474.15"/>
<polygon fill="black" stroke="black" points="1306.36,-477.65 1316.36,-474.15 1306.36,-470.65 1306.36,-477.65"/>
</g>
<!-- Oponibilidad erga omnes -->
<g id="node17" class="node">
<title>Oponibilidad erga omnes</title>
<polygon fill="none" stroke="white" points="1459.8,-384.15 1264.8,-384.15 1264.8,-348.15 1459.8,-348.15 1459.8,-384.15"/>
<text text-anchor="middle" x="1362.3" y="-362.45" font-family="Times,serif" font-size="14.00">Oponibilidad erga omnes</text>
</g>
<!-- Nombre&#45;&gt;Oponibilidad erga omnes -->
<g id="edge10" class="edge">
<title>Nombre&#45;&gt;Oponibilidad erga omnes</title>
<path fill="none" stroke="black" d="M710.47,-456.01C748.69,-436.56 813.26,-406.66 872.73,-393.15 1001.67,-363.86 1154.44,-360.21 1254.39,-361.84"/>
<polygon fill="black" stroke="black" points="1254.43,-365.34 1264.49,-362.03 1254.56,-358.35 1254.43,-365.34"/>
</g>
<!-- Valor moral -->
<g id="node18" class="node">
<title>Valor moral</title>
<polygon fill="none" stroke="white" points="1411.8,-438.15 1312.8,-438.15 1312.8,-402.15 1411.8,-402.15 1411.8,-438.15"/>
<text text-anchor="middle" x="1362.3" y="-416.45" font-family="Times,serif" font-size="14.00">Valor moral</text>
</g>
<!-- Nombre&#45;&gt;Valor moral -->
<g id="edge9" class="edge">
<title>Nombre&#45;&gt;Valor moral</title>
<path fill="none" stroke="black" d="M712.6,-468.29C751.87,-462.12 816.6,-452.56 872.73,-447.15 1027.43,-432.26 1210.54,-424.86 1302.45,-421.85"/>
<polygon fill="black" stroke="black" points="1302.78,-425.35 1312.66,-421.53 1302.55,-418.35 1302.78,-425.35"/>
</g>
<!-- Sede para determinados efectos jurídicos (juicios, notificaciones) -->
<g id="node20" class="node">
<title>Sede para determinados efectos jurídicos (juicios, notificaciones)</title>
<polygon fill="none" stroke="white" points="1602.3,-114.15 1122.3,-114.15 1122.3,-78.15 1602.3,-78.15 1602.3,-114.15"/>
<text text-anchor="middle" x="1362.3" y="-92.45" font-family="Times,serif" font-size="14.00">Sede para determinados efectos jurídicos (juicios, notificaciones)</text>
</g>
<!-- Domicilio&#45;&gt;Sede para determinados efectos jurídicos (juicios, notificaciones) -->
<g id="edge12" class="edge">
<title>Domicilio&#45;&gt;Sede para determinados efectos jurídicos (juicios, notificaciones)</title>
<path fill="none" stroke="black" d="M717.26,-234.41C752.41,-235.05 802.75,-230.51 836.73,-204.15 867.86,-180.01 840.3,-145.52 872.73,-123.15 912.32,-95.84 1012.48,-87.41 1111.88,-86.5"/>
<polygon fill="black" stroke="black" points="1112.13,-89.99 1122.11,-86.43 1112.09,-82.99 1112.13,-89.99"/>
</g>
<!-- Domicilio real (necesario, único) -->
<g id="node21" class="node">
<title>Domicilio real (necesario, único)</title>
<polygon fill="none" stroke="white" points="1485.3,-60.15 1239.3,-60.15 1239.3,-24.15 1485.3,-24.15 1485.3,-60.15"/>
<text text-anchor="middle" x="1362.3" y="-38.45" font-family="Times,serif" font-size="14.00">Domicilio real (necesario, único)</text>
</g>
<!-- Domicilio&#45;&gt;Domicilio real (necesario, único) -->
<g id="edge13" class="edge">
<title>Domicilio&#45;&gt;Domicilio real (necesario, único)</title>
<path fill="none" stroke="black" d="M717.27,-235.63C753.17,-237.22 804.61,-233.39 836.73,-204.15 882.64,-162.35 824.55,-108.33 872.73,-69.15 990.38,26.51 1181.48,1.9 1286.42,-21.77"/>
<polygon fill="black" stroke="black" points="1285.77,-25.21 1296.3,-24.06 1287.34,-18.39 1285.77,-25.21"/>
</g>
<!-- Domicilio legal (forzoso) -->
<g id="node22" class="node">
<title>Domicilio legal (forzoso)</title>
<polygon fill="none" stroke="white" points="1456.8,-222.15 1267.8,-222.15 1267.8,-186.15 1456.8,-186.15 1456.8,-222.15"/>
<text text-anchor="middle" x="1362.3" y="-200.45" font-family="Times,serif" font-size="14.00">Domicilio legal (forzoso)</text>
</g>
<!-- Domicilio&#45;&gt;Domicilio legal (forzoso) -->
<g id="edge14" class="edge">
<title>Domicilio&#45;&gt;Domicilio legal (forzoso)</title>
<path fill="none" stroke="black" d="M717.07,-229.55C821.69,-225.43 1103.35,-214.32 1257.32,-208.25"/>
<polygon fill="black" stroke="black" points="1257.87,-211.73 1267.72,-207.84 1257.59,-204.74 1257.87,-211.73"/>
</g>
<!-- Domicilio especial (para ciertos casos, como judiciales) -->
<g id="node23" class="node">
<title>Domicilio especial (para ciertos casos, como judiciales)</title>
<polygon fill="none" stroke="white" points="1566.3,-168.15 1158.3,-168.15 1158.3,-132.15 1566.3,-132.15 1566.3,-168.15"/>
<text text-anchor="middle" x="1362.3" y="-146.45" font-family="Times,serif" font-size="14.00">Domicilio especial (para ciertos casos, como judiciales)</text>
</g>
<!-- Domicilio&#45;&gt;Domicilio especial (para ciertos casos, como judiciales) -->
<g id="edge15" class="edge">
<title>Domicilio&#45;&gt;Domicilio especial (para ciertos casos, como judiciales)</title>
<path fill="none" stroke="black" d="M717.2,-229.6C750.5,-227.1 798.24,-220.66 836.73,-204.15 855.11,-196.27 853.94,-184 872.73,-177.15 959.39,-145.58 1060.41,-135.93 1148.03,-135.29"/>
<polygon fill="black" stroke="black" points="1148.12,-138.79 1158.1,-135.26 1148.09,-131.79 1148.12,-138.79"/>
</g>
<!-- Estado Civil&#45;&gt;Oponibilidad erga omnes -->
<g id="edge16" class="edge">
<title>Estado Civil&#45;&gt;Oponibilidad erga omnes</title>
<path fill="none" stroke="black" d="M727.17,-341.15C838.1,-345.52 1104.6,-356.03 1254.41,-361.94"/>
<polygon fill="black" stroke="black" points="1254.42,-365.44 1264.55,-362.34 1254.7,-358.45 1254.42,-365.44"/>
</g>
<!-- Estable -->
<g id="node24" class="node">
<title>Estable</title>
<polygon fill="none" stroke="white" points="1397.8,-330.15 1326.8,-330.15 1326.8,-294.15 1397.8,-294.15 1397.8,-330.15"/>
<text text-anchor="middle" x="1362.3" y="-308.45" font-family="Times,serif" font-size="14.00">Estable</text>
</g>
<!-- Estado Civil&#45;&gt;Estable -->
<g id="edge17" class="edge">
<title>Estado Civil&#45;&gt;Estable</title>
<path fill="none" stroke="black" d="M727.17,-337.16C856,-332.08 1194.66,-318.72 1316.68,-313.91"/>
<polygon fill="black" stroke="black" points="1316.93,-317.4 1326.78,-313.51 1316.65,-310.41 1316.93,-317.4"/>
</g>
<!-- Determina derechos y obligaciones -->
<g id="node25" class="node">
<title>Determina derechos y obligaciones</title>
<polygon fill="none" stroke="white" points="1495.8,-276.15 1228.8,-276.15 1228.8,-240.15 1495.8,-240.15 1495.8,-276.15"/>
<text text-anchor="middle" x="1362.3" y="-254.45" font-family="Times,serif" font-size="14.00">Determina derechos y obligaciones</text>
</g>
<!-- Estado Civil&#45;&gt;Determina derechos y obligaciones -->
<g id="edge18" class="edge">
<title>Estado Civil&#45;&gt;Determina derechos y obligaciones</title>
<path fill="none" stroke="black" d="M727.1,-322.03C766.34,-309.52 822.35,-293.38 872.73,-285.15 988.12,-266.31 1120.65,-259.92 1218.54,-258.04"/>
<polygon fill="black" stroke="black" points="1218.86,-261.54 1228.8,-257.86 1218.74,-254.54 1218.86,-261.54"/>
</g>
<!-- Personalísimos -->
<g id="node7" class="node">
<title>Personalísimos</title>
<polygon fill="none" stroke="red" points="675.54,-1086.15 514.17,-1051.65 836.91,-1051.65 675.54,-1086.15"/>
<text text-anchor="middle" x="675.54" y="-1059.45" font-family="Times,serif" font-size="14.00">Personalísimos</text>
</g>
<!-- Personalísimos&#45;&gt;Innatos -->
<g id="edge34" class="edge">
<title>Personalísimos&#45;&gt;Innatos</title>
<path fill="none" stroke="black" d="M773.69,-1065.18C797.76,-1070.6 821.11,-1081.03 836.73,-1100.15 885.9,-1160.37 818.57,-2443.37 872.73,-2499.15 990.75,-2620.71 1221.42,-2569.25 1317.58,-2540.58"/>
<polygon fill="black" stroke="black" points="1318.72,-2543.89 1327.27,-2537.63 1316.69,-2537.19 1318.72,-2543.89"/>
</g>
<!-- Necesarios -->
<g id="node8" class="node">
<title>Necesarios</title>
<polygon fill="none" stroke="white" points="1409.8,-1162.15 1314.8,-1162.15 1314.8,-1126.15 1409.8,-1126.15 1409.8,-1162.15"/>
<text text-anchor="middle" x="1362.3" y="-1140.45" font-family="Times,serif" font-size="14.00">Necesarios</text>
</g>
<!-- Personalísimos&#45;&gt;Necesarios -->
<g id="edge36" class="edge">
<title>Personalísimos&#45;&gt;Necesarios</title>
<path fill="none" stroke="black" d="M734.85,-1073.49C765.6,-1079.72 803.7,-1088.69 836.73,-1100.15 853.44,-1105.95 855.58,-1112.81 872.73,-1117.15 1024.97,-1155.73 1212.13,-1152.67 1304.37,-1147.99"/>
<polygon fill="black" stroke="black" points="1304.81,-1151.47 1314.61,-1147.45 1304.43,-1144.48 1304.81,-1151.47"/>
</g>
<!-- Personalísimos&#45;&gt;Vitalicios -->
<g id="edge35" class="edge">
<title>Personalísimos&#45;&gt;Vitalicios</title>
<path fill="none" stroke="black" d="M678.04,-1051.57C685.86,-996.47 727.31,-759.47 872.73,-663.15 943.4,-616.34 1200.79,-626.11 1310.84,-632.69"/>
<polygon fill="black" stroke="black" points="1310.82,-636.19 1321.02,-633.31 1311.25,-629.2 1310.82,-636.19"/>
</g>
<!-- Dignidad -->
<g id="node14" class="node">
<title>Dignidad</title>
<polygon fill="none" stroke="yellow" points="1402.8,-1108.15 1321.8,-1108.15 1321.8,-1072.15 1402.8,-1072.15 1402.8,-1108.15"/>
<text text-anchor="middle" x="1362.3" y="-1086.45" font-family="Times,serif" font-size="14.00">Dignidad</text>
</g>
<!-- Personalísimos&#45;&gt;Dignidad -->
<g id="edge53" class="edge">
<title>Personalísimos&#45;&gt;Dignidad</title>
<path fill="none" stroke="black" d="M786.94,-1062.38C937.74,-1065.76 1201.9,-1076.65 1311.48,-1084.47"/>
<polygon fill="black" stroke="black" points="1311.36,-1087.97 1321.59,-1085.21 1311.88,-1080.99 1311.36,-1087.97"/>
</g>
<!-- Inviolabilidad de la persona humana -->
<g id="node26" class="node">
<title>Inviolabilidad de la persona humana</title>
<polygon fill="none" stroke="yellow" points="1499.8,-1054.15 1224.8,-1054.15 1224.8,-1018.15 1499.8,-1018.15 1499.8,-1054.15"/>
<text text-anchor="middle" x="1362.3" y="-1032.45" font-family="Times,serif" font-size="14.00">Inviolabilidad de la persona humana</text>
</g>
<!-- Personalísimos&#45;&gt;Inviolabilidad de la persona humana -->
<g id="edge19" class="edge">
<title>Personalísimos&#45;&gt;Inviolabilidad de la persona humana</title>
<path fill="none" stroke="black" d="M807.36,-1057.99C923.74,-1053.41 1093.78,-1046.7 1214.72,-1041.93"/>
<polygon fill="black" stroke="black" points="1214.94,-1045.43 1224.8,-1041.53 1214.67,-1038.43 1214.94,-1045.43"/>
</g>
<!-- Derecho a la vida, integridad corporal y propio cuerpo -->
<g id="node27" class="node">
<title>Derecho a la vida, integridad corporal y propio cuerpo</title>
<polygon fill="none" stroke="yellow" points="3309.87,-931.15 2905.87,-931.15 2905.87,-895.15 3309.87,-895.15 3309.87,-931.15"/>
<text text-anchor="middle" x="3107.87" y="-909.45" font-family="Times,serif" font-size="14.00">Derecho a la vida, integridad corporal y propio cuerpo</text>
</g>
<!-- Personalísimos&#45;&gt;Derecho a la vida, integridad corporal y propio cuerpo -->
<g id="edge20" class="edge">
<title>Personalísimos&#45;&gt;Derecho a la vida, integridad corporal y propio cuerpo</title>
<path fill="none" stroke="black" d="M708.65,-1051.65C747.07,-1038.5 813.64,-1017.71 872.73,-1009.15 1312.04,-945.54 2429.7,-1028.48 2869.87,-971.15 2927.72,-963.62 2991.91,-947.41 3038.88,-934.03"/>
<polygon fill="black" stroke="black" points="3039.99,-937.36 3048.63,-931.23 3038.05,-930.63 3039.99,-937.36"/>
</g>
<!-- Derecho a la libertad -->
<g id="node32" class="node">
<title>Derecho a la libertad</title>
<polygon fill="none" stroke="yellow" points="1445.8,-924.15 1278.8,-924.15 1278.8,-888.15 1445.8,-888.15 1445.8,-924.15"/>
<text text-anchor="middle" x="1362.3" y="-902.45" font-family="Times,serif" font-size="14.00">Derecho a la libertad</text>
</g>
<!-- Personalísimos&#45;&gt;Derecho a la libertad -->
<g id="edge25" class="edge">
<title>Personalísimos&#45;&gt;Derecho a la libertad</title>
<path fill="none" stroke="black" d="M689.58,-1051.43C719.4,-1025.44 795.96,-963.28 872.73,-938.15 1005.11,-894.82 1168.21,-893.85 1268.45,-898.77"/>
<polygon fill="black" stroke="black" points="1268.39,-902.27 1278.56,-899.29 1268.75,-895.28 1268.39,-902.27"/>
</g>
<!-- Derecho a la no discriminación -->
<g id="node33" class="node">
<title>Derecho a la no discriminación</title>
<polygon fill="none" stroke="yellow" points="1480.3,-870.15 1244.3,-870.15 1244.3,-834.15 1480.3,-834.15 1480.3,-870.15"/>
<text text-anchor="middle" x="1362.3" y="-848.45" font-family="Times,serif" font-size="14.00">Derecho a la no discriminación</text>
</g>
<!-- Personalísimos&#45;&gt;Derecho a la no discriminación -->
<g id="edge26" class="edge">
<title>Personalísimos&#45;&gt;Derecho a la no discriminación</title>
<path fill="none" stroke="black" d="M684.54,-1051.2C708.31,-1016.83 782.57,-917.73 872.73,-879.15 987.81,-829.92 1132.27,-828.41 1234.16,-836.01"/>
<polygon fill="black" stroke="black" points="1233.95,-839.5 1244.2,-836.79 1234.5,-832.52 1233.95,-839.5"/>
</g>
<!-- Derecho a la intimidad -->
<g id="node34" class="node">
<title>Derecho a la intimidad</title>
<polygon fill="none" stroke="yellow" points="1451.8,-816.15 1272.8,-816.15 1272.8,-780.15 1451.8,-780.15 1451.8,-816.15"/>
<text text-anchor="middle" x="1362.3" y="-794.45" font-family="Times,serif" font-size="14.00">Derecho a la intimidad</text>
</g>
<!-- Personalísimos&#45;&gt;Derecho a la intimidad -->
<g id="edge27" class="edge">
<title>Personalísimos&#45;&gt;Derecho a la intimidad</title>
<path fill="none" stroke="black" d="M681.73,-1051.64C700.49,-1011.52 769.28,-877.48 872.73,-825.15 995.79,-762.9 1159.25,-768.75 1262.39,-781.35"/>
<polygon fill="black" stroke="black" points="1262.12,-784.85 1272.49,-782.63 1263,-777.9 1262.12,-784.85"/>
</g>
<!-- Honor vs libertad de prensa -->
<g id="node35" class="node">
<title>Honor vs libertad de prensa</title>
<polygon fill="none" stroke="yellow" points="1470.8,-762.15 1253.8,-762.15 1253.8,-726.15 1470.8,-726.15 1470.8,-762.15"/>
<text text-anchor="middle" x="1362.3" y="-740.45" font-family="Times,serif" font-size="14.00">Honor vs libertad de prensa</text>
</g>
<!-- Personalísimos&#45;&gt;Honor vs libertad de prensa -->
<g id="edge28" class="edge">
<title>Personalísimos&#45;&gt;Honor vs libertad de prensa</title>
<path fill="none" stroke="black" d="M680.16,-1051.39C694.99,-1005.49 755.94,-837.59 872.73,-771.15 933.69,-736.48 1119.24,-735.3 1243.32,-738.83"/>
<polygon fill="black" stroke="black" points="1243.54,-742.34 1253.64,-739.14 1243.75,-735.34 1243.54,-742.34"/>
</g>
<!-- Derecho a la imagen -->
<g id="node38" class="node">
<title>Derecho a la imagen</title>
<polygon fill="none" stroke="yellow" points="1443.8,-708.15 1280.8,-708.15 1280.8,-672.15 1443.8,-672.15 1443.8,-708.15"/>
<text text-anchor="middle" x="1362.3" y="-686.45" font-family="Times,serif" font-size="14.00">Derecho a la imagen</text>
</g>
<!-- Personalísimos&#45;&gt;Derecho a la imagen -->
<g id="edge31" class="edge">
<title>Personalísimos&#45;&gt;Derecho a la imagen</title>
<path fill="none" stroke="black" d="M678.96,-1051.43C690.12,-1000.62 741.86,-798.31 872.73,-717.15 936.89,-677.36 1147.5,-679.81 1270.25,-685.03"/>
<polygon fill="black" stroke="black" points="1270.25,-688.53 1280.39,-685.47 1270.56,-681.54 1270.25,-688.53"/>
</g>
<!-- Derecho a réplica -->
<g id="node39" class="node">
<title>Derecho a réplica</title>
<polygon fill="none" stroke="yellow" points="1433.3,-2490.15 1291.3,-2490.15 1291.3,-2454.15 1433.3,-2454.15 1433.3,-2490.15"/>
<text text-anchor="middle" x="1362.3" y="-2468.45" font-family="Times,serif" font-size="14.00">Derecho a réplica</text>
</g>
<!-- Personalísimos&#45;&gt;Derecho a réplica -->
<g id="edge32" class="edge">
<title>Personalísimos&#45;&gt;Derecho a réplica</title>
<path fill="none" stroke="black" d="M773.67,-1065.19C797.75,-1070.62 821.1,-1081.04 836.73,-1100.15 884.04,-1158.03 820.63,-2391.55 872.73,-2445.15 927.3,-2501.29 1156.56,-2490.59 1280.67,-2480.19"/>
<polygon fill="black" stroke="black" points="1281.22,-2483.66 1290.88,-2479.32 1280.62,-2476.68 1281.22,-2483.66"/>
</g>
<!-- Habeas Data -->
<g id="node40" class="node">
<title>Habeas Data</title>
<polygon fill="none" stroke="yellow" points="1416.3,-2436.15 1308.3,-2436.15 1308.3,-2400.15 1416.3,-2400.15 1416.3,-2436.15"/>
<text text-anchor="middle" x="1362.3" y="-2414.45" font-family="Times,serif" font-size="14.00">Habeas Data</text>
</g>
<!-- Personalísimos&#45;&gt;Habeas Data -->
<g id="edge33" class="edge">
<title>Personalísimos&#45;&gt;Habeas Data</title>
<path fill="none" stroke="black" d="M773.66,-1065.21C797.73,-1070.63 821.09,-1081.05 836.73,-1100.15 927.61,-1211.21 772.65,-2288.31 872.73,-2391.15 930.01,-2450.02 1179.5,-2435.36 1298.16,-2424.67"/>
<polygon fill="black" stroke="black" points="1298.55,-2428.14 1308.19,-2423.74 1297.91,-2421.17 1298.55,-2428.14"/>
</g>
<!-- Esenciales -->
<g id="node41" class="node">
<title>Esenciales</title>
<polygon fill="none" stroke="white" points="1408.3,-2382.15 1316.3,-2382.15 1316.3,-2346.15 1408.3,-2346.15 1408.3,-2382.15"/>
<text text-anchor="middle" x="1362.3" y="-2360.45" font-family="Times,serif" font-size="14.00">Esenciales</text>
</g>
<!-- Personalísimos&#45;&gt;Esenciales -->
<g id="edge38" class="edge">
<title>Personalísimos&#45;&gt;Esenciales</title>
<path fill="none" stroke="black" d="M773.64,-1065.22C797.72,-1070.64 821.08,-1081.06 836.73,-1100.15 923.88,-1206.51 776.78,-2238.66 872.73,-2337.15 931.35,-2397.33 1191.01,-2380.64 1306.08,-2369.93"/>
<polygon fill="black" stroke="black" points="1306.47,-2373.41 1316.1,-2368.98 1305.81,-2366.44 1306.47,-2373.41"/>
</g>
<!-- Extrapatrimoniales -->
<g id="node42" class="node">
<title>Extrapatrimoniales</title>
<polygon fill="none" stroke="white" points="1439.8,-2328.15 1284.8,-2328.15 1284.8,-2292.15 1439.8,-2292.15 1439.8,-2328.15"/>
<text text-anchor="middle" x="1362.3" y="-2306.45" font-family="Times,serif" font-size="14.00">Extrapatrimoniales</text>
</g>
<!-- Personalísimos&#45;&gt;Extrapatrimoniales -->
<g id="edge37" class="edge">
<title>Personalísimos&#45;&gt;Extrapatrimoniales</title>
<path fill="none" stroke="black" d="M773.63,-1065.23C797.7,-1070.65 821.07,-1081.07 836.73,-1100.15 920.14,-1201.82 780.9,-2189.02 872.73,-2283.15 926.46,-2338.23 1148.8,-2328.88 1274.22,-2318.7"/>
<polygon fill="black" stroke="black" points="1274.88,-2322.16 1284.56,-2317.84 1274.31,-2315.18 1274.88,-2322.16"/>
</g>
<!-- Inherentes -->
<g id="node45" class="node">
<title>Inherentes</title>
<polygon fill="none" stroke="white" points="1409.3,-2274.15 1315.3,-2274.15 1315.3,-2238.15 1409.3,-2238.15 1409.3,-2274.15"/>
<text text-anchor="middle" x="1362.3" y="-2252.45" font-family="Times,serif" font-size="14.00">Inherentes</text>
</g>
<!-- Personalísimos&#45;&gt;Inherentes -->
<g id="edge44" class="edge">
<title>Personalísimos&#45;&gt;Inherentes</title>
<path fill="none" stroke="black" d="M773.61,-1065.25C797.68,-1070.67 821.05,-1081.08 836.73,-1100.15 916.41,-1197.12 785.02,-2139.38 872.73,-2229.15 931.22,-2289.02 1189.14,-2272.72 1304.82,-2262.04"/>
<polygon fill="black" stroke="black" points="1305.27,-2265.51 1314.9,-2261.09 1304.61,-2258.54 1305.27,-2265.51"/>
</g>
<!-- Absolutos -->
<g id="node46" class="node">
<title>Absolutos</title>
<polygon fill="none" stroke="white" points="1405.3,-2220.15 1319.3,-2220.15 1319.3,-2184.15 1405.3,-2184.15 1405.3,-2220.15"/>
<text text-anchor="middle" x="1362.3" y="-2198.45" font-family="Times,serif" font-size="14.00">Absolutos</text>
</g>
<!-- Personalísimos&#45;&gt;Absolutos -->
<g id="edge45" class="edge">
<title>Personalísimos&#45;&gt;Absolutos</title>
<path fill="none" stroke="black" d="M773.59,-1065.26C797.66,-1070.68 821.04,-1081.09 836.73,-1100.15 912.68,-1192.43 789.14,-2089.73 872.73,-2175.15 932,-2235.73 1195.66,-2218.28 1309.11,-2207.63"/>
<polygon fill="black" stroke="black" points="1309.66,-2211.1 1319.28,-2206.66 1308.99,-2204.13 1309.66,-2211.1"/>
</g>
<!-- Autónomos -->
<g id="node47" class="node">
<title>Autónomos</title>
<polygon fill="none" stroke="white" points="1410.3,-2166.15 1314.3,-2166.15 1314.3,-2130.15 1410.3,-2130.15 1410.3,-2166.15"/>
<text text-anchor="middle" x="1362.3" y="-2144.45" font-family="Times,serif" font-size="14.00">Autónomos</text>
</g>
<!-- Personalísimos&#45;&gt;Autónomos -->
<g id="edge46" class="edge">
<title>Personalísimos&#45;&gt;Autónomos</title>
<path fill="none" stroke="black" d="M773.57,-1065.28C797.64,-1070.7 821.02,-1081.1 836.73,-1100.15 908.94,-1187.73 793.27,-2040.09 872.73,-2121.15 931.18,-2180.78 1187.92,-2164.76 1303.98,-2154.1"/>
<polygon fill="black" stroke="black" points="1304.46,-2157.57 1314.09,-2153.16 1303.81,-2150.6 1304.46,-2157.57"/>
</g>
<!-- Relativamente indisponible -->
<g id="node48" class="node">
<title>Relativamente indisponible</title>
<polygon fill="none" stroke="white" points="1468.3,-600.15 1256.3,-600.15 1256.3,-564.15 1468.3,-564.15 1468.3,-600.15"/>
<text text-anchor="middle" x="1362.3" y="-578.45" font-family="Times,serif" font-size="14.00">Relativamente indisponible</text>
</g>
<!-- Personalísimos&#45;&gt;Relativamente indisponible -->
<g id="edge48" class="edge">
<title>Personalísimos&#45;&gt;Relativamente indisponible</title>
<path fill="none" stroke="black" d="M677.37,-1051.29C682.25,-991.38 712.87,-720.66 872.73,-609.15 930.9,-568.58 1121.04,-569.45 1246.25,-574.96"/>
<polygon fill="black" stroke="black" points="1246.13,-578.45 1256.28,-575.41 1246.45,-571.46 1246.13,-578.45"/>
</g>
<!-- No requieren más que la existencia de la persona. -->
<g id="node49" class="node">
<title>No requieren más que la existencia de la persona.</title>
<polygon fill="none" stroke="red" points="1851.95,-1756.09 1477.89,-1756.09 1362.3,-2111.87 1246.71,-1756.09 872.66,-1756.09 1175.27,-1536.21 1059.68,-1180.43 1362.3,-1400.31 1664.92,-1180.43 1549.33,-1536.21 1851.95,-1756.09"/>
<text text-anchor="middle" x="1362.3" y="-1642.45" font-family="Times,serif" font-size="14.00">No requieren más que la existencia de la persona.</text>
</g>
<!-- Personalísimos&#45;&gt;No requieren más que la existencia de la persona. -->
<g id="edge51" class="edge">
<title>Personalísimos&#45;&gt;No requieren más que la existencia de la persona.</title>
<path fill="none" stroke="black" d="M759.11,-1068.33C786.07,-1073.44 814.71,-1082.91 836.73,-1100.15 864.59,-1121.96 851.76,-1142.66 872.73,-1171.15 951.66,-1278.42 1055.65,-1383.2 1147.4,-1466.94"/>
<polygon fill="black" stroke="black" points="1145.07,-1469.56 1154.83,-1473.7 1149.78,-1464.38 1145.07,-1469.56"/>
</g>
<!-- Actos de disposición de los derechos personalísimos -->
<g id="node50" class="node">
<title>Actos de disposición de los derechos personalísimos</title>
<polygon fill="none" stroke="white" points="2276.87,-908.15 1887.87,-908.15 1887.87,-872.15 2276.87,-872.15 2276.87,-908.15"/>
<text text-anchor="middle" x="2082.37" y="-886.45" font-family="Times,serif" font-size="14.00">Actos de disposición de los derechos personalísimos</text>
</g>
<!-- Personalísimos&#45;&gt;Actos de disposición de los derechos personalísimos -->
<g id="edge52" class="edge">
<title>Personalísimos&#45;&gt;Actos de disposición de los derechos personalísimos</title>
<path fill="none" stroke="black" d="M696.01,-1051.55C730.31,-1031.79 804.36,-992.21 872.73,-976.15 1084.76,-926.36 1635.5,-958.05 1851.87,-933.15 1897.92,-927.85 1948.61,-918.71 1990.62,-910.22"/>
<polygon fill="black" stroke="black" points="1991.45,-913.62 2000.55,-908.19 1990.05,-906.76 1991.45,-913.62"/>
</g>
<!-- Inalienables&#45;&gt;Relativamente indisponible -->
<g id="edge50" class="edge">
<title>Inalienables&#45;&gt;Relativamente indisponible</title>
<path fill="none" stroke="blue" d="M727.17,-578.41C836.06,-574.97 1094.84,-574.48 1246.02,-576.95"/>
<polygon fill="blue" stroke="blue" points="1246.21,-580.45 1256.27,-577.12 1246.33,-573.45 1246.21,-580.45"/>
</g>
<!-- Privacidad -->
<g id="node13" class="node">
<title>Privacidad</title>
<polygon fill="none" stroke="yellow" points="285.18,-1313.15 193.18,-1313.15 193.18,-1277.15 285.18,-1277.15 285.18,-1313.15"/>
<text text-anchor="middle" x="239.18" y="-1291.45" font-family="Times,serif" font-size="14.00">Privacidad</text>
</g>
<!-- Correos electrónicos -->
<g id="node36" class="node">
<title>Correos electrónicos</title>
<polygon fill="none" stroke="white" points="757.54,-1340.15 593.54,-1340.15 593.54,-1304.15 757.54,-1304.15 757.54,-1340.15"/>
<text text-anchor="middle" x="675.54" y="-1318.45" font-family="Times,serif" font-size="14.00">Correos electrónicos</text>
</g>
<!-- Privacidad&#45;&gt;Correos electrónicos -->
<g id="edge30" class="edge">
<title>Privacidad&#45;&gt;Correos electrónicos</title>
<path fill="none" stroke="black" d="M285.43,-1297.97C355.6,-1302.33 492.02,-1310.81 583.23,-1316.48"/>
<polygon fill="black" stroke="black" points="583.09,-1319.97 593.29,-1317.1 583.52,-1312.99 583.09,-1319.97"/>
</g>
<!-- Redes sociales -->
<g id="node37" class="node">
<title>Redes sociales</title>
<polygon fill="none" stroke="white" points="736.04,-1286.15 615.04,-1286.15 615.04,-1250.15 736.04,-1250.15 736.04,-1286.15"/>
<text text-anchor="middle" x="675.54" y="-1264.45" font-family="Times,serif" font-size="14.00">Redes sociales</text>
</g>
<!-- Privacidad&#45;&gt;Redes sociales -->
<g id="edge29" class="edge">
<title>Privacidad&#45;&gt;Redes sociales</title>
<path fill="none" stroke="black" d="M285.43,-1292.34C361.38,-1287.62 514.98,-1278.07 604.81,-1272.49"/>
<polygon fill="black" stroke="black" points="605.14,-1275.97 614.9,-1271.86 604.7,-1268.99 605.14,-1275.97"/>
</g>
<!-- Dignidad&#45;&gt;Personalísimos -->
<g id="edge54" class="edge">
<title>Dignidad&#45;&gt;Personalísimos</title>
<path fill="none" stroke="black" d="M1321.57,-1091.96C1212.78,-1091.72 908.28,-1080.12 759.91,-1071.04"/>
<polygon fill="black" stroke="black" points="759.7,-1067.52 749.5,-1070.39 759.26,-1074.51 759.7,-1067.52"/>
</g>
<!-- Reparación -->
<g id="node51" class="node">
<title>Reparación</title>
<polygon fill="none" stroke="white" points="2130.87,-1108.15 2033.87,-1108.15 2033.87,-1072.15 2130.87,-1072.15 2130.87,-1108.15"/>
<text text-anchor="middle" x="2082.37" y="-1086.45" font-family="Times,serif" font-size="14.00">Reparación</text>
</g>
<!-- Dignidad&#45;&gt;Reparación -->
<g id="edge55" class="edge">
<title>Dignidad&#45;&gt;Reparación</title>
<path fill="none" stroke="black" d="M1402.93,-1090.15C1522.83,-1090.15 1882.12,-1090.15 2023.4,-1090.15"/>
<polygon fill="black" stroke="black" points="2023.59,-1093.65 2033.59,-1090.15 2023.59,-1086.65 2023.59,-1093.65"/>
</g>
<!-- Acciones de protección -->
<g id="node19" class="node">
<title>Acciones de protección</title>
<polygon fill="none" stroke="white" points="2172.37,-438.15 1992.37,-438.15 1992.37,-402.15 2172.37,-402.15 2172.37,-438.15"/>
<text text-anchor="middle" x="2082.37" y="-416.45" font-family="Times,serif" font-size="14.00">Acciones de protección</text>
</g>
<!-- Valor moral&#45;&gt;Acciones de protección -->
<g id="edge11" class="edge">
<title>Valor moral&#45;&gt;Acciones de protección</title>
<path fill="none" stroke="black" d="M1411.81,-420.15C1528.35,-420.15 1825.94,-420.15 1982.18,-420.15"/>
<polygon fill="black" stroke="black" points="1982.26,-423.65 1992.26,-420.15 1982.26,-416.65 1982.26,-423.65"/>
</g>
<!-- ¿Aborto? -->
<g id="node28" class="node">
<title>¿Aborto?</title>
<polygon fill="none" stroke="white" points="3462.37,-1012.15 3382.37,-1012.15 3382.37,-976.15 3462.37,-976.15 3462.37,-1012.15"/>
<text text-anchor="middle" x="3422.37" y="-990.45" font-family="Times,serif" font-size="14.00">¿Aborto?</text>
</g>
<!-- Derecho a la vida, integridad corporal y propio cuerpo&#45;&gt;¿Aborto? -->
<g id="edge23" class="edge">
<title>Derecho a la vida, integridad corporal y propio cuerpo&#45;&gt;¿Aborto?</title>
<path fill="none" stroke="black" d="M3178.62,-931.23C3237.47,-946.48 3320.24,-967.94 3372.32,-981.44"/>
<polygon fill="black" stroke="black" points="3371.76,-984.91 3382.32,-984.03 3373.51,-978.13 3371.76,-984.91"/>
</g>
<!-- ¿Anencefalía? -->
<g id="node29" class="node">
<title>¿Anencefalía?</title>
<polygon fill="none" stroke="white" points="3479.37,-958.15 3365.37,-958.15 3365.37,-922.15 3479.37,-922.15 3479.37,-958.15"/>
<text text-anchor="middle" x="3422.37" y="-936.45" font-family="Times,serif" font-size="14.00">¿Anencefalía?</text>
</g>
<!-- Derecho a la vida, integridad corporal y propio cuerpo&#45;&gt;¿Anencefalía? -->
<g id="edge24" class="edge">
<title>Derecho a la vida, integridad corporal y propio cuerpo&#45;&gt;¿Anencefalía?</title>
<path fill="none" stroke="black" d="M3309.88,-930.52C3325.83,-931.9 3341.11,-933.22 3354.96,-934.41"/>
<polygon fill="black" stroke="black" points="3355,-937.93 3365.26,-935.3 3355.6,-930.96 3355,-937.93"/>
</g>
<!-- ¿Eutanasia activa? -->
<g id="node30" class="node">
<title>¿Eutanasia activa?</title>
<polygon fill="none" stroke="white" points="3497.37,-904.15 3347.37,-904.15 3347.37,-868.15 3497.37,-868.15 3497.37,-904.15"/>
<text text-anchor="middle" x="3422.37" y="-882.45" font-family="Times,serif" font-size="14.00">¿Eutanasia activa?</text>
</g>
<!-- Derecho a la vida, integridad corporal y propio cuerpo&#45;&gt;¿Eutanasia activa? -->
<g id="edge21" class="edge">
<title>Derecho a la vida, integridad corporal y propio cuerpo&#45;&gt;¿Eutanasia activa?</title>
<path fill="none" stroke="black" d="M3309.88,-895.79C3319.24,-894.98 3328.38,-894.19 3337.13,-893.43"/>
<polygon fill="black" stroke="black" points="3337.55,-896.91 3347.21,-892.56 3336.94,-889.93 3337.55,-896.91"/>
</g>
<!-- ¿Eutanasia pasiva? -->
<g id="node31" class="node">
<title>¿Eutanasia pasiva?</title>
<polygon fill="none" stroke="white" points="3498.87,-850.15 3345.87,-850.15 3345.87,-814.15 3498.87,-814.15 3498.87,-850.15"/>
<text text-anchor="middle" x="3422.37" y="-828.45" font-family="Times,serif" font-size="14.00">¿Eutanasia pasiva?</text>
</g>
<!-- Derecho a la vida, integridad corporal y propio cuerpo&#45;&gt;¿Eutanasia pasiva? -->
<g id="edge22" class="edge">
<title>Derecho a la vida, integridad corporal y propio cuerpo&#45;&gt;¿Eutanasia pasiva?</title>
<path fill="none" stroke="black" d="M3178.62,-895.08C3227.02,-882.53 3291.59,-865.79 3341.97,-852.73"/>
<polygon fill="black" stroke="black" points="3343.04,-856.07 3351.84,-850.17 3341.29,-849.3 3343.04,-856.07"/>
</g>
<!-- Relativamente indisponible&#45;&gt;Inalienables -->
<g id="edge49" class="edge">
<title>Relativamente indisponible&#45;&gt;Inalienables</title>
<path fill="none" stroke="blue" d="M1256.27,-587.18C1111.19,-589.77 854.18,-589.44 737.36,-586.2"/>
<polygon fill="blue" stroke="blue" points="737.27,-582.7 727.17,-585.9 737.07,-589.69 737.27,-582.7"/>
</g>
<!-- Relativamente indisponible&#45;&gt;Actos de disposición de los derechos personalísimos -->
<g id="edge57" class="edge">
<title>Relativamente indisponible&#45;&gt;Actos de disposición de los derechos personalísimos</title>
<path fill="none" stroke="black" d="M1468.72,-564.47C1572.17,-552.33 1731.48,-547.91 1851.87,-609.15 1963.55,-665.96 2040.25,-804.15 2068.89,-862.95"/>
<polygon fill="black" stroke="black" points="2065.75,-864.5 2073.23,-872 2072.06,-861.47 2065.75,-864.5"/>
</g>
<!-- si no es contrario a la ley, la moral o las buenas costumbres -->
<g id="node52" class="node">
<title>si no es contrario a la ley, la moral o las buenas costumbres</title>
<polygon fill="none" stroke="white" points="2812.37,-962.15 2370.37,-962.15 2370.37,-926.15 2812.37,-926.15 2812.37,-962.15"/>
<text text-anchor="middle" x="2591.37" y="-940.45" font-family="Times,serif" font-size="14.00">si no es contrario a la ley, la moral o las buenas costumbres</text>
</g>
<!-- Actos de disposición de los derechos personalísimos&#45;&gt;si no es contrario a la ley, la moral o las buenas costumbres -->
<g id="edge56" class="edge">
<title>Actos de disposición de los derechos personalísimos&#45;&gt;si no es contrario a la ley, la moral o las buenas costumbres</title>
<path fill="none" stroke="black" d="M2232.7,-908.16C2259.39,-911.25 2286.95,-914.37 2312.87,-917.15 2337.73,-919.82 2363.85,-922.52 2389.71,-925.11"/>
<polygon fill="black" stroke="black" points="2389.7,-928.63 2400,-926.14 2390.39,-921.66 2389.7,-928.63"/>
</g>
<!-- Constentimiento -->
<g id="node53" class="node">
<title>Constentimiento</title>
<polygon fill="none" stroke="white" points="2658.87,-908.15 2523.87,-908.15 2523.87,-872.15 2658.87,-872.15 2658.87,-908.15"/>
<text text-anchor="middle" x="2591.37" y="-886.45" font-family="Times,serif" font-size="14.00">Constentimiento</text>
</g>
<!-- Actos de disposición de los derechos personalísimos&#45;&gt;Constentimiento -->
<g id="edge60" class="edge">
<title>Actos de disposición de los derechos personalísimos&#45;&gt;Constentimiento</title>
<path fill="none" stroke="black" d="M2277.22,-890.15C2359.57,-890.15 2450.83,-890.15 2513.48,-890.15"/>
<polygon fill="black" stroke="black" points="2513.68,-893.65 2523.68,-890.15 2513.68,-886.65 2513.68,-893.65"/>
</g>
<!-- prohibidos cuando ocasionen una disminución permanente de su integridad -->
<g id="node54" class="node">
<title>prohibidos cuando ocasionen una disminución permanente de su integridad</title>
<polygon fill="none" stroke="white" points="2869.87,-854.15 2312.87,-854.15 2312.87,-818.15 2869.87,-818.15 2869.87,-854.15"/>
<text text-anchor="middle" x="2591.37" y="-832.45" font-family="Times,serif" font-size="14.00">prohibidos cuando ocasionen una disminución permanente de su integridad</text>
</g>
<!-- Actos de disposición de los derechos personalísimos&#45;&gt;prohibidos cuando ocasionen una disminución permanente de su integridad -->
<g id="edge58" class="edge">
<title>Actos de disposición de los derechos personalísimos&#45;&gt;prohibidos cuando ocasionen una disminución permanente de su integridad</title>
<path fill="none" stroke="black" d="M2232.7,-872.14C2259.39,-869.05 2286.95,-865.94 2312.87,-863.15 2337.73,-860.48 2363.85,-857.79 2389.71,-855.19"/>
<polygon fill="black" stroke="black" points="2390.39,-858.64 2400,-854.16 2389.7,-851.68 2390.39,-858.64"/>
</g>
<!-- prohibidos cuando ocasionen una disminución permanente de su integridad&#45;&gt;Derecho a la vida, integridad corporal y propio cuerpo -->
<g id="edge59" class="edge">
<title>prohibidos cuando ocasionen una disminución permanente de su integridad&#45;&gt;Derecho a la vida, integridad corporal y propio cuerpo</title>
<path fill="none" stroke="black" d="M2802.91,-854.16C2825.56,-856.83 2848.22,-859.83 2869.87,-863.15 2920.69,-870.96 2977.02,-882.71 3022.01,-892.86"/>
<polygon fill="black" stroke="black" points="3021.49,-896.33 3032.01,-895.14 3023.04,-889.51 3021.49,-896.33"/>
</g>
</g>
</svg>
