<?xml version="1.0" encoding="UTF-8" standalone="no"?>
<!DOCTYPE svg PUBLIC "-//W3C//DTD SVG 1.1//EN"
 "http://www.w3.org/Graphics/SVG/1.1/DTD/svg11.dtd">
<!-- Generated by graphviz version 2.43.0 (0)
 -->
<!-- Title: %3 Pages: 1 -->
<svg width="3612pt" height="1865pt"
 viewBox="0.00 0.00 3611.69 1865.00" xmlns="http://www.w3.org/2000/svg" xmlns:xlink="http://www.w3.org/1999/xlink">
<g id="graph0" class="graph" transform="scale(1 1) rotate(0) translate(4 1861)">
<title>%3</title>
<polygon fill="white" stroke="transparent" points="-4,4 -4,-1861 3607.69,-1861 3607.69,4 -4,4"/>
<!-- Atributos -->
<g id="node1" class="node">
<title>Atributos</title>
<polygon fill="none" stroke="red" points="271.19,-484 163.4,-449.5 378.97,-449.5 271.19,-484"/>
<text text-anchor="middle" x="271.19" y="-457.3" font-family="Times,serif" font-size="14.00">Atributos</text>
</g>
<!-- Innatos -->
<g id="node2" class="node">
<title>Innatos</title>
<polygon fill="none" stroke="white" points="989.53,-695 919.53,-695 919.53,-659 989.53,-659 989.53,-695"/>
<text text-anchor="middle" x="954.53" y="-673.3" font-family="Times,serif" font-size="14.00">Innatos</text>
</g>
<!-- Atributos&#45;&gt;Innatos -->
<g id="edge1" class="edge">
<title>Atributos&#45;&gt;Innatos</title>
<path fill="none" stroke="black" d="M284.62,-479.94C312.12,-519.98 382.53,-612.57 468.37,-650 619,-715.68 821.29,-697.04 909.41,-684.37"/>
<polygon fill="black" stroke="black" points="909.96,-687.83 919.33,-682.9 908.93,-680.91 909.96,-687.83"/>
</g>
<!-- Nombre -->
<g id="node3" class="node">
<title>Nombre</title>
<polygon fill="none" stroke="yellow" points="991.53,-225 917.53,-225 917.53,-189 991.53,-189 991.53,-225"/>
<text text-anchor="middle" x="954.53" y="-203.3" font-family="Times,serif" font-size="14.00">Nombre</text>
</g>
<!-- Atributos&#45;&gt;Nombre -->
<g id="edge2" class="edge">
<title>Atributos&#45;&gt;Nombre</title>
<path fill="none" stroke="black" d="M278.03,-449.49C298.2,-411.2 369.11,-287.74 468.37,-239 615.05,-166.97 817.32,-185.58 907.23,-198.93"/>
<polygon fill="black" stroke="black" points="906.96,-202.43 917.37,-200.49 908.02,-195.51 906.96,-202.43"/>
</g>
<!-- Domicilio -->
<g id="node4" class="node">
<title>Domicilio</title>
<polygon fill="none" stroke="yellow" points="996.03,-587 913.03,-587 913.03,-551 996.03,-551 996.03,-587"/>
<text text-anchor="middle" x="954.53" y="-565.3" font-family="Times,serif" font-size="14.00">Domicilio</text>
</g>
<!-- Atributos&#45;&gt;Domicilio -->
<g id="edge3" class="edge">
<title>Atributos&#45;&gt;Domicilio</title>
<path fill="none" stroke="black" d="M298.53,-475.25C335.33,-494.35 404.77,-527.54 468.37,-542 623.66,-577.31 813.74,-575.23 902.86,-571.7"/>
<polygon fill="black" stroke="black" points="903.12,-575.19 912.96,-571.27 902.82,-568.2 903.12,-575.19"/>
</g>
<!-- Capacidad -->
<g id="node5" class="node">
<title>Capacidad</title>
<polygon fill="none" stroke="yellow" points="1000.03,-533 909.03,-533 909.03,-497 1000.03,-497 1000.03,-533"/>
<text text-anchor="middle" x="954.53" y="-511.3" font-family="Times,serif" font-size="14.00">Capacidad</text>
</g>
<!-- Atributos&#45;&gt;Capacidad -->
<g id="edge4" class="edge">
<title>Atributos&#45;&gt;Capacidad</title>
<path fill="none" stroke="black" d="M319.63,-468.63C359.29,-474.74 417.38,-483.08 468.37,-488 624.06,-503.02 808.72,-510.45 898.72,-513.4"/>
<polygon fill="black" stroke="black" points="898.85,-516.91 908.96,-513.73 899.07,-509.91 898.85,-516.91"/>
</g>
<!-- Estado Civil -->
<g id="node6" class="node">
<title>Estado Civil</title>
<polygon fill="none" stroke="yellow" points="1006.03,-117 903.03,-117 903.03,-81 1006.03,-81 1006.03,-117"/>
<text text-anchor="middle" x="954.53" y="-95.3" font-family="Times,serif" font-size="14.00">Estado Civil</text>
</g>
<!-- Atributos&#45;&gt;Estado Civil -->
<g id="edge5" class="edge">
<title>Atributos&#45;&gt;Estado Civil</title>
<path fill="none" stroke="black" d="M276.39,-449.45C292.95,-405.76 358.21,-249.59 468.37,-180 601.77,-95.74 795.34,-90.91 892.73,-94.75"/>
<polygon fill="black" stroke="black" points="892.84,-98.26 902.98,-95.2 893.15,-91.27 892.84,-98.26"/>
</g>
<!-- Vitalicios -->
<g id="node9" class="node">
<title>Vitalicios</title>
<polygon fill="none" stroke="white" points="995.53,-749 913.53,-749 913.53,-713 995.53,-713 995.53,-749"/>
<text text-anchor="middle" x="954.53" y="-727.3" font-family="Times,serif" font-size="14.00">Vitalicios</text>
</g>
<!-- Atributos&#45;&gt;Vitalicios -->
<g id="edge47" class="edge">
<title>Atributos&#45;&gt;Vitalicios</title>
<path fill="none" stroke="black" d="M281.17,-481.12C304.13,-529.81 370.18,-653.68 468.37,-704 611.83,-777.52 811.43,-756.33 903.44,-740.85"/>
<polygon fill="black" stroke="black" points="904.07,-744.3 913.32,-739.14 902.87,-737.4 904.07,-744.3"/>
</g>
<!-- Inalienables -->
<g id="node10" class="node">
<title>Inalienables</title>
<polygon fill="none" stroke="white" points="1006.03,-641 903.03,-641 903.03,-605 1006.03,-605 1006.03,-641"/>
<text text-anchor="middle" x="954.53" y="-619.3" font-family="Times,serif" font-size="14.00">Inalienables</text>
</g>
<!-- Atributos&#45;&gt;Inalienables -->
<g id="edge40" class="edge">
<title>Atributos&#45;&gt;Inalienables</title>
<path fill="none" stroke="black" d="M289.76,-478.23C321.97,-508.54 394.03,-570.61 468.37,-596 614.18,-645.81 798.9,-638.29 892.78,-629.89"/>
<polygon fill="black" stroke="black" points="893.31,-633.35 902.95,-628.94 892.67,-626.38 893.31,-633.35"/>
</g>
<!-- Imprescriptibles -->
<g id="node11" class="node">
<title>Imprescriptibles</title>
<polygon fill="none" stroke="white" points="1021.53,-479 887.53,-479 887.53,-443 1021.53,-443 1021.53,-479"/>
<text text-anchor="middle" x="954.53" y="-457.3" font-family="Times,serif" font-size="14.00">Imprescriptibles</text>
</g>
<!-- Atributos&#45;&gt;Imprescriptibles -->
<g id="edge41" class="edge">
<title>Atributos&#45;&gt;Imprescriptibles</title>
<path fill="none" stroke="black" d="M343.17,-461C472.23,-461 744.2,-461 877.14,-461"/>
<polygon fill="black" stroke="black" points="877.24,-464.5 887.24,-461 877.24,-457.5 877.24,-464.5"/>
</g>
<!-- Patrimonio -->
<g id="node12" class="node">
<title>Patrimonio</title>
<polygon fill="none" stroke="yellow" points="1002.03,-425 907.03,-425 907.03,-389 1002.03,-389 1002.03,-425"/>
<text text-anchor="middle" x="954.53" y="-403.3" font-family="Times,serif" font-size="14.00">Patrimonio</text>
</g>
<!-- Atributos&#45;&gt;Patrimonio -->
<g id="edge6" class="edge">
<title>Atributos&#45;&gt;Patrimonio</title>
<path fill="none" stroke="black" d="M345.62,-449.45C382.39,-444.04 427.65,-437.93 468.37,-434 623,-419.08 806.22,-411.65 896.88,-408.66"/>
<polygon fill="black" stroke="black" points="897.06,-412.16 906.94,-408.33 896.83,-405.16 897.06,-412.16"/>
</g>
<!-- Único -->
<g id="node15" class="node">
<title>Único</title>
<polygon fill="none" stroke="white" points="1745.69,-306 1687.69,-306 1687.69,-270 1745.69,-270 1745.69,-306"/>
<text text-anchor="middle" x="1716.69" y="-284.3" font-family="Times,serif" font-size="14.00">Único</text>
</g>
<!-- Atributos&#45;&gt;Único -->
<g id="edge39" class="edge">
<title>Atributos&#45;&gt;Único</title>
<path fill="none" stroke="black" d="M279.34,-449.49C301.87,-414.51 375.39,-309.5 468.37,-272 668.76,-191.18 1224.71,-265.72 1440.69,-272 1525.39,-274.46 1624.58,-281.18 1677.62,-285.08"/>
<polygon fill="black" stroke="black" points="1677.37,-288.57 1687.6,-285.83 1677.89,-281.59 1677.37,-288.57"/>
</g>
<!-- Irrenunciables -->
<g id="node43" class="node">
<title>Irrenunciables</title>
<polygon fill="none" stroke="white" points="1014.53,-371 894.53,-371 894.53,-335 1014.53,-335 1014.53,-371"/>
<text text-anchor="middle" x="954.53" y="-349.3" font-family="Times,serif" font-size="14.00">Irrenunciables</text>
</g>
<!-- Atributos&#45;&gt;Irrenunciables -->
<g id="edge42" class="edge">
<title>Atributos&#45;&gt;Irrenunciables</title>
<path fill="none" stroke="black" d="M293.46,-449.4C328.65,-430.88 401.72,-395.16 468.37,-380 613.61,-346.98 789.3,-346.66 884.34,-349.65"/>
<polygon fill="black" stroke="black" points="884.29,-353.15 894.4,-349.98 884.52,-346.15 884.29,-353.15"/>
</g>
<!-- Inembargables -->
<g id="node44" class="node">
<title>Inembargables</title>
<polygon fill="none" stroke="white" points="1016.03,-317 893.03,-317 893.03,-281 1016.03,-281 1016.03,-317"/>
<text text-anchor="middle" x="954.53" y="-295.3" font-family="Times,serif" font-size="14.00">Inembargables</text>
</g>
<!-- Atributos&#45;&gt;Inembargables -->
<g id="edge43" class="edge">
<title>Atributos&#45;&gt;Inembargables</title>
<path fill="none" stroke="black" d="M284.14,-449.12C312.88,-421.44 389.34,-353 468.37,-326 609.13,-277.92 786.15,-283.26 882.7,-291.25"/>
<polygon fill="black" stroke="black" points="882.67,-294.76 892.93,-292.13 883.27,-287.78 882.67,-294.76"/>
</g>
<!-- Nombre&#45;&gt;Único -->
<g id="edge7" class="edge">
<title>Nombre&#45;&gt;Único</title>
<path fill="none" stroke="black" d="M991.61,-203.62C1073.65,-197.16 1279.56,-187.88 1440.69,-239 1458.56,-244.67 1458.95,-254.91 1476.69,-261 1544.62,-284.31 1629.15,-288.48 1677.31,-288.72"/>
<polygon fill="black" stroke="black" points="1677.6,-292.22 1687.59,-288.71 1677.59,-285.22 1677.6,-292.22"/>
</g>
<!-- Indivisible -->
<g id="node16" class="node">
<title>Indivisible</title>
<polygon fill="none" stroke="white" points="1762.19,-252 1671.19,-252 1671.19,-216 1762.19,-216 1762.19,-252"/>
<text text-anchor="middle" x="1716.69" y="-230.3" font-family="Times,serif" font-size="14.00">Indivisible</text>
</g>
<!-- Nombre&#45;&gt;Indivisible -->
<g id="edge8" class="edge">
<title>Nombre&#45;&gt;Indivisible</title>
<path fill="none" stroke="black" d="M991.68,-208.28C1114.14,-212.63 1513.81,-226.83 1660.8,-232.05"/>
<polygon fill="black" stroke="black" points="1660.82,-235.55 1670.94,-232.41 1661.07,-228.56 1660.82,-235.55"/>
</g>
<!-- Oponibilidad erga omnes -->
<g id="node17" class="node">
<title>Oponibilidad erga omnes</title>
<polygon fill="none" stroke="white" points="1814.19,-144 1619.19,-144 1619.19,-108 1814.19,-108 1814.19,-144"/>
<text text-anchor="middle" x="1716.69" y="-122.3" font-family="Times,serif" font-size="14.00">Oponibilidad erga omnes</text>
</g>
<!-- Nombre&#45;&gt;Oponibilidad erga omnes -->
<g id="edge10" class="edge">
<title>Nombre&#45;&gt;Oponibilidad erga omnes</title>
<path fill="none" stroke="black" d="M991.68,-203.15C1101.76,-191.42 1435.81,-155.82 1609,-137.37"/>
<polygon fill="black" stroke="black" points="1609.59,-140.83 1619.16,-136.29 1608.84,-133.86 1609.59,-140.83"/>
</g>
<!-- Valor moral -->
<g id="node18" class="node">
<title>Valor moral</title>
<polygon fill="none" stroke="white" points="1766.19,-198 1667.19,-198 1667.19,-162 1766.19,-162 1766.19,-198"/>
<text text-anchor="middle" x="1716.69" y="-176.3" font-family="Times,serif" font-size="14.00">Valor moral</text>
</g>
<!-- Nombre&#45;&gt;Valor moral -->
<g id="edge9" class="edge">
<title>Nombre&#45;&gt;Valor moral</title>
<path fill="none" stroke="black" d="M991.68,-205.72C1112.99,-201.41 1506.31,-187.44 1656.58,-182.1"/>
<polygon fill="black" stroke="black" points="1657.1,-185.58 1666.97,-181.73 1656.86,-178.59 1657.1,-185.58"/>
</g>
<!-- Sede para determinados efectos jurídicos (juicios, notificaciones) -->
<g id="node20" class="node">
<title>Sede para determinados efectos jurídicos (juicios, notificaciones)</title>
<polygon fill="none" stroke="white" points="1956.69,-668 1476.69,-668 1476.69,-632 1956.69,-632 1956.69,-668"/>
<text text-anchor="middle" x="1716.69" y="-646.3" font-family="Times,serif" font-size="14.00">Sede para determinados efectos jurídicos (juicios, notificaciones)</text>
</g>
<!-- Domicilio&#45;&gt;Sede para determinados efectos jurídicos (juicios, notificaciones) -->
<g id="edge12" class="edge">
<title>Domicilio&#45;&gt;Sede para determinados efectos jurídicos (juicios, notificaciones)</title>
<path fill="none" stroke="black" d="M996.08,-563.57C1081.42,-553.78 1284.55,-539.09 1440.69,-596 1459.48,-602.85 1458.1,-615.62 1476.69,-623 1481.96,-625.09 1487.35,-627.04 1492.83,-628.86"/>
<polygon fill="black" stroke="black" points="1492.18,-632.32 1502.77,-631.97 1494.27,-625.64 1492.18,-632.32"/>
</g>
<!-- Domicilio real (necesario, único) -->
<g id="node21" class="node">
<title>Domicilio real (necesario, único)</title>
<polygon fill="none" stroke="white" points="1839.69,-614 1593.69,-614 1593.69,-578 1839.69,-578 1839.69,-614"/>
<text text-anchor="middle" x="1716.69" y="-592.3" font-family="Times,serif" font-size="14.00">Domicilio real (necesario, único)</text>
</g>
<!-- Domicilio&#45;&gt;Domicilio real (necesario, único) -->
<g id="edge13" class="edge">
<title>Domicilio&#45;&gt;Domicilio real (necesario, único)</title>
<path fill="none" stroke="black" d="M996.13,-570.44C1105,-574.31 1407.12,-585.04 1583.34,-591.3"/>
<polygon fill="black" stroke="black" points="1583.34,-594.8 1593.46,-591.66 1583.59,-587.81 1583.34,-594.8"/>
</g>
<!-- Domicilio legal (forzoso) -->
<g id="node22" class="node">
<title>Domicilio legal (forzoso)</title>
<polygon fill="none" stroke="white" points="1811.19,-560 1622.19,-560 1622.19,-524 1811.19,-524 1811.19,-560"/>
<text text-anchor="middle" x="1716.69" y="-538.3" font-family="Times,serif" font-size="14.00">Domicilio legal (forzoso)</text>
</g>
<!-- Domicilio&#45;&gt;Domicilio legal (forzoso) -->
<g id="edge14" class="edge">
<title>Domicilio&#45;&gt;Domicilio legal (forzoso)</title>
<path fill="none" stroke="black" d="M996.13,-567.56C1111.15,-563.47 1441.86,-551.73 1611.93,-545.69"/>
<polygon fill="black" stroke="black" points="1612.28,-549.18 1622.15,-545.32 1612.03,-542.18 1612.28,-549.18"/>
</g>
<!-- Domicilio especial (para ciertos casos, como judiciales) -->
<g id="node23" class="node">
<title>Domicilio especial (para ciertos casos, como judiciales)</title>
<polygon fill="none" stroke="white" points="1920.69,-506 1512.69,-506 1512.69,-470 1920.69,-470 1920.69,-506"/>
<text text-anchor="middle" x="1716.69" y="-484.3" font-family="Times,serif" font-size="14.00">Domicilio especial (para ciertos casos, como judiciales)</text>
</g>
<!-- Domicilio&#45;&gt;Domicilio especial (para ciertos casos, como judiciales) -->
<g id="edge15" class="edge">
<title>Domicilio&#45;&gt;Domicilio especial (para ciertos casos, como judiciales)</title>
<path fill="none" stroke="black" d="M996.08,-574.43C1081.42,-584.22 1284.55,-598.91 1440.69,-542 1459.48,-535.15 1458.1,-522.38 1476.69,-515 1485.16,-511.63 1493.94,-508.64 1502.89,-505.99"/>
<polygon fill="black" stroke="black" points="1503.99,-509.32 1512.67,-503.25 1502.1,-502.58 1503.99,-509.32"/>
</g>
<!-- Estado Civil&#45;&gt;Oponibilidad erga omnes -->
<g id="edge16" class="edge">
<title>Estado Civil&#45;&gt;Oponibilidad erga omnes</title>
<path fill="none" stroke="black" d="M1006.29,-100.8C1128.73,-105.15 1442.45,-116.29 1608.64,-122.2"/>
<polygon fill="black" stroke="black" points="1608.77,-125.7 1618.89,-122.56 1609.02,-118.71 1608.77,-125.7"/>
</g>
<!-- Estable -->
<g id="node24" class="node">
<title>Estable</title>
<polygon fill="none" stroke="white" points="1752.19,-90 1681.19,-90 1681.19,-54 1752.19,-54 1752.19,-90"/>
<text text-anchor="middle" x="1716.69" y="-68.3" font-family="Times,serif" font-size="14.00">Estable</text>
</g>
<!-- Estado Civil&#45;&gt;Estable -->
<g id="edge17" class="edge">
<title>Estado Civil&#45;&gt;Estable</title>
<path fill="none" stroke="black" d="M1006.29,-97.2C1146.52,-92.22 1537.63,-78.32 1670.69,-73.6"/>
<polygon fill="black" stroke="black" points="1671.06,-77.09 1680.93,-73.23 1670.81,-70.09 1671.06,-77.09"/>
</g>
<!-- Determina derechos y obligaciones -->
<g id="node25" class="node">
<title>Determina derechos y obligaciones</title>
<polygon fill="none" stroke="white" points="1850.19,-36 1583.19,-36 1583.19,0 1850.19,0 1850.19,-36"/>
<text text-anchor="middle" x="1716.69" y="-14.3" font-family="Times,serif" font-size="14.00">Determina derechos y obligaciones</text>
</g>
<!-- Estado Civil&#45;&gt;Determina derechos y obligaciones -->
<g id="edge18" class="edge">
<title>Estado Civil&#45;&gt;Determina derechos y obligaciones</title>
<path fill="none" stroke="black" d="M1006.29,-93.59C1120.38,-81.43 1400.56,-51.58 1572.7,-33.24"/>
<polygon fill="black" stroke="black" points="1573.29,-36.69 1582.86,-32.15 1572.54,-29.73 1573.29,-36.69"/>
</g>
<!-- Personalísimos -->
<g id="node7" class="node">
<title>Personalísimos</title>
<polygon fill="none" stroke="red" points="271.19,-1207 109.81,-1172.5 432.56,-1172.5 271.19,-1207"/>
<text text-anchor="middle" x="271.19" y="-1180.3" font-family="Times,serif" font-size="14.00">Personalísimos</text>
</g>
<!-- Personalísimos&#45;&gt;Innatos -->
<g id="edge34" class="edge">
<title>Personalísimos&#45;&gt;Innatos</title>
<path fill="none" stroke="black" d="M272.71,-1172.3C276.19,-1110.8 301.22,-823.13 468.37,-704 538.26,-654.19 803.55,-666.5 909.46,-673.65"/>
<polygon fill="black" stroke="black" points="909.28,-677.15 919.5,-674.35 909.77,-670.17 909.28,-677.15"/>
</g>
<!-- Necesarios -->
<g id="node8" class="node">
<title>Necesarios</title>
<polygon fill="none" stroke="white" points="1002.03,-949 907.03,-949 907.03,-913 1002.03,-913 1002.03,-949"/>
<text text-anchor="middle" x="954.53" y="-927.3" font-family="Times,serif" font-size="14.00">Necesarios</text>
</g>
<!-- Personalísimos&#45;&gt;Necesarios -->
<g id="edge36" class="edge">
<title>Personalísimos&#45;&gt;Necesarios</title>
<path fill="none" stroke="black" d="M277.95,-1172.25C297.86,-1133.15 368.07,-1007.17 468.37,-958 609.61,-888.77 802.48,-906.06 896.84,-920.57"/>
<polygon fill="black" stroke="black" points="896.33,-924.03 906.76,-922.14 897.43,-917.12 896.33,-924.03"/>
</g>
<!-- Personalísimos&#45;&gt;Vitalicios -->
<g id="edge35" class="edge">
<title>Personalísimos&#45;&gt;Vitalicios</title>
<path fill="none" stroke="black" d="M273.44,-1172.25C280.23,-1115.24 317.99,-865.94 468.37,-763 537.87,-715.42 793.84,-722.58 903.32,-728.04"/>
<polygon fill="black" stroke="black" points="903.28,-731.55 913.45,-728.56 903.64,-724.55 903.28,-731.55"/>
</g>
<!-- Privacidad -->
<g id="node13" class="node">
<title>Privacidad</title>
<polygon fill="none" stroke="yellow" points="1000.53,-1715 908.53,-1715 908.53,-1679 1000.53,-1679 1000.53,-1715"/>
<text text-anchor="middle" x="954.53" y="-1693.3" font-family="Times,serif" font-size="14.00">Privacidad</text>
</g>
<!-- Personalísimos&#45;&gt;Privacidad -->
<g id="edge61" class="edge">
<title>Personalísimos&#45;&gt;Privacidad</title>
<path fill="none" stroke="black" d="M273.3,-1206.67C278.56,-1286.4 308.01,-1555.19 468.37,-1670 535.8,-1718.28 785.83,-1708.32 898.2,-1701.11"/>
<polygon fill="black" stroke="black" points="898.56,-1704.59 908.31,-1700.44 898.1,-1697.61 898.56,-1704.59"/>
</g>
<!-- Dignidad -->
<g id="node14" class="node">
<title>Dignidad</title>
<polygon fill="none" stroke="yellow" points="995.03,-895 914.03,-895 914.03,-859 995.03,-859 995.03,-895"/>
<text text-anchor="middle" x="954.53" y="-873.3" font-family="Times,serif" font-size="14.00">Dignidad</text>
</g>
<!-- Personalísimos&#45;&gt;Dignidad -->
<g id="edge53" class="edge">
<title>Personalísimos&#45;&gt;Dignidad</title>
<path fill="none" stroke="black" d="M275.08,-1172.34C288.84,-1126.27 351.92,-959.77 468.37,-895 541.93,-854.08 795.63,-860.55 903.91,-869.66"/>
<polygon fill="black" stroke="black" points="903.66,-873.15 913.93,-870.54 904.27,-866.17 903.66,-873.15"/>
</g>
<!-- Inviolabilidad de la persona humana -->
<g id="node26" class="node">
<title>Inviolabilidad de la persona humana</title>
<polygon fill="none" stroke="yellow" points="1092.03,-841 817.03,-841 817.03,-805 1092.03,-805 1092.03,-841"/>
<text text-anchor="middle" x="954.53" y="-819.3" font-family="Times,serif" font-size="14.00">Inviolabilidad de la persona humana</text>
</g>
<!-- Personalísimos&#45;&gt;Inviolabilidad de la persona humana -->
<g id="edge19" class="edge">
<title>Personalísimos&#45;&gt;Inviolabilidad de la persona humana</title>
<path fill="none" stroke="black" d="M274.82,-1172.34C286.74,-1122.7 340.62,-927.91 468.37,-850 587.21,-777.52 754.41,-787.26 858.26,-803.34"/>
<polygon fill="black" stroke="black" points="857.99,-806.84 868.42,-804.96 859.1,-799.93 857.99,-806.84"/>
</g>
<!-- Derecho a la vida, integridad corporal y propio cuerpo -->
<g id="node27" class="node">
<title>Derecho a la vida, integridad corporal y propio cuerpo</title>
<polygon fill="none" stroke="yellow" points="3414.69,-1776 3010.69,-1776 3010.69,-1740 3414.69,-1740 3414.69,-1776"/>
<text text-anchor="middle" x="3212.69" y="-1754.3" font-family="Times,serif" font-size="14.00">Derecho a la vida, integridad corporal y propio cuerpo</text>
</g>
<!-- Personalísimos&#45;&gt;Derecho a la vida, integridad corporal y propio cuerpo -->
<g id="edge20" class="edge">
<title>Personalísimos&#45;&gt;Derecho a la vida, integridad corporal y propio cuerpo</title>
<path fill="none" stroke="black" d="M271.79,-1206.98C271.67,-1295.28 284.36,-1614.52 468.37,-1749 692.23,-1912.6 1438.41,-1781 1715.69,-1781 1715.69,-1781 1715.69,-1781 2188.19,-1781 2469.07,-1781 2793.21,-1772.23 3000.16,-1765.53"/>
<polygon fill="black" stroke="black" points="3000.35,-1769.02 3010.23,-1765.2 3000.12,-1762.03 3000.35,-1769.02"/>
</g>
<!-- Derecho a la libertad -->
<g id="node32" class="node">
<title>Derecho a la libertad</title>
<polygon fill="none" stroke="yellow" points="1038.03,-1661 871.03,-1661 871.03,-1625 1038.03,-1625 1038.03,-1661"/>
<text text-anchor="middle" x="954.53" y="-1639.3" font-family="Times,serif" font-size="14.00">Derecho a la libertad</text>
</g>
<!-- Personalísimos&#45;&gt;Derecho a la libertad -->
<g id="edge25" class="edge">
<title>Personalísimos&#45;&gt;Derecho a la libertad</title>
<path fill="none" stroke="black" d="M274.48,-1206.51C283.36,-1280.36 322.55,-1516.23 468.37,-1616 529.95,-1658.13 738.09,-1654.93 860.84,-1648.93"/>
<polygon fill="black" stroke="black" points="861.17,-1652.42 870.98,-1648.42 860.82,-1645.42 861.17,-1652.42"/>
</g>
<!-- Derecho a la no discriminación -->
<g id="node33" class="node">
<title>Derecho a la no discriminación</title>
<polygon fill="none" stroke="yellow" points="1072.53,-1607 836.53,-1607 836.53,-1571 1072.53,-1571 1072.53,-1607"/>
<text text-anchor="middle" x="954.53" y="-1585.3" font-family="Times,serif" font-size="14.00">Derecho a la no discriminación</text>
</g>
<!-- Personalísimos&#45;&gt;Derecho a la no discriminación -->
<g id="edge26" class="edge">
<title>Personalísimos&#45;&gt;Derecho a la no discriminación</title>
<path fill="none" stroke="black" d="M275.91,-1206.12C288.58,-1273.52 336.73,-1476.91 468.37,-1562 525.39,-1598.86 702.53,-1600.04 826.18,-1595.84"/>
<polygon fill="black" stroke="black" points="826.61,-1599.32 836.48,-1595.47 826.36,-1592.33 826.61,-1599.32"/>
</g>
<!-- Derecho a la intimidad -->
<g id="node34" class="node">
<title>Derecho a la intimidad</title>
<polygon fill="none" stroke="yellow" points="1044.03,-1553 865.03,-1553 865.03,-1517 1044.03,-1517 1044.03,-1553"/>
<text text-anchor="middle" x="954.53" y="-1531.3" font-family="Times,serif" font-size="14.00">Derecho a la intimidad</text>
</g>
<!-- Personalísimos&#45;&gt;Derecho a la intimidad -->
<g id="edge27" class="edge">
<title>Personalísimos&#45;&gt;Derecho a la intimidad</title>
<path fill="none" stroke="black" d="M277.8,-1206.03C294.62,-1266.88 350.84,-1437.4 468.37,-1508 531.15,-1545.71 731.92,-1544.69 854.64,-1540.13"/>
<polygon fill="black" stroke="black" points="854.95,-1543.62 864.8,-1539.73 854.68,-1536.62 854.95,-1543.62"/>
</g>
<!-- Honor vs libertad de prensa -->
<g id="node35" class="node">
<title>Honor vs libertad de prensa</title>
<polygon fill="none" stroke="yellow" points="1063.03,-1499 846.03,-1499 846.03,-1463 1063.03,-1463 1063.03,-1499"/>
<text text-anchor="middle" x="954.53" y="-1477.3" font-family="Times,serif" font-size="14.00">Honor vs libertad de prensa</text>
</g>
<!-- Personalísimos&#45;&gt;Honor vs libertad de prensa -->
<g id="edge28" class="edge">
<title>Personalísimos&#45;&gt;Honor vs libertad de prensa</title>
<path fill="none" stroke="black" d="M280.18,-1205.5C301.32,-1258.89 364.33,-1397.29 468.37,-1454 529.39,-1487.25 712.79,-1488.89 835.79,-1485.83"/>
<polygon fill="black" stroke="black" points="836.11,-1489.32 846.02,-1485.56 835.93,-1482.33 836.11,-1489.32"/>
</g>
<!-- Derecho a la imagen -->
<g id="node38" class="node">
<title>Derecho a la imagen</title>
<polygon fill="none" stroke="yellow" points="1036.03,-1445 873.03,-1445 873.03,-1409 1036.03,-1409 1036.03,-1445"/>
<text text-anchor="middle" x="954.53" y="-1423.3" font-family="Times,serif" font-size="14.00">Derecho a la imagen</text>
</g>
<!-- Personalísimos&#45;&gt;Derecho a la imagen -->
<g id="edge31" class="edge">
<title>Personalísimos&#45;&gt;Derecho a la imagen</title>
<path fill="none" stroke="black" d="M283.3,-1204.57C308.95,-1249.64 377.13,-1356.54 468.37,-1400 594.83,-1460.24 761.35,-1453.69 862.76,-1441.65"/>
<polygon fill="black" stroke="black" points="863.48,-1445.09 872.98,-1440.4 862.62,-1438.14 863.48,-1445.09"/>
</g>
<!-- Derecho a réplica -->
<g id="node39" class="node">
<title>Derecho a réplica</title>
<polygon fill="none" stroke="yellow" points="1025.53,-1391 883.53,-1391 883.53,-1355 1025.53,-1355 1025.53,-1391"/>
<text text-anchor="middle" x="954.53" y="-1369.3" font-family="Times,serif" font-size="14.00">Derecho a réplica</text>
</g>
<!-- Personalísimos&#45;&gt;Derecho a réplica -->
<g id="edge32" class="edge">
<title>Personalísimos&#45;&gt;Derecho a réplica</title>
<path fill="none" stroke="black" d="M288.03,-1203.52C318.53,-1239.43 389.39,-1315.1 468.37,-1346 602.67,-1398.54 773.95,-1392.95 872.93,-1383.44"/>
<polygon fill="black" stroke="black" points="873.56,-1386.89 883.16,-1382.42 872.87,-1379.93 873.56,-1386.89"/>
</g>
<!-- Habeas Data -->
<g id="node40" class="node">
<title>Habeas Data</title>
<polygon fill="none" stroke="yellow" points="1008.53,-1337 900.53,-1337 900.53,-1301 1008.53,-1301 1008.53,-1337"/>
<text text-anchor="middle" x="954.53" y="-1315.3" font-family="Times,serif" font-size="14.00">Habeas Data</text>
</g>
<!-- Personalísimos&#45;&gt;Habeas Data -->
<g id="edge33" class="edge">
<title>Personalísimos&#45;&gt;Habeas Data</title>
<path fill="none" stroke="black" d="M296.01,-1201.8C331.44,-1227.15 401.1,-1272.7 468.37,-1292 614.72,-1333.99 795.86,-1330.19 889.99,-1324.3"/>
<polygon fill="black" stroke="black" points="890.45,-1327.78 900.2,-1323.63 890,-1320.79 890.45,-1327.78"/>
</g>
<!-- Esenciales -->
<g id="node41" class="node">
<title>Esenciales</title>
<polygon fill="none" stroke="white" points="1000.53,-1283 908.53,-1283 908.53,-1247 1000.53,-1247 1000.53,-1283"/>
<text text-anchor="middle" x="954.53" y="-1261.3" font-family="Times,serif" font-size="14.00">Esenciales</text>
</g>
<!-- Personalísimos&#45;&gt;Esenciales -->
<g id="edge38" class="edge">
<title>Personalísimos&#45;&gt;Esenciales</title>
<path fill="none" stroke="black" d="M313.33,-1198.09C352.64,-1210.88 413.81,-1229.08 468.37,-1238 622.69,-1263.24 807.88,-1266.08 898.34,-1265.73"/>
<polygon fill="black" stroke="black" points="898.39,-1269.23 908.37,-1265.68 898.35,-1262.23 898.39,-1269.23"/>
</g>
<!-- Extrapatrimoniales -->
<g id="node42" class="node">
<title>Extrapatrimoniales</title>
<polygon fill="none" stroke="white" points="1032.03,-1229 877.03,-1229 877.03,-1193 1032.03,-1193 1032.03,-1229"/>
<text text-anchor="middle" x="954.53" y="-1207.3" font-family="Times,serif" font-size="14.00">Extrapatrimoniales</text>
</g>
<!-- Personalísimos&#45;&gt;Extrapatrimoniales -->
<g id="edge37" class="edge">
<title>Personalísimos&#45;&gt;Extrapatrimoniales</title>
<path fill="none" stroke="black" d="M362.31,-1187.57C493.83,-1192.78 736.78,-1202.41 866.51,-1207.55"/>
<polygon fill="black" stroke="black" points="866.67,-1211.06 876.8,-1207.96 866.95,-1204.07 866.67,-1211.06"/>
</g>
<!-- Inherentes -->
<g id="node45" class="node">
<title>Inherentes</title>
<polygon fill="none" stroke="white" points="1001.53,-1175 907.53,-1175 907.53,-1139 1001.53,-1139 1001.53,-1175"/>
<text text-anchor="middle" x="954.53" y="-1153.3" font-family="Times,serif" font-size="14.00">Inherentes</text>
</g>
<!-- Personalísimos&#45;&gt;Inherentes -->
<g id="edge44" class="edge">
<title>Personalísimos&#45;&gt;Inherentes</title>
<path fill="none" stroke="black" d="M403.15,-1178.81C552.42,-1172.9 789.58,-1163.5 897.17,-1159.23"/>
<polygon fill="black" stroke="black" points="897.62,-1162.72 907.47,-1158.83 897.34,-1155.72 897.62,-1162.72"/>
</g>
<!-- Absolutos -->
<g id="node46" class="node">
<title>Absolutos</title>
<polygon fill="none" stroke="white" points="997.53,-1121 911.53,-1121 911.53,-1085 997.53,-1085 997.53,-1121"/>
<text text-anchor="middle" x="954.53" y="-1099.3" font-family="Times,serif" font-size="14.00">Absolutos</text>
</g>
<!-- Personalísimos&#45;&gt;Absolutos -->
<g id="edge45" class="edge">
<title>Personalísimos&#45;&gt;Absolutos</title>
<path fill="none" stroke="black" d="M305.72,-1172.41C344.4,-1159.6 410.15,-1139.52 468.37,-1130 624.33,-1104.5 811.83,-1101.86 901.2,-1102.28"/>
<polygon fill="black" stroke="black" points="901.32,-1105.78 911.34,-1102.34 901.37,-1098.78 901.32,-1105.78"/>
</g>
<!-- Autónomos -->
<g id="node47" class="node">
<title>Autónomos</title>
<polygon fill="none" stroke="white" points="1002.53,-1067 906.53,-1067 906.53,-1031 1002.53,-1031 1002.53,-1067"/>
<text text-anchor="middle" x="954.53" y="-1045.3" font-family="Times,serif" font-size="14.00">Autónomos</text>
</g>
<!-- Personalísimos&#45;&gt;Autónomos -->
<g id="edge46" class="edge">
<title>Personalísimos&#45;&gt;Autónomos</title>
<path fill="none" stroke="black" d="M287.39,-1172.45C319.04,-1149.16 395.12,-1097.02 468.37,-1076 617.89,-1033.1 803.72,-1037.99 895.98,-1044.09"/>
<polygon fill="black" stroke="black" points="896.01,-1047.6 906.23,-1044.79 896.49,-1040.61 896.01,-1047.6"/>
</g>
<!-- Relativamente indisponible -->
<g id="node48" class="node">
<title>Relativamente indisponible</title>
<polygon fill="none" stroke="white" points="1822.69,-759 1610.69,-759 1610.69,-723 1822.69,-723 1822.69,-759"/>
<text text-anchor="middle" x="1716.69" y="-737.3" font-family="Times,serif" font-size="14.00">Relativamente indisponible</text>
</g>
<!-- Personalísimos&#45;&gt;Relativamente indisponible -->
<g id="edge48" class="edge">
<title>Personalísimos&#45;&gt;Relativamente indisponible</title>
<path fill="none" stroke="black" d="M273.83,-1172.35C282.21,-1117.95 325.47,-887.77 468.37,-796 513.86,-766.79 1386.7,-760.72 1440.69,-758 1493.2,-755.35 1551.32,-751.84 1600.55,-748.7"/>
<polygon fill="black" stroke="black" points="1600.84,-752.19 1610.59,-748.06 1600.39,-745.2 1600.84,-752.19"/>
</g>
<!-- No requieren más que la existencia de la persona. -->
<g id="node49" class="node">
<title>No requieren más que la existencia de la persona.</title>
<polygon fill="none" stroke="blue" points="954.53,-1013 468.21,-978.5 1440.84,-978.5 954.53,-1013"/>
<text text-anchor="middle" x="954.53" y="-986.3" font-family="Times,serif" font-size="14.00">No requieren más que la existencia de la persona.</text>
</g>
<!-- Personalísimos&#45;&gt;No requieren más que la existencia de la persona. -->
<g id="edge51" class="edge">
<title>Personalísimos&#45;&gt;No requieren más que la existencia de la persona.</title>
<path fill="none" stroke="black" d="M281.66,-1172.18C307.57,-1140.84 383.39,-1055.75 468.37,-1022 586.12,-975.23 732.57,-972.31 833.59,-977.89"/>
<polygon fill="black" stroke="black" points="833.65,-981.4 843.84,-978.49 834.06,-974.41 833.65,-981.4"/>
</g>
<!-- Actos de disposición de los derechos personalísimos -->
<g id="node50" class="node">
<title>Actos de disposición de los derechos personalísimos</title>
<polygon fill="none" stroke="white" points="2381.69,-1699 1992.69,-1699 1992.69,-1663 2381.69,-1663 2381.69,-1699"/>
<text text-anchor="middle" x="2187.19" y="-1677.3" font-family="Times,serif" font-size="14.00">Actos de disposición de los derechos personalísimos</text>
</g>
<!-- Personalísimos&#45;&gt;Actos de disposición de los derechos personalísimos -->
<g id="edge52" class="edge">
<title>Personalísimos&#45;&gt;Actos de disposición de los derechos personalísimos</title>
<path fill="none" stroke="black" d="M272.09,-1207.02C273.12,-1293.28 289.67,-1598.8 468.37,-1724 536.09,-1771.45 1874.36,-1731.65 1956.69,-1724 2004.43,-1719.57 2057.05,-1710.05 2099.85,-1701.09"/>
<polygon fill="black" stroke="black" points="2100.61,-1704.51 2109.66,-1699.01 2099.15,-1697.66 2100.61,-1704.51"/>
</g>
<!-- Inalienables&#45;&gt;Relativamente indisponible -->
<g id="edge50" class="edge">
<title>Inalienables&#45;&gt;Relativamente indisponible</title>
<path fill="none" stroke="blue" d="M1006.33,-611.09C1096.81,-597.76 1290.49,-586.25 1440.69,-641 1459.48,-647.85 1458.7,-659.25 1476.69,-668 1528.55,-693.22 1591.74,-709.59 1640.12,-720.75"/>
<polygon fill="blue" stroke="blue" points="1639.37,-724.17 1649.9,-722.99 1640.93,-717.35 1639.37,-724.17"/>
</g>
<!-- Correos electrónicos -->
<g id="node36" class="node">
<title>Correos electrónicos</title>
<polygon fill="none" stroke="white" points="1798.69,-1661 1634.69,-1661 1634.69,-1625 1798.69,-1625 1798.69,-1661"/>
<text text-anchor="middle" x="1716.69" y="-1639.3" font-family="Times,serif" font-size="14.00">Correos electrónicos</text>
</g>
<!-- Privacidad&#45;&gt;Correos electrónicos -->
<g id="edge30" class="edge">
<title>Privacidad&#45;&gt;Correos electrónicos</title>
<path fill="none" stroke="black" d="M1000.72,-1695.12C1086.54,-1691.42 1278.98,-1682.43 1440.69,-1670 1502.02,-1665.28 1570.91,-1658.52 1624.4,-1652.94"/>
<polygon fill="black" stroke="black" points="1624.96,-1656.4 1634.54,-1651.88 1624.23,-1649.44 1624.96,-1656.4"/>
</g>
<!-- Redes sociales -->
<g id="node37" class="node">
<title>Redes sociales</title>
<polygon fill="none" stroke="white" points="1777.19,-1715 1656.19,-1715 1656.19,-1679 1777.19,-1679 1777.19,-1715"/>
<text text-anchor="middle" x="1716.69" y="-1693.3" font-family="Times,serif" font-size="14.00">Redes sociales</text>
</g>
<!-- Privacidad&#45;&gt;Redes sociales -->
<g id="edge29" class="edge">
<title>Privacidad&#45;&gt;Redes sociales</title>
<path fill="none" stroke="black" d="M1000.8,-1697C1128.52,-1697 1492.28,-1697 1645.88,-1697"/>
<polygon fill="black" stroke="black" points="1646.13,-1700.5 1656.13,-1697 1646.13,-1693.5 1646.13,-1700.5"/>
</g>
<!-- Dignidad&#45;&gt;Personalísimos -->
<g id="edge54" class="edge">
<title>Dignidad&#45;&gt;Personalísimos</title>
<path fill="none" stroke="black" d="M913.93,-879.16C812.18,-879.02 544.31,-870.76 468.37,-913 364.55,-970.75 303.15,-1109.36 281.3,-1162.78"/>
<polygon fill="black" stroke="black" points="277.96,-1161.7 277.45,-1172.28 284.45,-1164.33 277.96,-1161.7"/>
</g>
<!-- Reparación -->
<g id="node51" class="node">
<title>Reparación</title>
<polygon fill="none" stroke="white" points="1765.19,-895 1668.19,-895 1668.19,-859 1765.19,-859 1765.19,-895"/>
<text text-anchor="middle" x="1716.69" y="-873.3" font-family="Times,serif" font-size="14.00">Reparación</text>
</g>
<!-- Dignidad&#45;&gt;Reparación -->
<g id="edge55" class="edge">
<title>Dignidad&#45;&gt;Reparación</title>
<path fill="none" stroke="black" d="M995.06,-877C1120.5,-877 1510.01,-877 1657.92,-877"/>
<polygon fill="black" stroke="black" points="1658.14,-880.5 1668.14,-877 1658.14,-873.5 1658.14,-880.5"/>
</g>
<!-- Acciones de protección -->
<g id="node19" class="node">
<title>Acciones de protección</title>
<polygon fill="none" stroke="white" points="2277.19,-198 2097.19,-198 2097.19,-162 2277.19,-162 2277.19,-198"/>
<text text-anchor="middle" x="2187.19" y="-176.3" font-family="Times,serif" font-size="14.00">Acciones de protección</text>
</g>
<!-- Valor moral&#45;&gt;Acciones de protección -->
<g id="edge11" class="edge">
<title>Valor moral&#45;&gt;Acciones de protección</title>
<path fill="none" stroke="black" d="M1766.5,-180C1841.87,-180 1988.16,-180 2086.52,-180"/>
<polygon fill="black" stroke="black" points="2086.78,-183.5 2096.78,-180 2086.78,-176.5 2086.78,-183.5"/>
</g>
<!-- ¿Aborto? -->
<g id="node28" class="node">
<title>¿Aborto?</title>
<polygon fill="none" stroke="white" points="3567.19,-1857 3487.19,-1857 3487.19,-1821 3567.19,-1821 3567.19,-1857"/>
<text text-anchor="middle" x="3527.19" y="-1835.3" font-family="Times,serif" font-size="14.00">¿Aborto?</text>
</g>
<!-- Derecho a la vida, integridad corporal y propio cuerpo&#45;&gt;¿Aborto? -->
<g id="edge23" class="edge">
<title>Derecho a la vida, integridad corporal y propio cuerpo&#45;&gt;¿Aborto?</title>
<path fill="none" stroke="black" d="M3283.43,-1776.08C3342.28,-1791.33 3425.05,-1812.79 3477.14,-1826.29"/>
<polygon fill="black" stroke="black" points="3476.57,-1829.76 3487.13,-1828.88 3478.33,-1822.98 3476.57,-1829.76"/>
</g>
<!-- ¿Anencefalía? -->
<g id="node29" class="node">
<title>¿Anencefalía?</title>
<polygon fill="none" stroke="white" points="3584.19,-1803 3470.19,-1803 3470.19,-1767 3584.19,-1767 3584.19,-1803"/>
<text text-anchor="middle" x="3527.19" y="-1781.3" font-family="Times,serif" font-size="14.00">¿Anencefalía?</text>
</g>
<!-- Derecho a la vida, integridad corporal y propio cuerpo&#45;&gt;¿Anencefalía? -->
<g id="edge24" class="edge">
<title>Derecho a la vida, integridad corporal y propio cuerpo&#45;&gt;¿Anencefalía?</title>
<path fill="none" stroke="black" d="M3414.69,-1775.37C3430.65,-1776.75 3445.92,-1778.07 3459.77,-1779.26"/>
<polygon fill="black" stroke="black" points="3459.81,-1782.78 3470.07,-1780.15 3460.41,-1775.8 3459.81,-1782.78"/>
</g>
<!-- ¿Eutanasia activa? -->
<g id="node30" class="node">
<title>¿Eutanasia activa?</title>
<polygon fill="none" stroke="white" points="3602.19,-1749 3452.19,-1749 3452.19,-1713 3602.19,-1713 3602.19,-1749"/>
<text text-anchor="middle" x="3527.19" y="-1727.3" font-family="Times,serif" font-size="14.00">¿Eutanasia activa?</text>
</g>
<!-- Derecho a la vida, integridad corporal y propio cuerpo&#45;&gt;¿Eutanasia activa? -->
<g id="edge21" class="edge">
<title>Derecho a la vida, integridad corporal y propio cuerpo&#45;&gt;¿Eutanasia activa?</title>
<path fill="none" stroke="black" d="M3414.69,-1740.63C3424.06,-1739.82 3433.19,-1739.03 3441.94,-1738.28"/>
<polygon fill="black" stroke="black" points="3442.36,-1741.76 3452.02,-1737.41 3441.76,-1734.78 3442.36,-1741.76"/>
</g>
<!-- ¿Eutanasia pasiva? -->
<g id="node31" class="node">
<title>¿Eutanasia pasiva?</title>
<polygon fill="none" stroke="white" points="3603.69,-1695 3450.69,-1695 3450.69,-1659 3603.69,-1659 3603.69,-1695"/>
<text text-anchor="middle" x="3527.19" y="-1673.3" font-family="Times,serif" font-size="14.00">¿Eutanasia pasiva?</text>
</g>
<!-- Derecho a la vida, integridad corporal y propio cuerpo&#45;&gt;¿Eutanasia pasiva? -->
<g id="edge22" class="edge">
<title>Derecho a la vida, integridad corporal y propio cuerpo&#45;&gt;¿Eutanasia pasiva?</title>
<path fill="none" stroke="black" d="M3283.43,-1739.92C3331.83,-1727.38 3396.4,-1710.64 3446.78,-1697.58"/>
<polygon fill="black" stroke="black" points="3447.85,-1700.92 3456.66,-1695.02 3446.1,-1694.14 3447.85,-1700.92"/>
</g>
<!-- Relativamente indisponible&#45;&gt;Inalienables -->
<g id="edge49" class="edge">
<title>Relativamente indisponible&#45;&gt;Inalienables</title>
<path fill="none" stroke="blue" d="M1610.54,-730.29C1567.69,-720.91 1518.5,-706.33 1476.69,-686 1458.7,-677.25 1459.48,-665.85 1440.69,-659 1295.92,-606.23 1110.75,-615.02 1016.53,-621.11"/>
<polygon fill="blue" stroke="blue" points="1016.08,-617.64 1006.33,-621.79 1016.54,-624.62 1016.08,-617.64"/>
</g>
<!-- Relativamente indisponible&#45;&gt;Actos de disposición de los derechos personalísimos -->
<g id="edge57" class="edge">
<title>Relativamente indisponible&#45;&gt;Actos de disposición de los derechos personalísimos</title>
<path fill="none" stroke="black" d="M1798.61,-759.03C1850.78,-774.69 1916.21,-802.55 1956.69,-850 2171.45,-1101.8 2186.43,-1538.58 2186.53,-1652.94"/>
<polygon fill="black" stroke="black" points="2183.03,-1652.98 2186.49,-1662.99 2190.03,-1653 2183.03,-1652.98"/>
</g>
<!-- si no es contrario a la ley, la moral o las buenas costumbres -->
<g id="node52" class="node">
<title>si no es contrario a la ley, la moral o las buenas costumbres</title>
<polygon fill="none" stroke="white" points="2917.19,-1699 2475.19,-1699 2475.19,-1663 2917.19,-1663 2917.19,-1699"/>
<text text-anchor="middle" x="2696.19" y="-1677.3" font-family="Times,serif" font-size="14.00">si no es contrario a la ley, la moral o las buenas costumbres</text>
</g>
<!-- Actos de disposición de los derechos personalísimos&#45;&gt;si no es contrario a la ley, la moral o las buenas costumbres -->
<g id="edge56" class="edge">
<title>Actos de disposición de los derechos personalísimos&#45;&gt;si no es contrario a la ley, la moral o las buenas costumbres</title>
<path fill="none" stroke="black" d="M2382.03,-1681C2409.04,-1681 2437.02,-1681 2464.62,-1681"/>
<polygon fill="black" stroke="black" points="2464.77,-1684.5 2474.77,-1681 2464.77,-1677.5 2464.77,-1684.5"/>
</g>
<!-- Constentimiento -->
<g id="node53" class="node">
<title>Constentimiento</title>
<polygon fill="none" stroke="white" points="2763.69,-1645 2628.69,-1645 2628.69,-1609 2763.69,-1609 2763.69,-1645"/>
<text text-anchor="middle" x="2696.19" y="-1623.3" font-family="Times,serif" font-size="14.00">Constentimiento</text>
</g>
<!-- Actos de disposición de los derechos personalísimos&#45;&gt;Constentimiento -->
<g id="edge60" class="edge">
<title>Actos de disposición de los derechos personalísimos&#45;&gt;Constentimiento</title>
<path fill="none" stroke="black" d="M2337.51,-1662.99C2364.2,-1659.9 2391.76,-1656.79 2417.69,-1654 2485.42,-1646.72 2562.55,-1639.29 2618.27,-1634.06"/>
<polygon fill="black" stroke="black" points="2618.79,-1637.53 2628.42,-1633.12 2618.14,-1630.56 2618.79,-1637.53"/>
</g>
<!-- prohibidos cuando ocasionen una disminución permanente de su integridad -->
<g id="node54" class="node">
<title>prohibidos cuando ocasionen una disminución permanente de su integridad</title>
<polygon fill="none" stroke="white" points="2974.69,-1753 2417.69,-1753 2417.69,-1717 2974.69,-1717 2974.69,-1753"/>
<text text-anchor="middle" x="2696.19" y="-1731.3" font-family="Times,serif" font-size="14.00">prohibidos cuando ocasionen una disminución permanente de su integridad</text>
</g>
<!-- Actos de disposición de los derechos personalísimos&#45;&gt;prohibidos cuando ocasionen una disminución permanente de su integridad -->
<g id="edge58" class="edge">
<title>Actos de disposición de los derechos personalísimos&#45;&gt;prohibidos cuando ocasionen una disminución permanente de su integridad</title>
<path fill="none" stroke="black" d="M2337.51,-1699.01C2364.2,-1702.1 2391.76,-1705.21 2417.69,-1708 2442.54,-1710.67 2468.66,-1713.36 2494.52,-1715.96"/>
<polygon fill="black" stroke="black" points="2494.51,-1719.47 2504.81,-1716.99 2495.2,-1712.51 2494.51,-1719.47"/>
</g>
<!-- prohibidos cuando ocasionen una disminución permanente de su integridad&#45;&gt;Derecho a la vida, integridad corporal y propio cuerpo -->
<g id="edge59" class="edge">
<title>prohibidos cuando ocasionen una disminución permanente de su integridad&#45;&gt;Derecho a la vida, integridad corporal y propio cuerpo</title>
<path fill="none" stroke="black" d="M2974.77,-1747.41C2983.29,-1747.79 2991.78,-1748.17 3000.2,-1748.55"/>
<polygon fill="black" stroke="black" points="3000.29,-1752.05 3010.44,-1749 3000.6,-1745.06 3000.29,-1752.05"/>
</g>
<!-- Persona -->
<g id="node55" class="node">
<title>Persona</title>
<polygon fill="none" stroke="white" points="74,-827 0,-827 0,-791 74,-791 74,-827"/>
<text text-anchor="middle" x="37" y="-805.3" font-family="Times,serif" font-size="14.00">Persona</text>
</g>
<!-- Persona&#45;&gt;Atributos -->
<g id="edge63" class="edge">
<title>Persona&#45;&gt;Atributos</title>
<path fill="none" stroke="black" d="M50.16,-790.78C88.38,-733.5 206.27,-556.8 251.89,-488.42"/>
<polygon fill="black" stroke="black" points="254.95,-490.14 257.59,-479.88 249.12,-486.26 254.95,-490.14"/>
</g>
<!-- Persona&#45;&gt;Personalísimos -->
<g id="edge62" class="edge">
<title>Persona&#45;&gt;Personalísimos</title>
<path fill="none" stroke="black" d="M49.2,-827.09C88.05,-889.84 216.89,-1097.92 257.68,-1163.81"/>
<polygon fill="black" stroke="black" points="254.8,-1165.8 263.04,-1172.46 260.75,-1162.12 254.8,-1165.8"/>
</g>
</g>
</svg>
