<?xml version="1.0" encoding="UTF-8" standalone="no"?>
<!DOCTYPE svg PUBLIC "-//W3C//DTD SVG 1.1//EN"
 "http://www.w3.org/Graphics/SVG/1.1/DTD/svg11.dtd">
<!-- Generated by graphviz version 2.43.0 (0)
 -->
<!-- Title: %3 Pages: 1 -->
<svg width="796pt" height="530pt"
 viewBox="0.00 0.00 796.00 530.00" xmlns="http://www.w3.org/2000/svg" xmlns:xlink="http://www.w3.org/1999/xlink">
<g id="graph0" class="graph" transform="scale(1 1) rotate(0) translate(4 526)">
<title>%3</title>
<polygon fill="white" stroke="transparent" points="-4,4 -4,-526 792,-526 792,4 -4,4"/>
<!-- themis -->
<g id="node1" class="node">
<title>themis</title>
<polygon fill="none" stroke="red" points="182.5,-360 117.5,-360 117.5,-324 182.5,-324 182.5,-360"/>
<text text-anchor="middle" x="150" y="-338.3" font-family="Times,serif" font-size="14.00">themis</text>
</g>
<!-- consejos -->
<g id="node5" class="node">
<title>consejos</title>
<polygon fill="none" stroke="white" points="390,-414 313,-414 313,-378 390,-378 390,-414"/>
<text text-anchor="middle" x="351.5" y="-392.3" font-family="Times,serif" font-size="14.00">consejos</text>
</g>
<!-- themis&#45;&gt;consejos -->
<g id="edge4" class="edge">
<title>themis&#45;&gt;consejos</title>
<path fill="none" stroke="black" d="M182.71,-353.37C197.57,-358.49 215.58,-364.41 232,-369 255.15,-375.48 281.18,-381.54 302.92,-386.27"/>
<polygon fill="black" stroke="black" points="302.39,-389.74 312.91,-388.42 303.86,-382.89 302.39,-389.74"/>
</g>
<!-- Divinidad -->
<g id="node19" class="node">
<title>Divinidad</title>
<polygon fill="none" stroke="white" points="394,-360 309,-360 309,-324 394,-324 394,-360"/>
<text text-anchor="middle" x="351.5" y="-338.3" font-family="Times,serif" font-size="14.00">Divinidad</text>
</g>
<!-- themis&#45;&gt;Divinidad -->
<g id="edge20" class="edge">
<title>themis&#45;&gt;Divinidad</title>
<path fill="none" stroke="black" d="M182.61,-342C213.84,-342 262.15,-342 298.94,-342"/>
<polygon fill="black" stroke="black" points="298.99,-345.5 308.99,-342 298.99,-338.5 298.99,-345.5"/>
</g>
<!-- dike -->
<g id="node2" class="node">
<title>dike</title>
<polygon fill="none" stroke="red" points="177,-279 123,-279 123,-243 177,-243 177,-279"/>
<text text-anchor="middle" x="150" y="-257.3" font-family="Times,serif" font-size="14.00">dike</text>
</g>
<!-- legalidad -->
<g id="node6" class="node">
<title>legalidad</title>
<polygon fill="none" stroke="white" points="392.5,-306 310.5,-306 310.5,-270 392.5,-270 392.5,-306"/>
<text text-anchor="middle" x="351.5" y="-284.3" font-family="Times,serif" font-size="14.00">legalidad</text>
</g>
<!-- dike&#45;&gt;legalidad -->
<g id="edge5" class="edge">
<title>dike&#45;&gt;legalidad</title>
<path fill="none" stroke="black" d="M177.08,-264.53C208.2,-268.74 260.94,-275.88 300.11,-281.18"/>
<polygon fill="black" stroke="black" points="299.88,-284.68 310.26,-282.55 300.82,-277.74 299.88,-284.68"/>
</g>
<!-- enfrentarse al derecho positivo -->
<g id="node12" class="node">
<title>enfrentarse al derecho positivo</title>
<polygon fill="none" stroke="white" points="471,-198 232,-198 232,-162 471,-162 471,-198"/>
<text text-anchor="middle" x="351.5" y="-176.3" font-family="Times,serif" font-size="14.00">enfrentarse al derecho positivo</text>
</g>
<!-- dike&#45;&gt;enfrentarse al derecho positivo -->
<g id="edge11" class="edge">
<title>dike&#45;&gt;enfrentarse al derecho positivo</title>
<path fill="none" stroke="blue" d="M173.45,-242.77C189.03,-230.97 210.73,-216.14 232,-207 236.78,-204.94 241.75,-203.03 246.81,-201.26"/>
<polygon fill="blue" stroke="blue" points="248.25,-204.47 256.65,-198.01 246.06,-197.82 248.25,-204.47"/>
</g>
<!-- Solón -->
<g id="node16" class="node">
<title>Solón</title>
<polygon fill="none" stroke="white" points="379.5,-252 323.5,-252 323.5,-216 379.5,-216 379.5,-252"/>
<text text-anchor="middle" x="351.5" y="-230.3" font-family="Times,serif" font-size="14.00">Solón</text>
</g>
<!-- dike&#45;&gt;Solón -->
<g id="edge17" class="edge">
<title>dike&#45;&gt;Solón</title>
<path fill="none" stroke="black" d="M177.08,-257.47C211.89,-252.76 273.73,-244.39 313.39,-239.02"/>
<polygon fill="black" stroke="black" points="314.01,-242.47 323.46,-237.66 313.08,-235.53 314.01,-242.47"/>
</g>
<!-- dike&#45;&gt;Divinidad -->
<g id="edge21" class="edge">
<title>dike&#45;&gt;Divinidad</title>
<path fill="none" stroke="black" d="M173.45,-279.23C189.03,-291.03 210.73,-305.86 232,-315 253.09,-324.06 277.65,-330.3 298.92,-334.48"/>
<polygon fill="black" stroke="black" points="298.29,-337.92 308.76,-336.31 299.57,-331.04 298.29,-337.92"/>
</g>
<!-- dikaiosyne -->
<g id="node3" class="node">
<title>dikaiosyne</title>
<polygon fill="none" stroke="red" points="196,-468 104,-468 104,-432 196,-432 196,-468"/>
<text text-anchor="middle" x="150" y="-446.3" font-family="Times,serif" font-size="14.00">dikaiosyne</text>
</g>
<!-- recíprocamente proporcionado -->
<g id="node7" class="node">
<title>recíprocamente proporcionado</title>
<polygon fill="none" stroke="white" points="469.5,-522 233.5,-522 233.5,-486 469.5,-486 469.5,-522"/>
<text text-anchor="middle" x="351.5" y="-500.3" font-family="Times,serif" font-size="14.00">recíprocamente proporcionado</text>
</g>
<!-- dikaiosyne&#45;&gt;recíprocamente proporcionado -->
<g id="edge6" class="edge">
<title>dikaiosyne&#45;&gt;recíprocamente proporcionado</title>
<path fill="none" stroke="black" d="M196.17,-465.92C207.78,-469.78 220.29,-473.72 232,-477 240.03,-479.25 248.41,-481.45 256.83,-483.55"/>
<polygon fill="black" stroke="black" points="256.18,-487 266.73,-485.99 257.85,-480.2 256.18,-487"/>
</g>
<!-- Platón -->
<g id="node18" class="node">
<title>Platón</title>
<polygon fill="none" stroke="yellow" points="382.5,-468 320.5,-468 320.5,-432 382.5,-432 382.5,-468"/>
<text text-anchor="middle" x="351.5" y="-446.3" font-family="Times,serif" font-size="14.00">Platón</text>
</g>
<!-- dikaiosyne&#45;&gt;Platón -->
<g id="edge19" class="edge">
<title>dikaiosyne&#45;&gt;Platón</title>
<path fill="none" stroke="black" d="M196.27,-450C230.5,-450 277.08,-450 310.07,-450"/>
<polygon fill="black" stroke="black" points="310.27,-453.5 320.27,-450 310.27,-446.5 310.27,-453.5"/>
</g>
<!-- justicia -->
<g id="node4" class="node">
<title>justicia</title>
<polygon fill="none" stroke="white" points="68,-279 0,-279 0,-243 68,-243 68,-279"/>
<text text-anchor="middle" x="34" y="-257.3" font-family="Times,serif" font-size="14.00">justicia</text>
</g>
<!-- justicia&#45;&gt;themis -->
<g id="edge3" class="edge">
<title>justicia&#45;&gt;themis</title>
<path fill="none" stroke="black" d="M60.58,-279.18C76.72,-290.64 97.74,-305.58 115.23,-318.01"/>
<polygon fill="black" stroke="black" points="113.32,-320.94 123.5,-323.88 117.38,-315.24 113.32,-320.94"/>
</g>
<!-- justicia&#45;&gt;dike -->
<g id="edge1" class="edge">
<title>justicia&#45;&gt;dike</title>
<path fill="none" stroke="black" d="M68.28,-261C82.11,-261 98.2,-261 112.36,-261"/>
<polygon fill="black" stroke="black" points="112.74,-264.5 122.74,-261 112.74,-257.5 112.74,-264.5"/>
</g>
<!-- justicia&#45;&gt;dikaiosyne -->
<g id="edge2" class="edge">
<title>justicia&#45;&gt;dikaiosyne</title>
<path fill="none" stroke="black" d="M45.93,-279.12C66.1,-312.57 109.27,-384.13 132.83,-423.2"/>
<polygon fill="black" stroke="black" points="129.94,-425.18 138.1,-431.93 135.93,-421.56 129.94,-425.18"/>
</g>
<!-- hesíodo -->
<g id="node8" class="node">
<title>hesíodo</title>
<polygon fill="none" stroke="white" points="185.5,-144 114.5,-144 114.5,-108 185.5,-108 185.5,-144"/>
<text text-anchor="middle" x="150" y="-122.3" font-family="Times,serif" font-size="14.00">hesíodo</text>
</g>
<!-- justicia&#45;&gt;hesíodo -->
<g id="edge7" class="edge">
<title>justicia&#45;&gt;hesíodo</title>
<path fill="none" stroke="black" d="M50.37,-242.79C70.09,-219.44 104.42,-178.79 126.93,-152.14"/>
<polygon fill="black" stroke="black" points="129.73,-154.25 133.5,-144.35 124.38,-149.73 129.73,-154.25"/>
</g>
<!-- social y político -->
<g id="node14" class="node">
<title>social y político</title>
<polygon fill="none" stroke="white" points="415,-36 288,-36 288,0 415,0 415,-36"/>
<text text-anchor="middle" x="351.5" y="-14.3" font-family="Times,serif" font-size="14.00">social y político</text>
</g>
<!-- justicia&#45;&gt;social y político -->
<g id="edge15" class="edge">
<title>justicia&#45;&gt;social y político</title>
<path fill="none" stroke="blue" d="M34.35,-242.81C33.9,-199.21 39.48,-88.58 104,-37 152.19,1.53 223.97,2.78 277.66,-3.53"/>
<polygon fill="blue" stroke="blue" points="277.44,-7.03 287.81,-4.84 278.34,-0.09 277.44,-7.03"/>
</g>
<!-- trabaja -->
<g id="node9" class="node">
<title>trabaja</title>
<polygon fill="none" stroke="white" points="385.5,-90 317.5,-90 317.5,-54 385.5,-54 385.5,-90"/>
<text text-anchor="middle" x="351.5" y="-68.3" font-family="Times,serif" font-size="14.00">trabaja</text>
</g>
<!-- hesíodo&#45;&gt;trabaja -->
<g id="edge8" class="edge">
<title>hesíodo&#45;&gt;trabaja</title>
<path fill="none" stroke="yellow" d="M185.85,-113.55C200.07,-108.69 216.73,-103.27 232,-99 256.76,-92.07 284.79,-85.62 307.37,-80.77"/>
<polygon fill="yellow" stroke="yellow" points="308.28,-84.15 317.34,-78.65 306.83,-77.3 308.28,-84.15"/>
</g>
<!-- sé justo -->
<g id="node10" class="node">
<title>sé justo</title>
<polygon fill="none" stroke="white" points="387.5,-144 315.5,-144 315.5,-108 387.5,-108 387.5,-144"/>
<text text-anchor="middle" x="351.5" y="-122.3" font-family="Times,serif" font-size="14.00">sé justo</text>
</g>
<!-- hesíodo&#45;&gt;sé justo -->
<g id="edge9" class="edge">
<title>hesíodo&#45;&gt;sé justo</title>
<path fill="none" stroke="yellow" d="M185.75,-126C218.87,-126 268.94,-126 305.18,-126"/>
<polygon fill="yellow" stroke="yellow" points="305.48,-129.5 315.48,-126 305.48,-122.5 305.48,-129.5"/>
</g>
<!-- hesíodo&#45;&gt;enfrentarse al derecho positivo -->
<g id="edge12" class="edge">
<title>hesíodo&#45;&gt;enfrentarse al derecho positivo</title>
<path fill="none" stroke="blue" d="M185.85,-138.45C200.07,-143.31 216.73,-148.73 232,-153 240.03,-155.25 248.41,-157.45 256.83,-159.55"/>
<polygon fill="blue" stroke="blue" points="256.18,-163 266.73,-161.99 257.85,-156.2 256.18,-163"/>
</g>
<!-- hesíodo&#45;&gt;social y político -->
<g id="edge14" class="edge">
<title>hesíodo&#45;&gt;social y político</title>
<path fill="none" stroke="blue" d="M176.67,-107.78C183.24,-102.66 190.11,-96.87 196,-91 214.38,-72.67 210.08,-58.91 232,-45 245.72,-36.29 261.91,-30.38 277.84,-26.37"/>
<polygon fill="blue" stroke="blue" points="278.74,-29.76 287.71,-24.11 277.18,-22.93 278.74,-29.76"/>
</g>
<!-- no se agota en la obediencia de leyes -->
<g id="node11" class="node">
<title>no se agota en la obediencia de leyes</title>
<polygon fill="none" stroke="white" points="788,-144 507,-144 507,-108 788,-108 788,-144"/>
<text text-anchor="middle" x="647.5" y="-122.3" font-family="Times,serif" font-size="14.00">no se agota en la obediencia de leyes</text>
</g>
<!-- sé justo&#45;&gt;no se agota en la obediencia de leyes -->
<g id="edge10" class="edge">
<title>sé justo&#45;&gt;no se agota en la obediencia de leyes</title>
<path fill="none" stroke="black" d="M387.67,-126C415.34,-126 455.93,-126 496.79,-126"/>
<polygon fill="black" stroke="black" points="496.9,-129.5 506.9,-126 496.9,-122.5 496.9,-129.5"/>
</g>
<!-- justicia cósmica -->
<g id="node13" class="node">
<title>justicia cósmica</title>
<polygon fill="none" stroke="white" points="712.5,-198 582.5,-198 582.5,-162 712.5,-162 712.5,-198"/>
<text text-anchor="middle" x="647.5" y="-176.3" font-family="Times,serif" font-size="14.00">justicia cósmica</text>
</g>
<!-- enfrentarse al derecho positivo&#45;&gt;justicia cósmica -->
<g id="edge13" class="edge">
<title>enfrentarse al derecho positivo&#45;&gt;justicia cósmica</title>
<path fill="none" stroke="black" d="M471.23,-180C505.31,-180 541.49,-180 572.08,-180"/>
<polygon fill="black" stroke="black" points="572.23,-183.5 582.23,-180 572.23,-176.5 572.23,-183.5"/>
</g>
<!-- polís -->
<g id="node15" class="node">
<title>polís</title>
<polygon fill="none" stroke="white" points="177,-82 123,-82 123,-46 177,-46 177,-82"/>
<text text-anchor="middle" x="150" y="-60.3" font-family="Times,serif" font-size="14.00">polís</text>
</g>
<!-- polís&#45;&gt;social y político -->
<g id="edge16" class="edge">
<title>polís&#45;&gt;social y político</title>
<path fill="none" stroke="black" d="M177.26,-57.8C193.1,-54.06 213.71,-49.23 232,-45 246.84,-41.57 262.73,-37.93 277.91,-34.46"/>
<polygon fill="black" stroke="black" points="278.78,-37.85 287.75,-32.22 277.23,-31.03 278.78,-37.85"/>
</g>
<!-- responsabilidad en los hombres -->
<g id="node17" class="node">
<title>responsabilidad en los hombres</title>
<polygon fill="none" stroke="white" points="769,-252 526,-252 526,-216 769,-216 769,-252"/>
<text text-anchor="middle" x="647.5" y="-230.3" font-family="Times,serif" font-size="14.00">responsabilidad en los hombres</text>
</g>
<!-- Solón&#45;&gt;responsabilidad en los hombres -->
<g id="edge18" class="edge">
<title>Solón&#45;&gt;responsabilidad en los hombres</title>
<path fill="none" stroke="black" d="M379.63,-234C410.88,-234 464.5,-234 515.51,-234"/>
<polygon fill="black" stroke="black" points="515.67,-237.5 525.67,-234 515.67,-230.5 515.67,-237.5"/>
</g>
</g>
</svg>
