<?xml version="1.0" encoding="UTF-8" standalone="no"?>
<!DOCTYPE svg PUBLIC "-//W3C//DTD SVG 1.1//EN"
 "http://www.w3.org/Graphics/SVG/1.1/DTD/svg11.dtd">
<!-- Generated by graphviz version 2.43.0 (0)
 -->
<!-- Title: %3 Pages: 1 -->
<svg width="1733pt" height="789pt"
 viewBox="0.00 0.00 1733.00 788.58" xmlns="http://www.w3.org/2000/svg" xmlns:xlink="http://www.w3.org/1999/xlink">
<g id="graph0" class="graph" transform="scale(1 1) rotate(0) translate(4 784.58)">
<title>%3</title>
<polygon fill="white" stroke="transparent" points="-4,4 -4,-784.58 1729,-784.58 1729,4 -4,4"/>
<!-- Aristóteles -->
<g id="node1" class="node">
<title>Aristóteles</title>
<polygon fill="none" stroke="yellow" points="132.5,-144 38.5,-144 38.5,-108 132.5,-108 132.5,-144"/>
<text text-anchor="middle" x="85.5" y="-122.3" font-family="Times,serif" font-size="14.00">Aristóteles</text>
</g>
<!-- Ciencias -->
<g id="node3" class="node">
<title>Ciencias</title>
<polygon fill="none" stroke="white" points="372.5,-225 295.5,-225 295.5,-189 372.5,-189 372.5,-225"/>
<text text-anchor="middle" x="334" y="-203.3" font-family="Times,serif" font-size="14.00">Ciencias</text>
</g>
<!-- Aristóteles&#45;&gt;Ciencias -->
<g id="edge1" class="edge">
<title>Aristóteles&#45;&gt;Ciencias</title>
<path fill="none" stroke="black" d="M132.58,-141.14C176.23,-155.49 241.51,-176.94 285.6,-191.42"/>
<polygon fill="black" stroke="black" points="284.63,-194.79 295.22,-194.59 286.81,-188.14 284.63,-194.79"/>
</g>
<!-- Polis=Mayor grado de asociación -->
<g id="node7" class="node">
<title>Polis=Mayor grado de asociación</title>
<polygon fill="none" stroke="white" points="461,-144 207,-144 207,-108 461,-108 461,-144"/>
<text text-anchor="middle" x="334" y="-122.3" font-family="Times,serif" font-size="14.00">Polis=Mayor grado de asociación</text>
</g>
<!-- Aristóteles&#45;&gt;Polis=Mayor grado de asociación -->
<g id="edge5" class="edge">
<title>Aristóteles&#45;&gt;Polis=Mayor grado de asociación</title>
<path fill="none" stroke="black" d="M132.58,-126C151.09,-126 173.48,-126 196.51,-126"/>
<polygon fill="black" stroke="black" points="196.76,-129.5 206.76,-126 196.76,-122.5 196.76,-129.5"/>
</g>
<!-- Humano -->
<g id="node29" class="node">
<title>Humano</title>
<polygon fill="none" stroke="white" points="372.5,-90 295.5,-90 295.5,-54 372.5,-54 372.5,-90"/>
<text text-anchor="middle" x="334" y="-68.3" font-family="Times,serif" font-size="14.00">Humano</text>
</g>
<!-- Aristóteles&#45;&gt;Humano -->
<g id="edge27" class="edge">
<title>Aristóteles&#45;&gt;Humano</title>
<path fill="none" stroke="black" d="M132.54,-115.58C154.99,-110.52 182.39,-104.39 207,-99 232.89,-93.33 261.8,-87.12 285.39,-82.09"/>
<polygon fill="black" stroke="black" points="286.44,-85.45 295.49,-79.94 284.98,-78.6 286.44,-85.45"/>
</g>
<!-- Fin es la felicidad (eudaimonía) -->
<g id="node2" class="node">
<title>Fin es la felicidad (eudaimonía)</title>
<polygon fill="none" stroke="white" points="1069,-36 829,-36 829,0 1069,0 1069,-36"/>
<text text-anchor="middle" x="949" y="-14.3" font-family="Times,serif" font-size="14.00">Fin es la felicidad (eudaimonía)</text>
</g>
<!-- Teóricas -->
<g id="node4" class="node">
<title>Teóricas</title>
<polygon fill="none" stroke="white" points="683,-306 607,-306 607,-270 683,-270 683,-306"/>
<text text-anchor="middle" x="645" y="-284.3" font-family="Times,serif" font-size="14.00">Teóricas</text>
</g>
<!-- Ciencias&#45;&gt;Teóricas -->
<g id="edge2" class="edge">
<title>Ciencias&#45;&gt;Teóricas</title>
<path fill="none" stroke="black" d="M372.72,-210.77C398.48,-214.36 432.9,-221.21 461,-234 479.2,-242.29 478.68,-252.98 497,-261 528.68,-274.87 567.22,-281.61 596.89,-284.9"/>
<polygon fill="black" stroke="black" points="596.69,-288.39 606.99,-285.92 597.39,-281.43 596.69,-288.39"/>
</g>
<!-- Prácticas -->
<g id="node5" class="node">
<title>Prácticas</title>
<polygon fill="none" stroke="white" points="686.5,-252 603.5,-252 603.5,-216 686.5,-216 686.5,-252"/>
<text text-anchor="middle" x="645" y="-230.3" font-family="Times,serif" font-size="14.00">Prácticas</text>
</g>
<!-- Ciencias&#45;&gt;Prácticas -->
<g id="edge3" class="edge">
<title>Ciencias&#45;&gt;Prácticas</title>
<path fill="none" stroke="black" d="M372.58,-210.28C427.77,-215.11 530.9,-224.12 592.92,-229.54"/>
<polygon fill="black" stroke="black" points="592.99,-233.06 603.25,-230.44 593.6,-226.08 592.99,-233.06"/>
</g>
<!-- Poéticas -->
<g id="node6" class="node">
<title>Poéticas</title>
<polygon fill="none" stroke="white" points="683,-198 607,-198 607,-162 683,-162 683,-198"/>
<text text-anchor="middle" x="645" y="-176.3" font-family="Times,serif" font-size="14.00">Poéticas</text>
</g>
<!-- Ciencias&#45;&gt;Poéticas -->
<g id="edge4" class="edge">
<title>Ciencias&#45;&gt;Poéticas</title>
<path fill="none" stroke="black" d="M372.58,-203.72C428.84,-198.8 534.9,-189.53 596.46,-184.15"/>
<polygon fill="black" stroke="black" points="597.02,-187.62 606.68,-183.26 596.41,-180.64 597.02,-187.62"/>
</g>
<!-- Zoon Politicón (animal social o político) -->
<g id="node8" class="node">
<title>Zoon Politicón (animal social o político)</title>
<polygon fill="none" stroke="white" points="793,-144 497,-144 497,-108 793,-108 793,-144"/>
<text text-anchor="middle" x="645" y="-122.3" font-family="Times,serif" font-size="14.00">Zoon Politicón (animal social o político)</text>
</g>
<!-- Polis=Mayor grado de asociación&#45;&gt;Zoon Politicón (animal social o político) -->
<g id="edge6" class="edge">
<title>Polis=Mayor grado de asociación&#45;&gt;Zoon Politicón (animal social o político)</title>
<path fill="none" stroke="black" d="M461.13,-126C469.58,-126 478.16,-126 486.74,-126"/>
<polygon fill="black" stroke="black" points="486.82,-129.5 496.82,-126 486.82,-122.5 486.82,-129.5"/>
</g>
<!-- No tiene autarquía -->
<g id="node27" class="node">
<title>No tiene autarquía</title>
<polygon fill="none" stroke="white" points="1024.5,-144 873.5,-144 873.5,-108 1024.5,-108 1024.5,-144"/>
<text text-anchor="middle" x="949" y="-122.3" font-family="Times,serif" font-size="14.00">No tiene autarquía</text>
</g>
<!-- Zoon Politicón (animal social o político)&#45;&gt;No tiene autarquía -->
<g id="edge25" class="edge">
<title>Zoon Politicón (animal social o político)&#45;&gt;No tiene autarquía</title>
<path fill="none" stroke="black" d="M793.02,-126C817.11,-126 841.33,-126 863.23,-126"/>
<polygon fill="black" stroke="black" points="863.45,-129.5 873.45,-126 863.45,-122.5 863.45,-129.5"/>
</g>
<!-- Polis -->
<g id="node9" class="node">
<title>Polis</title>
<polygon fill="none" stroke="white" points="976,-571 922,-571 922,-535 976,-535 976,-571"/>
<text text-anchor="middle" x="949" y="-549.3" font-family="Times,serif" font-size="14.00">Polis</text>
</g>
<!-- Autarquía (autosuficiencia) -->
<g id="node10" class="node">
<title>Autarquía (autosuficiencia)</title>
<polygon fill="none" stroke="white" points="1314,-747 1105,-747 1105,-711 1314,-711 1314,-747"/>
<text text-anchor="middle" x="1209.5" y="-725.3" font-family="Times,serif" font-size="14.00">Autarquía (autosuficiencia)</text>
</g>
<!-- Polis&#45;&gt;Autarquía (autosuficiencia) -->
<g id="edge7" class="edge">
<title>Polis&#45;&gt;Autarquía (autosuficiencia)</title>
<path fill="none" stroke="black" d="M976.23,-551.75C1002.97,-551.94 1043.97,-556.52 1069,-580 1110.23,-618.68 1064.4,-662.66 1105,-702 1105.98,-702.94 1106.98,-703.86 1108.01,-704.74"/>
<polygon fill="black" stroke="black" points="1106.26,-707.8 1116.38,-710.91 1110.41,-702.16 1106.26,-707.8"/>
</g>
<!-- Eleutheria (libertad) -->
<g id="node11" class="node">
<title>Eleutheria (libertad)</title>
<polygon fill="none" stroke="white" points="1291,-639 1128,-639 1128,-603 1291,-603 1291,-639"/>
<text text-anchor="middle" x="1209.5" y="-617.3" font-family="Times,serif" font-size="14.00">Eleutheria (libertad)</text>
</g>
<!-- Polis&#45;&gt;Eleutheria (libertad) -->
<g id="edge8" class="edge">
<title>Polis&#45;&gt;Eleutheria (libertad)</title>
<path fill="none" stroke="black" d="M976.11,-558.43C1000.3,-563.58 1037.22,-571.73 1069,-580 1092.3,-586.06 1117.61,-593.3 1140.19,-599.99"/>
<polygon fill="black" stroke="black" points="1139.43,-603.42 1150.02,-602.92 1141.43,-596.71 1139.43,-603.42"/>
</g>
<!-- Autonomía (leyes propias) -->
<g id="node12" class="node">
<title>Autonomía (leyes propias)</title>
<polygon fill="none" stroke="white" points="1311,-693 1108,-693 1108,-657 1311,-657 1311,-693"/>
<text text-anchor="middle" x="1209.5" y="-671.3" font-family="Times,serif" font-size="14.00">Autonomía (leyes propias)</text>
</g>
<!-- Polis&#45;&gt;Autonomía (leyes propias) -->
<g id="edge9" class="edge">
<title>Polis&#45;&gt;Autonomía (leyes propias)</title>
<path fill="none" stroke="black" d="M976.3,-552.85C1002.33,-554 1042.09,-559.39 1069,-580 1096.15,-600.79 1078.19,-626.78 1105,-648 1106.61,-649.27 1108.28,-650.49 1109.99,-651.65"/>
<polygon fill="black" stroke="black" points="1108.52,-654.85 1118.89,-656.98 1112.11,-648.84 1108.52,-654.85"/>
</g>
<!-- Componentes -->
<g id="node23" class="node">
<title>Componentes</title>
<polygon fill="none" stroke="white" points="1266.5,-531 1152.5,-531 1152.5,-495 1266.5,-495 1266.5,-531"/>
<text text-anchor="middle" x="1209.5" y="-509.3" font-family="Times,serif" font-size="14.00">Componentes</text>
</g>
<!-- Polis&#45;&gt;Componentes -->
<g id="edge18" class="edge">
<title>Polis&#45;&gt;Componentes</title>
<path fill="none" stroke="black" d="M976.21,-548.94C1014.8,-542.97 1088.15,-531.62 1142.15,-523.27"/>
<polygon fill="black" stroke="black" points="1142.98,-526.68 1152.33,-521.69 1141.91,-519.76 1142.98,-526.68"/>
</g>
<!-- =comunidad -->
<g id="node25" class="node">
<title>=comunidad</title>
<polygon fill="none" stroke="white" points="1263,-369 1156,-369 1156,-333 1263,-333 1263,-369"/>
<text text-anchor="middle" x="1209.5" y="-347.3" font-family="Times,serif" font-size="14.00">=comunidad</text>
</g>
<!-- Polis&#45;&gt;=comunidad -->
<g id="edge23" class="edge">
<title>Polis&#45;&gt;=comunidad</title>
<path fill="none" stroke="black" d="M976.02,-552.02C1001.47,-549.98 1040.47,-543.91 1069,-526 1076.92,-521.03 1151.76,-424.64 1188.44,-377.08"/>
<polygon fill="black" stroke="black" points="1191.28,-379.13 1194.61,-369.08 1185.73,-374.86 1191.28,-379.13"/>
</g>
<!-- Vivir bien -->
<g id="node32" class="node">
<title>Vivir bien</title>
<polygon fill="none" stroke="white" points="1507.5,-747 1421.5,-747 1421.5,-711 1507.5,-711 1507.5,-747"/>
<text text-anchor="middle" x="1464.5" y="-725.3" font-family="Times,serif" font-size="14.00">Vivir bien</text>
</g>
<!-- Autarquía (autosuficiencia)&#45;&gt;Vivir bien -->
<g id="edge31" class="edge">
<title>Autarquía (autosuficiencia)&#45;&gt;Vivir bien</title>
<path fill="none" stroke="black" d="M1314.13,-729C1347.41,-729 1382.87,-729 1410.89,-729"/>
<polygon fill="black" stroke="black" points="1411.24,-732.5 1421.24,-729 1411.24,-725.5 1411.24,-732.5"/>
</g>
<!-- ser igual a los demás -->
<g id="node33" class="node">
<title>ser igual a los demás</title>
<polygon fill="none" stroke="white" points="1548,-639 1381,-639 1381,-603 1548,-603 1548,-639"/>
<text text-anchor="middle" x="1464.5" y="-617.3" font-family="Times,serif" font-size="14.00">ser igual a los demás</text>
</g>
<!-- Eleutheria (libertad)&#45;&gt;ser igual a los demás -->
<g id="edge32" class="edge">
<title>Eleutheria (libertad)&#45;&gt;ser igual a los demás</title>
<path fill="none" stroke="black" d="M1291.25,-621C1316.52,-621 1344.62,-621 1370.66,-621"/>
<polygon fill="black" stroke="black" points="1370.91,-624.5 1380.91,-621 1370.91,-617.5 1370.91,-624.5"/>
</g>
<!-- tomar la palabra en asamblea -->
<g id="node34" class="node">
<title>tomar la palabra en asamblea</title>
<polygon fill="none" stroke="white" points="1579,-693 1350,-693 1350,-657 1579,-657 1579,-693"/>
<text text-anchor="middle" x="1464.5" y="-671.3" font-family="Times,serif" font-size="14.00">tomar la palabra en asamblea</text>
</g>
<!-- Eleutheria (libertad)&#45;&gt;tomar la palabra en asamblea -->
<g id="edge33" class="edge">
<title>Eleutheria (libertad)&#45;&gt;tomar la palabra en asamblea</title>
<path fill="none" stroke="black" d="M1291.25,-638.23C1316.01,-643.52 1343.49,-649.38 1369.08,-654.85"/>
<polygon fill="black" stroke="black" points="1368.65,-658.33 1379.16,-657 1370.11,-651.49 1368.65,-658.33"/>
</g>
<!-- Gens (familia grande) -->
<g id="node13" class="node">
<title>Gens (familia grande)</title>
<polygon fill="none" stroke="white" points="171,-464 0,-464 0,-428 171,-428 171,-464"/>
<text text-anchor="middle" x="85.5" y="-442.3" font-family="Times,serif" font-size="14.00">Gens (familia grande)</text>
</g>
<!-- Gens (familia grande)&#45;&gt;Autarquía (autosuficiencia) -->
<g id="edge36" class="edge">
<title>Gens (familia grande)&#45;&gt;Autarquía (autosuficiencia)</title>
<path fill="none" stroke="black" d="M92.43,-464.16C106,-502.71 143.19,-592.78 207,-637 486.87,-830.94 921.5,-782.79 1112.71,-748.85"/>
<polygon fill="black" stroke="black" points="1113.52,-752.26 1122.74,-747.04 1112.27,-745.37 1113.52,-752.26"/>
</g>
<!-- Gens (familia grande)&#45;&gt;Autonomía (leyes propias) -->
<g id="edge37" class="edge">
<title>Gens (familia grande)&#45;&gt;Autonomía (leyes propias)</title>
<path fill="none" stroke="black" d="M98.25,-464.43C117.54,-493.22 158.62,-548.8 207,-580 320.64,-653.29 363.42,-651.03 497,-672 707.28,-705.01 956.83,-694.94 1097.52,-684.83"/>
<polygon fill="black" stroke="black" points="1098.16,-688.29 1107.88,-684.07 1097.65,-681.31 1098.16,-688.29"/>
</g>
<!-- Fratrias -->
<g id="node14" class="node">
<title>Fratrias</title>
<polygon fill="none" stroke="white" points="371,-571 297,-571 297,-535 371,-535 371,-571"/>
<text text-anchor="middle" x="334" y="-549.3" font-family="Times,serif" font-size="14.00">Fratrias</text>
</g>
<!-- Gens (familia grande)&#45;&gt;Fratrias -->
<g id="edge10" class="edge">
<title>Gens (familia grande)&#45;&gt;Fratrias</title>
<path fill="none" stroke="black" d="M128.04,-464.03C172.23,-483.21 241.93,-513.47 287.56,-533.28"/>
<polygon fill="black" stroke="black" points="286.35,-536.57 296.92,-537.34 289.14,-530.14 286.35,-536.57"/>
</g>
<!-- Consejo Aristócrata -->
<g id="node16" class="node">
<title>Consejo Aristócrata</title>
<polygon fill="none" stroke="white" points="1027.5,-517 870.5,-517 870.5,-481 1027.5,-481 1027.5,-517"/>
<text text-anchor="middle" x="949" y="-495.3" font-family="Times,serif" font-size="14.00">Consejo Aristócrata</text>
</g>
<!-- Gens (familia grande)&#45;&gt;Consejo Aristócrata -->
<g id="edge12" class="edge">
<title>Gens (familia grande)&#45;&gt;Consejo Aristócrata</title>
<path fill="none" stroke="black" d="M171.07,-451.2C334.88,-461.28 693.96,-483.37 860.26,-493.6"/>
<polygon fill="black" stroke="black" points="860.25,-497.11 870.45,-494.23 860.68,-490.12 860.25,-497.11"/>
</g>
<!-- Colonia -->
<g id="node35" class="node">
<title>Colonia</title>
<polygon fill="none" stroke="white" points="369,-441 299,-441 299,-405 369,-405 369,-441"/>
<text text-anchor="middle" x="334" y="-419.3" font-family="Times,serif" font-size="14.00">Colonia</text>
</g>
<!-- Gens (familia grande)&#45;&gt;Colonia -->
<g id="edge34" class="edge">
<title>Gens (familia grande)&#45;&gt;Colonia</title>
<path fill="none" stroke="black" d="M171.33,-438.08C210.79,-434.4 256.09,-430.18 288.68,-427.14"/>
<polygon fill="black" stroke="black" points="289.15,-430.61 298.79,-426.19 288.5,-423.64 289.15,-430.61"/>
</g>
<!-- Antecesor de la polis -->
<g id="node36" class="node">
<title>Antecesor de la polis</title>
<polygon fill="none" stroke="white" points="416.5,-387 251.5,-387 251.5,-351 416.5,-351 416.5,-387"/>
<text text-anchor="middle" x="334" y="-365.3" font-family="Times,serif" font-size="14.00">Antecesor de la polis</text>
</g>
<!-- Gens (familia grande)&#45;&gt;Antecesor de la polis -->
<g id="edge35" class="edge">
<title>Gens (familia grande)&#45;&gt;Antecesor de la polis</title>
<path fill="none" stroke="black" d="M124.91,-427.95C148.26,-417.52 178.89,-404.76 207,-396 218.1,-392.54 229.88,-389.37 241.61,-386.52"/>
<polygon fill="black" stroke="black" points="242.51,-389.91 251.44,-384.2 240.9,-383.09 242.51,-389.91"/>
</g>
<!-- Antepasado común -->
<g id="node37" class="node">
<title>Antepasado común</title>
<polygon fill="none" stroke="white" points="410,-333 258,-333 258,-297 410,-297 410,-333"/>
<text text-anchor="middle" x="334" y="-311.3" font-family="Times,serif" font-size="14.00">Antepasado común</text>
</g>
<!-- Gens (familia grande)&#45;&gt;Antepasado común -->
<g id="edge38" class="edge">
<title>Gens (familia grande)&#45;&gt;Antepasado común</title>
<path fill="none" stroke="black" d="M102.05,-427.82C123.29,-404.23 163.7,-363.54 207,-342 219.78,-335.65 234.01,-330.78 248.17,-327.06"/>
<polygon fill="black" stroke="black" points="249.08,-330.44 257.95,-324.66 247.41,-323.64 249.08,-330.44"/>
</g>
<!-- Patrimonio común -->
<g id="node38" class="node">
<title>Patrimonio común</title>
<polygon fill="none" stroke="white" points="407,-279 261,-279 261,-243 407,-243 407,-279"/>
<text text-anchor="middle" x="334" y="-257.3" font-family="Times,serif" font-size="14.00">Patrimonio común</text>
</g>
<!-- Gens (familia grande)&#45;&gt;Patrimonio común -->
<g id="edge39" class="edge">
<title>Gens (familia grande)&#45;&gt;Patrimonio común</title>
<path fill="none" stroke="black" d="M94.84,-427.96C111.25,-394.61 151.06,-323.47 207,-288 220.17,-279.65 235.52,-273.84 250.87,-269.81"/>
<polygon fill="black" stroke="black" points="252.03,-273.14 260.94,-267.41 250.4,-266.33 252.03,-273.14"/>
</g>
<!-- Tribus -->
<g id="node15" class="node">
<title>Tribus</title>
<polygon fill="none" stroke="white" points="676,-571 614,-571 614,-535 676,-535 676,-571"/>
<text text-anchor="middle" x="645" y="-549.3" font-family="Times,serif" font-size="14.00">Tribus</text>
</g>
<!-- Fratrias&#45;&gt;Tribus -->
<g id="edge11" class="edge">
<title>Fratrias&#45;&gt;Tribus</title>
<path fill="none" stroke="black" d="M371.05,-553C429.02,-553 542.6,-553 603.36,-553"/>
<polygon fill="black" stroke="black" points="603.71,-556.5 613.71,-553 603.71,-549.5 603.71,-556.5"/>
</g>
<!-- Fratrias&#45;&gt;Consejo Aristócrata -->
<g id="edge13" class="edge">
<title>Fratrias&#45;&gt;Consejo Aristócrata</title>
<path fill="none" stroke="black" d="M371.2,-545.84C403.93,-539.64 453.51,-530.91 497,-526 622.84,-511.79 769.33,-504.76 860.38,-501.51"/>
<polygon fill="black" stroke="black" points="860.5,-505.01 870.38,-501.16 860.26,-498.01 860.5,-505.01"/>
</g>
<!-- Unidad religiosa -->
<g id="node39" class="node">
<title>Unidad religiosa</title>
<polygon fill="none" stroke="white" points="712,-663 578,-663 578,-627 712,-627 712,-663"/>
<text text-anchor="middle" x="645" y="-641.3" font-family="Times,serif" font-size="14.00">Unidad religiosa</text>
</g>
<!-- Fratrias&#45;&gt;Unidad religiosa -->
<g id="edge41" class="edge">
<title>Fratrias&#45;&gt;Unidad religiosa</title>
<path fill="none" stroke="black" d="M371.18,-568.07C403.69,-581.2 452.96,-600.12 497,-613 519.71,-619.64 544.76,-625.59 567.64,-630.5"/>
<polygon fill="black" stroke="black" points="567.14,-633.97 577.64,-632.62 568.58,-627.13 567.14,-633.97"/>
</g>
<!-- Autoridades -->
<g id="node40" class="node">
<title>Autoridades</title>
<polygon fill="none" stroke="white" points="1000.5,-625 897.5,-625 897.5,-589 1000.5,-589 1000.5,-625"/>
<text text-anchor="middle" x="949" y="-603.3" font-family="Times,serif" font-size="14.00">Autoridades</text>
</g>
<!-- Fratrias&#45;&gt;Autoridades -->
<g id="edge42" class="edge">
<title>Fratrias&#45;&gt;Autoridades</title>
<path fill="none" stroke="black" d="M371.2,-560.16C403.93,-566.36 453.51,-575.09 497,-580 636.12,-595.71 800.49,-602.64 887.27,-605.4"/>
<polygon fill="black" stroke="black" points="887.36,-608.9 897.46,-605.71 887.57,-601.9 887.36,-608.9"/>
</g>
<!-- Tribus&#45;&gt;Polis -->
<g id="edge40" class="edge">
<title>Tribus&#45;&gt;Polis</title>
<path fill="none" stroke="black" d="M676.06,-553C731.94,-553 851.57,-553 911.79,-553"/>
<polygon fill="black" stroke="black" points="911.97,-556.5 921.97,-553 911.97,-549.5 911.97,-556.5"/>
</g>
<!-- Tribus&#45;&gt;Consejo Aristócrata -->
<g id="edge14" class="edge">
<title>Tribus&#45;&gt;Consejo Aristócrata</title>
<path fill="none" stroke="black" d="M676.06,-547.62C718.6,-540.02 798.1,-525.8 860.19,-514.7"/>
<polygon fill="black" stroke="black" points="861.17,-518.08 870.39,-512.88 859.93,-511.19 861.17,-518.08"/>
</g>
<!-- Tribus&#45;&gt;Autoridades -->
<g id="edge43" class="edge">
<title>Tribus&#45;&gt;Autoridades</title>
<path fill="none" stroke="black" d="M676.06,-558.38C725.13,-567.15 823.38,-584.72 887.37,-596.16"/>
<polygon fill="black" stroke="black" points="886.87,-599.63 897.33,-597.94 888.1,-592.73 886.87,-599.63"/>
</g>
<!-- Acrópolis (colina alta) -->
<g id="node17" class="node">
<title>Acrópolis (colina alta)</title>
<polygon fill="none" stroke="white" points="1550,-423 1379,-423 1379,-387 1550,-387 1550,-423"/>
<text text-anchor="middle" x="1464.5" y="-401.3" font-family="Times,serif" font-size="14.00">Acrópolis (colina alta)</text>
</g>
<!-- Templos -->
<g id="node18" class="node">
<title>Templos</title>
<polygon fill="none" stroke="white" points="1708,-477 1632,-477 1632,-441 1708,-441 1708,-477"/>
<text text-anchor="middle" x="1670" y="-455.3" font-family="Times,serif" font-size="14.00">Templos</text>
</g>
<!-- Acrópolis (colina alta)&#45;&gt;Templos -->
<g id="edge15" class="edge">
<title>Acrópolis (colina alta)&#45;&gt;Templos</title>
<path fill="none" stroke="black" d="M1544.11,-423.07C1555.83,-425.95 1567.75,-428.98 1579,-432 1593.07,-435.78 1608.28,-440.21 1622.12,-444.38"/>
<polygon fill="black" stroke="black" points="1621.33,-447.79 1631.92,-447.35 1623.37,-441.1 1621.33,-447.79"/>
</g>
<!-- Centro cívico -->
<g id="node19" class="node">
<title>Centro cívico</title>
<polygon fill="none" stroke="white" points="1725,-423 1615,-423 1615,-387 1725,-387 1725,-423"/>
<text text-anchor="middle" x="1670" y="-401.3" font-family="Times,serif" font-size="14.00">Centro cívico</text>
</g>
<!-- Acrópolis (colina alta)&#45;&gt;Centro cívico -->
<g id="edge16" class="edge">
<title>Acrópolis (colina alta)&#45;&gt;Centro cívico</title>
<path fill="none" stroke="black" d="M1550.03,-405C1568.38,-405 1587.5,-405 1604.91,-405"/>
<polygon fill="black" stroke="black" points="1604.94,-408.5 1614.94,-405 1604.94,-401.5 1604.94,-408.5"/>
</g>
<!-- Amurallado -->
<g id="node20" class="node">
<title>Amurallado</title>
<polygon fill="none" stroke="white" points="1719,-369 1621,-369 1621,-333 1719,-333 1719,-369"/>
<text text-anchor="middle" x="1670" y="-347.3" font-family="Times,serif" font-size="14.00">Amurallado</text>
</g>
<!-- Acrópolis (colina alta)&#45;&gt;Amurallado -->
<g id="edge17" class="edge">
<title>Acrópolis (colina alta)&#45;&gt;Amurallado</title>
<path fill="none" stroke="black" d="M1544.11,-386.93C1555.83,-384.05 1567.75,-381.02 1579,-378 1589.37,-375.21 1600.36,-372.07 1610.97,-368.95"/>
<polygon fill="black" stroke="black" points="1611.98,-372.3 1620.57,-366.09 1609.99,-365.59 1611.98,-372.3"/>
</g>
<!-- Incluyen campos lindantes -->
<g id="node21" class="node">
<title>Incluyen campos lindantes</title>
<polygon fill="none" stroke="white" points="1567.5,-585 1361.5,-585 1361.5,-549 1567.5,-549 1567.5,-585"/>
<text text-anchor="middle" x="1464.5" y="-563.3" font-family="Times,serif" font-size="14.00">Incluyen campos lindantes</text>
</g>
<!-- Asty (suburbio) -->
<g id="node22" class="node">
<title>Asty (suburbio)</title>
<polygon fill="none" stroke="white" points="1527.5,-531 1401.5,-531 1401.5,-495 1527.5,-495 1527.5,-531"/>
<text text-anchor="middle" x="1464.5" y="-509.3" font-family="Times,serif" font-size="14.00">Asty (suburbio)</text>
</g>
<!-- Componentes&#45;&gt;Acrópolis (colina alta) -->
<g id="edge20" class="edge">
<title>Componentes&#45;&gt;Acrópolis (colina alta)</title>
<path fill="none" stroke="black" d="M1236.32,-494.89C1263.47,-476.62 1307.99,-448.77 1350,-432 1356.19,-429.53 1362.67,-427.24 1369.26,-425.14"/>
<polygon fill="black" stroke="black" points="1370.41,-428.45 1378.96,-422.19 1368.38,-421.75 1370.41,-428.45"/>
</g>
<!-- Componentes&#45;&gt;Incluyen campos lindantes -->
<g id="edge21" class="edge">
<title>Componentes&#45;&gt;Incluyen campos lindantes</title>
<path fill="none" stroke="black" d="M1266.65,-524.98C1296.73,-531.4 1334.58,-539.48 1369.04,-546.84"/>
<polygon fill="black" stroke="black" points="1368.63,-550.33 1379.14,-548.99 1370.09,-543.48 1368.63,-550.33"/>
</g>
<!-- Componentes&#45;&gt;Asty (suburbio) -->
<g id="edge19" class="edge">
<title>Componentes&#45;&gt;Asty (suburbio)</title>
<path fill="none" stroke="black" d="M1266.65,-513C1303.34,-513 1351.62,-513 1391.18,-513"/>
<polygon fill="black" stroke="black" points="1391.3,-516.5 1401.3,-513 1391.3,-509.5 1391.3,-516.5"/>
</g>
<!-- Ágora (plaza pública) -->
<g id="node24" class="node">
<title>Ágora (plaza pública)</title>
<polygon fill="none" stroke="white" points="1548,-477 1381,-477 1381,-441 1548,-441 1548,-477"/>
<text text-anchor="middle" x="1464.5" y="-455.3" font-family="Times,serif" font-size="14.00">Ágora (plaza pública)</text>
</g>
<!-- Componentes&#45;&gt;Ágora (plaza pública) -->
<g id="edge22" class="edge">
<title>Componentes&#45;&gt;Ágora (plaza pública)</title>
<path fill="none" stroke="black" d="M1266.65,-501.02C1297.12,-494.51 1335.59,-486.3 1370.41,-478.87"/>
<polygon fill="black" stroke="black" points="1371.55,-482.2 1380.6,-476.69 1370.09,-475.36 1371.55,-482.2"/>
</g>
<!-- Bien común -->
<g id="node26" class="node">
<title>Bien común</title>
<polygon fill="none" stroke="white" points="1515,-315 1414,-315 1414,-279 1515,-279 1515,-315"/>
<text text-anchor="middle" x="1464.5" y="-293.3" font-family="Times,serif" font-size="14.00">Bien común</text>
</g>
<!-- =comunidad&#45;&gt;Bien común -->
<g id="edge24" class="edge">
<title>=comunidad&#45;&gt;Bien común</title>
<path fill="none" stroke="black" d="M1263.23,-339.75C1304.25,-330.99 1361.19,-318.84 1403.87,-309.73"/>
<polygon fill="black" stroke="black" points="1404.8,-313.11 1413.85,-307.6 1403.34,-306.26 1404.8,-313.11"/>
</g>
<!-- Natural -->
<g id="node28" class="node">
<title>Natural</title>
<polygon fill="none" stroke="white" points="1500,-369 1429,-369 1429,-333 1500,-333 1500,-369"/>
<text text-anchor="middle" x="1464.5" y="-347.3" font-family="Times,serif" font-size="14.00">Natural</text>
</g>
<!-- =comunidad&#45;&gt;Natural -->
<g id="edge26" class="edge">
<title>=comunidad&#45;&gt;Natural</title>
<path fill="none" stroke="black" d="M1263.23,-351C1309.22,-351 1375.19,-351 1418.68,-351"/>
<polygon fill="black" stroke="black" points="1418.68,-354.5 1428.68,-351 1418.68,-347.5 1418.68,-354.5"/>
</g>
<!-- Logos (abstracción) -->
<g id="node30" class="node">
<title>Logos (abstracción)</title>
<polygon fill="none" stroke="white" points="723,-90 567,-90 567,-54 723,-54 723,-90"/>
<text text-anchor="middle" x="645" y="-68.3" font-family="Times,serif" font-size="14.00">Logos (abstracción)</text>
</g>
<!-- Humano&#45;&gt;Logos (abstracción) -->
<g id="edge28" class="edge">
<title>Humano&#45;&gt;Logos (abstracción)</title>
<path fill="none" stroke="black" d="M372.58,-72C417.97,-72 495.77,-72 556.47,-72"/>
<polygon fill="black" stroke="black" points="556.82,-75.5 566.82,-72 556.82,-68.5 556.82,-75.5"/>
</g>
<!-- Finalismo -->
<g id="node31" class="node">
<title>Finalismo</title>
<polygon fill="none" stroke="white" points="688,-36 602,-36 602,0 688,0 688,-36"/>
<text text-anchor="middle" x="645" y="-14.3" font-family="Times,serif" font-size="14.00">Finalismo</text>
</g>
<!-- Humano&#45;&gt;Finalismo -->
<g id="edge29" class="edge">
<title>Humano&#45;&gt;Finalismo</title>
<path fill="none" stroke="black" d="M372.58,-65.43C427.43,-55.85 529.62,-37.99 591.76,-27.13"/>
<polygon fill="black" stroke="black" points="592.5,-30.55 601.75,-25.38 591.3,-23.66 592.5,-30.55"/>
</g>
<!-- Finalismo&#45;&gt;Fin es la felicidad (eudaimonía) -->
<g id="edge30" class="edge">
<title>Finalismo&#45;&gt;Fin es la felicidad (eudaimonía)</title>
<path fill="none" stroke="black" d="M688.31,-18C722.26,-18 771.81,-18 818.55,-18"/>
<polygon fill="black" stroke="black" points="818.78,-21.5 828.78,-18 818.78,-14.5 818.78,-21.5"/>
</g>
</g>
</svg>
