<?xml version="1.0" encoding="UTF-8" standalone="no"?>
<!DOCTYPE svg PUBLIC "-//W3C//DTD SVG 1.1//EN"
 "http://www.w3.org/Graphics/SVG/1.1/DTD/svg11.dtd">
<!-- Generated by graphviz version 2.43.0 (0)
 -->
<!-- Title: %3 Pages: 1 -->
<svg width="2965pt" height="943pt"
 viewBox="0.00 0.00 2965.00 943.00" xmlns="http://www.w3.org/2000/svg" xmlns:xlink="http://www.w3.org/1999/xlink">
<g id="graph0" class="graph" transform="scale(1 1) rotate(0) translate(4 939)">
<title>%3</title>
<polygon fill="white" stroke="transparent" points="-4,4 -4,-939 2961,-939 2961,4 -4,4"/>
<!-- Origen filosofia -->
<g id="node1" class="node">
<title>Origen filosofia</title>
<polygon fill="none" stroke="white" points="164,-407 39,-407 39,-371 164,-371 164,-407"/>
<text text-anchor="middle" x="101.5" y="-385.3" font-family="Times,serif" font-size="14.00">Origen filosofia</text>
</g>
<!-- Estructuracion polis -->
<g id="node2" class="node">
<title>Estructuracion polis</title>
<polygon fill="none" stroke="white" points="400,-434 239,-434 239,-398 400,-398 400,-434"/>
<text text-anchor="middle" x="319.5" y="-412.3" font-family="Times,serif" font-size="14.00">Estructuracion polis</text>
</g>
<!-- Origen filosofia&#45;&gt;Estructuracion polis -->
<g id="edge1" class="edge">
<title>Origen filosofia&#45;&gt;Estructuracion polis</title>
<path fill="none" stroke="black" d="M164.11,-396.7C184.13,-399.2 206.78,-402.03 228.44,-404.74"/>
<polygon fill="black" stroke="black" points="228.28,-408.25 238.64,-406.02 229.15,-401.3 228.28,-408.25"/>
</g>
<!-- Heraclito -->
<g id="node3" class="node">
<title>Heraclito</title>
<polygon fill="none" stroke="white" points="361,-380 278,-380 278,-344 361,-344 361,-380"/>
<text text-anchor="middle" x="319.5" y="-358.3" font-family="Times,serif" font-size="14.00">Heraclito</text>
</g>
<!-- Origen filosofia&#45;&gt;Heraclito -->
<g id="edge2" class="edge">
<title>Origen filosofia&#45;&gt;Heraclito</title>
<path fill="none" stroke="black" d="M164.11,-381.3C196.93,-377.2 236.82,-372.21 267.82,-368.33"/>
<polygon fill="black" stroke="black" points="268.49,-371.78 277.98,-367.07 267.62,-364.83 268.49,-371.78"/>
</g>
<!-- Physis -->
<g id="node4" class="node">
<title>Physis</title>
<polygon fill="none" stroke="blue" points="821,-843 758,-843 758,-807 821,-807 821,-843"/>
<text text-anchor="middle" x="789.5" y="-821.3" font-family="Times,serif" font-size="14.00">Physis</text>
</g>
<!-- Heraclito&#45;&gt;Physis -->
<g id="edge3" class="edge">
<title>Heraclito&#45;&gt;Physis</title>
<path fill="none" stroke="black" d="M361.31,-366.71C375.66,-370.47 390.55,-377.15 400,-389 497.47,-511.28 333.24,-621.13 436,-739 515.2,-829.85 672.93,-832.94 747.55,-828.7"/>
<polygon fill="black" stroke="black" points="748.19,-832.17 757.94,-828.03 747.74,-825.18 748.19,-832.17"/>
</g>
<!-- Nomos divino unico -->
<g id="node6" class="node">
<title>Nomos divino unico</title>
<polygon fill="none" stroke="blue" points="2236.5,-743 2079.5,-743 2079.5,-707 2236.5,-707 2236.5,-743"/>
<text text-anchor="middle" x="2158" y="-721.3" font-family="Times,serif" font-size="14.00">Nomos divino unico</text>
</g>
<!-- Heraclito&#45;&gt;Nomos divino unico -->
<g id="edge6" class="edge">
<title>Heraclito&#45;&gt;Nomos divino unico</title>
<path fill="none" stroke="black" d="M361.02,-370.21C374.37,-374.3 388.67,-380.3 400,-389 422.87,-406.57 412.55,-426.21 436,-443 805.44,-707.57 974.24,-641.22 1424,-706 1655.1,-739.28 1931.3,-734.63 2069.36,-729.31"/>
<polygon fill="black" stroke="black" points="2069.61,-732.8 2079.46,-728.91 2069.33,-725.81 2069.61,-732.8"/>
</g>
<!-- Lo comun -->
<g id="node10" class="node">
<title>Lo comun</title>
<polygon fill="none" stroke="white" points="832.5,-434 746.5,-434 746.5,-398 832.5,-398 832.5,-434"/>
<text text-anchor="middle" x="789.5" y="-412.3" font-family="Times,serif" font-size="14.00">Lo comun</text>
</g>
<!-- Heraclito&#45;&gt;Lo comun -->
<g id="edge9" class="edge">
<title>Heraclito&#45;&gt;Lo comun</title>
<path fill="none" stroke="black" d="M361.09,-373.1C383.1,-378.7 410.87,-385.12 436,-389 541.88,-405.33 667.24,-411.94 736.3,-414.5"/>
<polygon fill="black" stroke="black" points="736.36,-418 746.48,-414.86 736.61,-411.01 736.36,-418"/>
</g>
<!-- Contexto materialista (jónica) -->
<g id="node24" class="node">
<title>Contexto materialista (jónica)</title>
<polygon fill="none" stroke="white" points="904,-380 675,-380 675,-344 904,-344 904,-380"/>
<text text-anchor="middle" x="789.5" y="-358.3" font-family="Times,serif" font-size="14.00">Contexto materialista (jónica)</text>
</g>
<!-- Heraclito&#45;&gt;Contexto materialista (jónica) -->
<g id="edge23" class="edge">
<title>Heraclito&#45;&gt;Contexto materialista (jónica)</title>
<path fill="none" stroke="black" d="M361.21,-362C428.08,-362 563.77,-362 664.39,-362"/>
<polygon fill="black" stroke="black" points="664.62,-365.5 674.62,-362 664.62,-358.5 664.62,-365.5"/>
</g>
<!-- “El señor del que hay en delfos un oráculo, no dice ni oculta; sólo da signos” -->
<g id="node29" class="node">
<title>“El señor del que hay en delfos un oráculo, no dice ni oculta; sólo da signos”</title>
<polygon fill="none" stroke="white" points="1070.5,-326 508.5,-326 508.5,-290 1070.5,-290 1070.5,-326"/>
<text text-anchor="middle" x="789.5" y="-304.3" font-family="Times,serif" font-size="14.00">“El señor del que hay en delfos un oráculo, no dice ni oculta; sólo da signos”</text>
</g>
<!-- Heraclito&#45;&gt;“El señor del que hay en delfos un oráculo, no dice ni oculta; sólo da signos” -->
<g id="edge28" class="edge">
<title>Heraclito&#45;&gt;“El señor del que hay en delfos un oráculo, no dice ni oculta; sólo da signos”</title>
<path fill="none" stroke="blue" d="M361.09,-350.9C383.1,-345.3 410.87,-338.88 436,-335 456.16,-331.89 477.03,-329.13 498.08,-326.69"/>
<polygon fill="blue" stroke="blue" points="498.55,-330.16 508.09,-325.55 497.76,-323.2 498.55,-330.16"/>
</g>
<!-- “…cuantos vimos y atrapamos, tantos dejamos; cuantos no vimos ni atrapamos tantos llevamos” -->
<g id="node32" class="node">
<title>“…cuantos vimos y atrapamos, tantos dejamos; cuantos no vimos ni atrapamos tantos llevamos”</title>
<polygon fill="none" stroke="white" points="1143,-272 436,-272 436,-236 1143,-236 1143,-272"/>
<text text-anchor="middle" x="789.5" y="-250.3" font-family="Times,serif" font-size="14.00">“…cuantos vimos y atrapamos, tantos dejamos; cuantos no vimos ni atrapamos tantos llevamos”</text>
</g>
<!-- Heraclito&#45;&gt;“…cuantos vimos y atrapamos, tantos dejamos; cuantos no vimos ni atrapamos tantos llevamos” -->
<g id="edge31" class="edge">
<title>Heraclito&#45;&gt;“…cuantos vimos y atrapamos, tantos dejamos; cuantos no vimos ni atrapamos tantos llevamos”</title>
<path fill="none" stroke="blue" d="M339.49,-343.74C360.97,-324.34 397.96,-294.63 436,-281 441.97,-278.86 448.04,-276.85 454.18,-274.96"/>
<polygon fill="blue" stroke="blue" points="455.29,-278.28 463.88,-272.09 453.3,-271.57 455.29,-278.28"/>
</g>
<!-- “aunque este logos existe siempre los hombres se vuelven incapaces de comprenderlo…” -->
<g id="node38" class="node">
<title>“aunque este logos existe siempre los hombres se vuelven incapaces de comprenderlo…”</title>
<polygon fill="none" stroke="white" points="1117.5,-218 461.5,-218 461.5,-182 1117.5,-182 1117.5,-218"/>
<text text-anchor="middle" x="789.5" y="-196.3" font-family="Times,serif" font-size="14.00">“aunque este logos existe siempre los hombres se vuelven incapaces de comprenderlo…”</text>
</g>
<!-- Heraclito&#45;&gt;“aunque este logos existe siempre los hombres se vuelven incapaces de comprenderlo…” -->
<g id="edge38" class="edge">
<title>Heraclito&#45;&gt;“aunque este logos existe siempre los hombres se vuelven incapaces de comprenderlo…”</title>
<path fill="none" stroke="black" d="M329.94,-343.56C346.65,-313.11 384.57,-253.11 436,-227 441.26,-224.33 446.62,-221.82 452.07,-219.47"/>
<polygon fill="black" stroke="black" points="453.41,-222.7 461.32,-215.65 450.74,-216.23 453.41,-222.7"/>
</g>
<!-- polis? -->
<g id="node5" class="node">
<title>polis?</title>
<polygon fill="none" stroke="white" points="1312.5,-789 1254.5,-789 1254.5,-753 1312.5,-753 1312.5,-789"/>
<text text-anchor="middle" x="1283.5" y="-767.3" font-family="Times,serif" font-size="14.00">polis?</text>
</g>
<!-- Physis&#45;&gt;polis? -->
<g id="edge4" class="edge">
<title>Physis&#45;&gt;polis?</title>
<path fill="none" stroke="black" d="M821.28,-821.62C907.25,-812.19 1149.83,-785.56 1244.24,-775.2"/>
<polygon fill="black" stroke="black" points="1244.66,-778.67 1254.21,-774.1 1243.89,-771.72 1244.66,-778.67"/>
</g>
<!-- Estructura basica -->
<g id="node18" class="node">
<title>Estructura basica</title>
<polygon fill="none" stroke="white" points="1355,-935 1212,-935 1212,-899 1355,-899 1355,-935"/>
<text text-anchor="middle" x="1283.5" y="-913.3" font-family="Times,serif" font-size="14.00">Estructura basica</text>
</g>
<!-- Physis&#45;&gt;Estructura basica -->
<g id="edge17" class="edge">
<title>Physis&#45;&gt;Estructura basica</title>
<path fill="none" stroke="black" d="M821.28,-830.76C896.35,-844.79 1090.83,-881.16 1201.8,-901.91"/>
<polygon fill="black" stroke="black" points="1201.47,-905.41 1211.94,-903.81 1202.76,-898.53 1201.47,-905.41"/>
</g>
<!-- Natural -->
<g id="node22" class="node">
<title>Natural</title>
<polygon fill="none" stroke="white" points="2548.5,-870 2477.5,-870 2477.5,-834 2548.5,-834 2548.5,-870"/>
<text text-anchor="middle" x="2513" y="-848.3" font-family="Times,serif" font-size="14.00">Natural</text>
</g>
<!-- Physis&#45;&gt;Natural -->
<g id="edge21" class="edge">
<title>Physis&#45;&gt;Natural</title>
<path fill="none" stroke="black" d="M821.18,-827.86C886.78,-833.81 1045.55,-847.37 1179,-852 1684.5,-869.54 2298.48,-857.13 2467.25,-853.13"/>
<polygon fill="black" stroke="black" points="2467.57,-856.62 2477.49,-852.88 2467.4,-849.62 2467.57,-856.62"/>
</g>
<!-- “La physis ama ocultarse” -->
<g id="node31" class="node">
<title>“La physis ama ocultarse”</title>
<polygon fill="none" stroke="white" points="1385.5,-843 1181.5,-843 1181.5,-807 1385.5,-807 1385.5,-843"/>
<text text-anchor="middle" x="1283.5" y="-821.3" font-family="Times,serif" font-size="14.00">“La physis ama ocultarse”</text>
</g>
<!-- Physis&#45;&gt;“La physis ama ocultarse” -->
<g id="edge30" class="edge">
<title>Physis&#45;&gt;“La physis ama ocultarse”</title>
<path fill="none" stroke="yellow" d="M821.28,-825C889.84,-825 1058,-825 1171.18,-825"/>
<polygon fill="yellow" stroke="yellow" points="1171.27,-828.5 1181.27,-825 1171.27,-821.5 1171.27,-828.5"/>
</g>
<!-- Nomoi (plural de nomos) humano -->
<g id="node7" class="node">
<title>Nomoi (plural de nomos) humano</title>
<polygon fill="none" stroke="blue" points="2640,-645 2386,-645 2386,-609 2640,-609 2640,-645"/>
<text text-anchor="middle" x="2513" y="-623.3" font-family="Times,serif" font-size="14.00">Nomoi (plural de nomos) humano</text>
</g>
<!-- Nomos divino unico&#45;&gt;Nomoi (plural de nomos) humano -->
<g id="edge5" class="edge">
<title>Nomos divino unico&#45;&gt;Nomoi (plural de nomos) humano</title>
<path fill="none" stroke="black" d="M2211.8,-706.97C2257.56,-691.71 2325.7,-669.86 2386,-654 2394.74,-651.7 2403.86,-649.46 2413.02,-647.31"/>
<polygon fill="black" stroke="black" points="2414,-650.67 2422.96,-645.01 2412.43,-643.85 2414,-650.67"/>
</g>
<!-- Ley -->
<g id="node8" class="node">
<title>Ley</title>
<polygon fill="none" stroke="white" points="2540,-807 2486,-807 2486,-771 2540,-771 2540,-807"/>
<text text-anchor="middle" x="2513" y="-785.3" font-family="Times,serif" font-size="14.00">Ley</text>
</g>
<!-- Nomos divino unico&#45;&gt;Ley -->
<g id="edge7" class="edge">
<title>Nomos divino unico&#45;&gt;Ley</title>
<path fill="none" stroke="black" d="M2236.9,-739.12C2311.1,-752.58 2419.53,-772.24 2475.52,-782.39"/>
<polygon fill="black" stroke="black" points="2475.21,-785.89 2485.67,-784.23 2476.46,-779 2475.21,-785.89"/>
</g>
<!-- Nomos divino unico&#45;&gt;Natural -->
<g id="edge47" class="edge">
<title>Nomos divino unico&#45;&gt;Natural</title>
<path fill="none" stroke="black" d="M2200.35,-743.07C2245.49,-762.45 2320.12,-793.45 2386,-816 2412.86,-825.19 2443.48,-833.98 2467.81,-840.57"/>
<polygon fill="black" stroke="black" points="2466.91,-843.95 2477.48,-843.17 2468.73,-837.19 2466.91,-843.95"/>
</g>
<!-- Necesario -->
<g id="node48" class="node">
<title>Necesario</title>
<polygon fill="none" stroke="white" points="2557,-753 2469,-753 2469,-717 2557,-717 2557,-753"/>
<text text-anchor="middle" x="2513" y="-731.3" font-family="Times,serif" font-size="14.00">Necesario</text>
</g>
<!-- Nomos divino unico&#45;&gt;Necesario -->
<g id="edge46" class="edge">
<title>Nomos divino unico&#45;&gt;Necesario</title>
<path fill="none" stroke="black" d="M2236.9,-727.21C2304.13,-729.11 2399.46,-731.81 2458.43,-733.48"/>
<polygon fill="black" stroke="black" points="2458.55,-736.99 2468.64,-733.77 2458.75,-729.99 2458.55,-736.99"/>
</g>
<!-- Único -->
<g id="node49" class="node">
<title>Único</title>
<polygon fill="none" stroke="white" points="2542,-699 2484,-699 2484,-663 2542,-663 2542,-699"/>
<text text-anchor="middle" x="2513" y="-677.3" font-family="Times,serif" font-size="14.00">Único</text>
</g>
<!-- Nomos divino unico&#45;&gt;Único -->
<g id="edge48" class="edge">
<title>Nomos divino unico&#45;&gt;Único</title>
<path fill="none" stroke="black" d="M2236.9,-715.29C2310.3,-706.14 2417.19,-692.82 2473.69,-685.78"/>
<polygon fill="black" stroke="black" points="2474.14,-689.25 2483.63,-684.54 2473.28,-682.3 2474.14,-689.25"/>
</g>
<!-- Fuerza de la polis -->
<g id="node9" class="node">
<title>Fuerza de la polis</title>
<polygon fill="none" stroke="white" points="2888,-591 2745,-591 2745,-555 2888,-555 2888,-591"/>
<text text-anchor="middle" x="2816.5" y="-569.3" font-family="Times,serif" font-size="14.00">Fuerza de la polis</text>
</g>
<!-- Nomoi (plural de nomos) humano&#45;&gt;Fuerza de la polis -->
<g id="edge8" class="edge">
<title>Nomoi (plural de nomos) humano&#45;&gt;Fuerza de la polis</title>
<path fill="none" stroke="black" d="M2614.81,-608.94C2653.78,-601.97 2697.76,-594.09 2734.59,-587.49"/>
<polygon fill="black" stroke="black" points="2735.56,-590.87 2744.78,-585.67 2734.32,-583.98 2735.56,-590.87"/>
</g>
<!-- Intereses clase dominante vs domina -->
<g id="node21" class="node">
<title>Intereses clase dominante vs domina</title>
<polygon fill="none" stroke="white" points="2957,-699 2676,-699 2676,-663 2957,-663 2957,-699"/>
<text text-anchor="middle" x="2816.5" y="-677.3" font-family="Times,serif" font-size="14.00">Intereses clase dominante vs domina</text>
</g>
<!-- Nomoi (plural de nomos) humano&#45;&gt;Intereses clase dominante vs domina -->
<g id="edge20" class="edge">
<title>Nomoi (plural de nomos) humano&#45;&gt;Intereses clase dominante vs domina</title>
<path fill="none" stroke="black" d="M2614.81,-645.06C2643.73,-650.24 2675.41,-655.91 2704.88,-661.19"/>
<polygon fill="black" stroke="black" points="2704.32,-664.64 2714.78,-662.96 2705.55,-657.75 2704.32,-664.64"/>
</g>
<!-- Regula la conducta humana -->
<g id="node23" class="node">
<title>Regula la conducta humana</title>
<polygon fill="none" stroke="white" points="2923.5,-645 2709.5,-645 2709.5,-609 2923.5,-609 2923.5,-645"/>
<text text-anchor="middle" x="2816.5" y="-623.3" font-family="Times,serif" font-size="14.00">Regula la conducta humana</text>
</g>
<!-- Nomoi (plural de nomos) humano&#45;&gt;Regula la conducta humana -->
<g id="edge22" class="edge">
<title>Nomoi (plural de nomos) humano&#45;&gt;Regula la conducta humana</title>
<path fill="none" stroke="black" d="M2640.12,-627C2659.77,-627 2679.99,-627 2699.4,-627"/>
<polygon fill="black" stroke="black" points="2699.47,-630.5 2709.47,-627 2699.47,-623.5 2699.47,-630.5"/>
</g>
<!-- Contraste con lo particular -->
<g id="node11" class="node">
<title>Contraste con lo particular</title>
<polygon fill="none" stroke="white" points="1388,-380 1179,-380 1179,-344 1388,-344 1388,-380"/>
<text text-anchor="middle" x="1283.5" y="-358.3" font-family="Times,serif" font-size="14.00">Contraste con lo particular</text>
</g>
<!-- Lo comun&#45;&gt;Contraste con lo particular -->
<g id="edge10" class="edge">
<title>Lo comun&#45;&gt;Contraste con lo particular</title>
<path fill="none" stroke="black" d="M832.72,-414.33C899.03,-411.36 1031.53,-404.01 1143,-389 1157.4,-387.06 1172.56,-384.59 1187.37,-381.92"/>
<polygon fill="black" stroke="black" points="1188.35,-385.3 1197.55,-380.05 1187.08,-378.42 1188.35,-385.3"/>
</g>
<!-- Inteligencia Colectiva -->
<g id="node12" class="node">
<title>Inteligencia Colectiva</title>
<polygon fill="none" stroke="white" points="1369,-488 1198,-488 1198,-452 1369,-452 1369,-488"/>
<text text-anchor="middle" x="1283.5" y="-466.3" font-family="Times,serif" font-size="14.00">Inteligencia Colectiva</text>
</g>
<!-- Lo comun&#45;&gt;Inteligencia Colectiva -->
<g id="edge11" class="edge">
<title>Lo comun&#45;&gt;Inteligencia Colectiva</title>
<path fill="none" stroke="black" d="M832.87,-420.65C911.23,-429.25 1080.51,-447.83 1187.55,-459.58"/>
<polygon fill="black" stroke="black" points="1187.39,-463.08 1197.71,-460.69 1188.15,-456.12 1187.39,-463.08"/>
</g>
<!-- Logos -->
<g id="node14" class="node">
<title>Logos</title>
<polygon fill="none" stroke="blue" points="1313,-434 1254,-434 1254,-398 1313,-398 1313,-434"/>
<text text-anchor="middle" x="1283.5" y="-412.3" font-family="Times,serif" font-size="14.00">Logos</text>
</g>
<!-- Lo comun&#45;&gt;Logos -->
<g id="edge13" class="edge">
<title>Lo comun&#45;&gt;Logos</title>
<path fill="none" stroke="black" d="M832.87,-416C927.15,-416 1153.09,-416 1243.82,-416"/>
<polygon fill="black" stroke="black" points="1243.94,-419.5 1253.94,-416 1243.94,-412.5 1243.94,-419.5"/>
</g>
<!-- Inteligencia privada (automatas) -->
<g id="node13" class="node">
<title>Inteligencia privada (automatas)</title>
<polygon fill="none" stroke="white" points="1801.5,-117 1552.5,-117 1552.5,-81 1801.5,-81 1801.5,-117"/>
<text text-anchor="middle" x="1677" y="-95.3" font-family="Times,serif" font-size="14.00">Inteligencia privada (automatas)</text>
</g>
<!-- Contraste con lo particular&#45;&gt;Inteligencia privada (automatas) -->
<g id="edge12" class="edge">
<title>Contraste con lo particular&#45;&gt;Inteligencia privada (automatas)</title>
<path fill="none" stroke="black" d="M1378.01,-343.75C1381.63,-341.19 1384.98,-338.28 1388,-335 1451.77,-265.59 1355.26,-190.49 1424,-126 1455.34,-96.6 1499.45,-85.7 1542.02,-83.47"/>
<polygon fill="black" stroke="black" points="1542.36,-86.96 1552.22,-83.09 1542.1,-79.96 1542.36,-86.96"/>
</g>
<!-- Ordenador de la realidad -->
<g id="node15" class="node">
<title>Ordenador de la realidad</title>
<polygon fill="none" stroke="white" points="1774.5,-461 1579.5,-461 1579.5,-425 1774.5,-425 1774.5,-461"/>
<text text-anchor="middle" x="1677" y="-439.3" font-family="Times,serif" font-size="14.00">Ordenador de la realidad</text>
</g>
<!-- Logos&#45;&gt;Ordenador de la realidad -->
<g id="edge15" class="edge">
<title>Logos&#45;&gt;Ordenador de la realidad</title>
<path fill="none" stroke="black" d="M1313.29,-417.99C1366.45,-421.65 1482.52,-429.66 1569.12,-435.63"/>
<polygon fill="black" stroke="black" points="1569.04,-439.13 1579.26,-436.33 1569.53,-432.15 1569.04,-439.13"/>
</g>
<!-- Inteligible -->
<g id="node16" class="node">
<title>Inteligible</title>
<polygon fill="none" stroke="white" points="1721.5,-407 1632.5,-407 1632.5,-371 1721.5,-371 1721.5,-407"/>
<text text-anchor="middle" x="1677" y="-385.3" font-family="Times,serif" font-size="14.00">Inteligible</text>
</g>
<!-- Logos&#45;&gt;Inteligible -->
<g id="edge14" class="edge">
<title>Logos&#45;&gt;Inteligible</title>
<path fill="none" stroke="black" d="M1313.29,-414.01C1378.47,-409.52 1538.17,-398.51 1622.24,-392.71"/>
<polygon fill="black" stroke="black" points="1622.62,-396.19 1632.36,-392.01 1622.14,-389.21 1622.62,-396.19"/>
</g>
<!-- Gobierna a traves de todo -->
<g id="node17" class="node">
<title>Gobierna a traves de todo</title>
<polygon fill="none" stroke="white" points="1778,-353 1576,-353 1576,-317 1778,-317 1778,-353"/>
<text text-anchor="middle" x="1677" y="-331.3" font-family="Times,serif" font-size="14.00">Gobierna a traves de todo</text>
</g>
<!-- Logos&#45;&gt;Gobierna a traves de todo -->
<g id="edge16" class="edge">
<title>Logos&#45;&gt;Gobierna a traves de todo</title>
<path fill="none" stroke="black" d="M1313.21,-411.6C1334.59,-407.61 1364.08,-400.53 1388,-389 1406.01,-380.31 1405.39,-369.33 1424,-362 1468.44,-344.5 1520.49,-336.99 1565.72,-334.14"/>
<polygon fill="black" stroke="black" points="1566.07,-337.62 1575.86,-333.57 1565.68,-330.63 1566.07,-337.62"/>
</g>
<!-- Multiplicidad de objetos armonica -->
<g id="node19" class="node">
<title>Multiplicidad de objetos armonica</title>
<polygon fill="none" stroke="white" points="1807,-299 1547,-299 1547,-263 1807,-263 1807,-299"/>
<text text-anchor="middle" x="1677" y="-277.3" font-family="Times,serif" font-size="14.00">Multiplicidad de objetos armonica</text>
</g>
<!-- Logos&#45;&gt;Multiplicidad de objetos armonica -->
<g id="edge18" class="edge">
<title>Logos&#45;&gt;Multiplicidad de objetos armonica</title>
<path fill="none" stroke="black" d="M1313.03,-415.14C1335.73,-413.03 1367.05,-406.79 1388,-389 1418.03,-363.5 1392.16,-331.2 1424,-308 1456.29,-284.47 1497.38,-274.24 1536.96,-270.83"/>
<polygon fill="black" stroke="black" points="1537.27,-274.31 1546.99,-270.1 1536.76,-267.33 1537.27,-274.31"/>
</g>
<!-- orden -->
<g id="node25" class="node">
<title>orden</title>
<polygon fill="none" stroke="yellow" points="1677,-245 1601.71,-210.5 1752.29,-210.5 1677,-245"/>
<text text-anchor="middle" x="1677" y="-218.3" font-family="Times,serif" font-size="14.00">orden</text>
</g>
<!-- Logos&#45;&gt;orden -->
<g id="edge24" class="edge">
<title>Logos&#45;&gt;orden</title>
<path fill="none" stroke="black" d="M1313.35,-416.02C1336.54,-414.46 1368.38,-408.51 1388,-389 1432.03,-345.21 1377.24,-294.86 1424,-254 1469.47,-214.26 1538.39,-207.88 1592.67,-210.54"/>
<polygon fill="black" stroke="black" points="1592.78,-214.05 1602.97,-211.16 1593.2,-207.06 1592.78,-214.05"/>
</g>
<!-- discurso -->
<g id="node26" class="node">
<title>discurso</title>
<polygon fill="none" stroke="yellow" points="1677,-181 1576.82,-146.5 1777.18,-146.5 1677,-181"/>
<text text-anchor="middle" x="1677" y="-154.3" font-family="Times,serif" font-size="14.00">discurso</text>
</g>
<!-- Logos&#45;&gt;discurso -->
<g id="edge25" class="edge">
<title>Logos&#45;&gt;discurso</title>
<path fill="none" stroke="black" d="M1313.3,-416.46C1336.79,-415.19 1369.07,-409.43 1388,-389 1449.09,-323.07 1358.79,-251.86 1424,-190 1469.18,-147.14 1541.19,-141.83 1596.69,-145.68"/>
<polygon fill="black" stroke="black" points="1596.6,-149.18 1606.85,-146.5 1597.16,-142.21 1596.6,-149.18"/>
</g>
<!-- devenir o discurrir -->
<g id="node27" class="node">
<title>devenir o discurrir</title>
<polygon fill="none" stroke="yellow" points="1677,-697 1482.03,-662.5 1871.97,-662.5 1677,-697"/>
<text text-anchor="middle" x="1677" y="-670.3" font-family="Times,serif" font-size="14.00">devenir o discurrir</text>
</g>
<!-- Logos&#45;&gt;devenir o discurrir -->
<g id="edge26" class="edge">
<title>Logos&#45;&gt;devenir o discurrir</title>
<path fill="none" stroke="black" d="M1313.3,-415.54C1336.79,-416.81 1369.07,-422.57 1388,-443 1449.09,-508.93 1358.79,-580.14 1424,-642 1470.01,-685.65 1543.84,-690.36 1599.72,-686.1"/>
<polygon fill="black" stroke="black" points="1600.28,-689.56 1609.94,-685.21 1599.67,-682.59 1600.28,-689.56"/>
</g>
<!-- legalidad -->
<g id="node28" class="node">
<title>legalidad</title>
<polygon fill="none" stroke="yellow" points="1677,-633 1570.32,-598.5 1783.68,-598.5 1677,-633"/>
<text text-anchor="middle" x="1677" y="-606.3" font-family="Times,serif" font-size="14.00">legalidad</text>
</g>
<!-- Logos&#45;&gt;legalidad -->
<g id="edge27" class="edge">
<title>Logos&#45;&gt;legalidad</title>
<path fill="none" stroke="black" d="M1313.35,-415.98C1336.54,-417.54 1368.38,-423.49 1388,-443 1432.03,-486.79 1377.24,-537.14 1424,-578 1477.61,-624.86 1563.83,-625.34 1620.21,-619.3"/>
<polygon fill="black" stroke="black" points="1620.85,-622.75 1630.37,-618.11 1620.03,-615.8 1620.85,-622.75"/>
</g>
<!-- No lo captan las almas bárbaras -->
<g id="node45" class="node">
<title>No lo captan las almas bárbaras</title>
<polygon fill="none" stroke="white" points="1800,-569 1554,-569 1554,-533 1800,-533 1800,-569"/>
<text text-anchor="middle" x="1677" y="-547.3" font-family="Times,serif" font-size="14.00">No lo captan las almas bárbaras</text>
</g>
<!-- Logos&#45;&gt;No lo captan las almas bárbaras -->
<g id="edge43" class="edge">
<title>Logos&#45;&gt;No lo captan las almas bárbaras</title>
<path fill="none" stroke="black" d="M1313.03,-416.86C1335.73,-418.97 1367.05,-425.21 1388,-443 1418.03,-468.5 1392.16,-500.8 1424,-524 1458.09,-548.83 1501.97,-558.86 1543.54,-561.68"/>
<polygon fill="black" stroke="black" points="1543.6,-565.19 1553.77,-562.23 1543.98,-558.2 1543.6,-565.19"/>
</g>
<!-- igual al nomos divino único, o parte conocida del nomos divino único -->
<g id="node47" class="node">
<title>igual al nomos divino único, o parte conocida del nomos divino único</title>
<polygon fill="none" stroke="white" points="1930,-515 1424,-515 1424,-479 1930,-479 1930,-515"/>
<text text-anchor="middle" x="1677" y="-493.3" font-family="Times,serif" font-size="14.00">igual al nomos divino único, o parte conocida del nomos divino único</text>
</g>
<!-- Logos&#45;&gt;igual al nomos divino único, o parte conocida del nomos divino único -->
<g id="edge45" class="edge">
<title>Logos&#45;&gt;igual al nomos divino único, o parte conocida del nomos divino único</title>
<path fill="none" stroke="black" d="M1313.21,-420.4C1334.59,-424.39 1364.08,-431.47 1388,-443 1406.01,-451.69 1405.39,-462.67 1424,-470 1429.44,-472.14 1435,-474.14 1440.64,-475.99"/>
<polygon fill="black" stroke="black" points="1439.63,-479.34 1450.22,-478.98 1441.72,-472.66 1439.63,-479.34"/>
</g>
<!-- Previene extralimitaciones -->
<g id="node20" class="node">
<title>Previene extralimitaciones</title>
<polygon fill="none" stroke="white" points="2262,-299 2054,-299 2054,-263 2262,-263 2262,-299"/>
<text text-anchor="middle" x="2158" y="-277.3" font-family="Times,serif" font-size="14.00">Previene extralimitaciones</text>
</g>
<!-- Multiplicidad de objetos armonica&#45;&gt;Previene extralimitaciones -->
<g id="edge19" class="edge">
<title>Multiplicidad de objetos armonica&#45;&gt;Previene extralimitaciones</title>
<path fill="none" stroke="black" d="M1807.31,-281C1880.99,-281 1972.47,-281 2043.37,-281"/>
<polygon fill="black" stroke="black" points="2043.68,-284.5 2053.68,-281 2043.68,-277.5 2043.68,-284.5"/>
</g>
<!-- Opositiva -->
<g id="node41" class="node">
<title>Opositiva</title>
<polygon fill="none" stroke="white" points="2200,-245 2116,-245 2116,-209 2200,-209 2200,-245"/>
<text text-anchor="middle" x="2158" y="-223.3" font-family="Times,serif" font-size="14.00">Opositiva</text>
</g>
<!-- Multiplicidad de objetos armonica&#45;&gt;Opositiva -->
<g id="edge40" class="edge">
<title>Multiplicidad de objetos armonica&#45;&gt;Opositiva</title>
<path fill="none" stroke="black" d="M1807.2,-267.45C1846.63,-263.24 1890.1,-258.51 1930,-254 1990.31,-247.18 2059.58,-238.87 2105.57,-233.29"/>
<polygon fill="black" stroke="black" points="2106.09,-236.75 2115.59,-232.07 2105.25,-229.8 2106.09,-236.75"/>
</g>
<!-- Justicia (dyke) es lucha -->
<g id="node46" class="node">
<title>Justicia (dyke) es lucha</title>
<polygon fill="none" stroke="white" points="2248.5,-353 2067.5,-353 2067.5,-317 2248.5,-317 2248.5,-353"/>
<text text-anchor="middle" x="2158" y="-331.3" font-family="Times,serif" font-size="14.00">Justicia (dyke) es lucha</text>
</g>
<!-- Multiplicidad de objetos armonica&#45;&gt;Justicia (dyke) es lucha -->
<g id="edge44" class="edge">
<title>Multiplicidad de objetos armonica&#45;&gt;Justicia (dyke) es lucha</title>
<path fill="none" stroke="black" d="M1807.2,-294.55C1846.63,-298.76 1890.1,-303.49 1930,-308 1971.72,-312.72 2017.72,-318.14 2057.34,-322.89"/>
<polygon fill="black" stroke="black" points="2056.92,-326.37 2067.27,-324.08 2057.76,-319.42 2056.92,-326.37"/>
</g>
<!-- Hybris (desmesura) -->
<g id="node42" class="node">
<title>Hybris (desmesura)</title>
<polygon fill="none" stroke="white" points="2592,-299 2434,-299 2434,-263 2592,-263 2592,-299"/>
<text text-anchor="middle" x="2513" y="-277.3" font-family="Times,serif" font-size="14.00">Hybris (desmesura)</text>
</g>
<!-- Previene extralimitaciones&#45;&gt;Hybris (desmesura) -->
<g id="edge41" class="edge">
<title>Previene extralimitaciones&#45;&gt;Hybris (desmesura)</title>
<path fill="none" stroke="black" d="M2262.05,-281C2313.25,-281 2374.49,-281 2423.54,-281"/>
<polygon fill="black" stroke="black" points="2423.81,-284.5 2433.81,-281 2423.81,-277.5 2423.81,-284.5"/>
</g>
<!-- Indirecto -->
<g id="node30" class="node">
<title>Indirecto</title>
<polygon fill="none" stroke="white" points="1324,-326 1243,-326 1243,-290 1324,-290 1324,-326"/>
<text text-anchor="middle" x="1283.5" y="-304.3" font-family="Times,serif" font-size="14.00">Indirecto</text>
</g>
<!-- “El señor del que hay en delfos un oráculo, no dice ni oculta; sólo da signos”&#45;&gt;Indirecto -->
<g id="edge29" class="edge">
<title>“El señor del que hay en delfos un oráculo, no dice ni oculta; sólo da signos”&#45;&gt;Indirecto</title>
<path fill="none" stroke="black" d="M1070.64,-308C1133.11,-308 1192.6,-308 1232.54,-308"/>
<polygon fill="black" stroke="black" points="1232.77,-311.5 1242.77,-308 1232.77,-304.5 1232.77,-311.5"/>
</g>
<!-- Estilo enigmático -->
<g id="node33" class="node">
<title>Estilo enigmático</title>
<polygon fill="none" stroke="white" points="1354,-272 1213,-272 1213,-236 1354,-236 1354,-272"/>
<text text-anchor="middle" x="1283.5" y="-250.3" font-family="Times,serif" font-size="14.00">Estilo enigmático</text>
</g>
<!-- “…cuantos vimos y atrapamos, tantos dejamos; cuantos no vimos ni atrapamos tantos llevamos”&#45;&gt;Estilo enigmático -->
<g id="edge32" class="edge">
<title>“…cuantos vimos y atrapamos, tantos dejamos; cuantos no vimos ni atrapamos tantos llevamos”&#45;&gt;Estilo enigmático</title>
<path fill="none" stroke="black" d="M1143.16,-254C1164.72,-254 1184.92,-254 1202.89,-254"/>
<polygon fill="black" stroke="black" points="1202.93,-257.5 1212.93,-254 1202.93,-250.5 1202.93,-257.5"/>
</g>
<!-- Gnoseología (teoría del conocimiento) -->
<g id="node34" class="node">
<title>Gnoseología (teoría del conocimiento)</title>
<polygon fill="none" stroke="white" points="1820,-63 1534,-63 1534,-27 1820,-27 1820,-63"/>
<text text-anchor="middle" x="1677" y="-41.3" font-family="Times,serif" font-size="14.00">Gnoseología (teoría del conocimiento)</text>
</g>
<!-- Estilo enigmático&#45;&gt;Gnoseología (teoría del conocimiento) -->
<g id="edge33" class="edge">
<title>Estilo enigmático&#45;&gt;Gnoseología (teoría del conocimiento)</title>
<path fill="none" stroke="black" d="M1354.12,-246.88C1366.75,-242.73 1378.8,-236.45 1388,-227 1437.33,-176.32 1371.05,-118.88 1424,-72 1451.33,-47.81 1487.4,-36.46 1523.69,-32.17"/>
<polygon fill="black" stroke="black" points="1524.32,-35.62 1533.92,-31.14 1523.62,-28.66 1524.32,-35.62"/>
</g>
<!--  &#160;uso de los sentidos -->
<g id="node35" class="node">
<title> &#160;uso de los sentidos</title>
<polygon fill="none" stroke="white" points="2238.5,-36 2077.5,-36 2077.5,0 2238.5,0 2238.5,-36"/>
<text text-anchor="middle" x="2158" y="-14.3" font-family="Times,serif" font-size="14.00"> &#160;uso de los sentidos</text>
</g>
<!-- Gnoseología (teoría del conocimiento)&#45;&gt; &#160;uso de los sentidos -->
<g id="edge34" class="edge">
<title>Gnoseología (teoría del conocimiento)&#45;&gt; &#160;uso de los sentidos</title>
<path fill="none" stroke="black" d="M1820.1,-36.99C1900.15,-32.48 1997.7,-26.98 2067.19,-23.06"/>
<polygon fill="black" stroke="black" points="2067.44,-26.55 2077.23,-22.5 2067.05,-19.56 2067.44,-26.55"/>
</g>
<!--  &#160;interpretación inteligente de los datos sensoriales -->
<g id="node36" class="node">
<title> &#160;interpretación inteligente de los datos sensoriales</title>
<polygon fill="none" stroke="white" points="2350,-90 1966,-90 1966,-54 2350,-54 2350,-90"/>
<text text-anchor="middle" x="2158" y="-68.3" font-family="Times,serif" font-size="14.00"> &#160;interpretación inteligente de los datos sensoriales</text>
</g>
<!-- Gnoseología (teoría del conocimiento)&#45;&gt; &#160;interpretación inteligente de los datos sensoriales -->
<g id="edge35" class="edge">
<title>Gnoseología (teoría del conocimiento)&#45;&gt; &#160;interpretación inteligente de los datos sensoriales</title>
<path fill="none" stroke="black" d="M1820.1,-53.01C1862.62,-55.41 1910.09,-58.08 1955.67,-60.65"/>
<polygon fill="black" stroke="black" points="1955.48,-64.15 1965.66,-61.21 1955.88,-57.16 1955.48,-64.15"/>
</g>
<!-- No alma bárbara -->
<g id="node37" class="node">
<title>No alma bárbara</title>
<polygon fill="none" stroke="white" points="2581.5,-90 2444.5,-90 2444.5,-54 2581.5,-54 2581.5,-90"/>
<text text-anchor="middle" x="2513" y="-68.3" font-family="Times,serif" font-size="14.00">No alma bárbara</text>
</g>
<!--  &#160;interpretación inteligente de los datos sensoriales&#45;&gt;No alma bárbara -->
<g id="edge36" class="edge">
<title> &#160;interpretación inteligente de los datos sensoriales&#45;&gt;No alma bárbara</title>
<path fill="none" stroke="black" d="M2350.22,-72C2379.89,-72 2408.99,-72 2434.16,-72"/>
<polygon fill="black" stroke="black" points="2434.32,-75.5 2444.32,-72 2434.32,-68.5 2434.32,-75.5"/>
</g>
<!-- La minoría de los hombres -->
<g id="node40" class="node">
<title>La minoría de los hombres</title>
<polygon fill="none" stroke="white" points="2919.5,-90 2713.5,-90 2713.5,-54 2919.5,-54 2919.5,-90"/>
<text text-anchor="middle" x="2816.5" y="-68.3" font-family="Times,serif" font-size="14.00">La minoría de los hombres</text>
</g>
<!-- No alma bárbara&#45;&gt;La minoría de los hombres -->
<g id="edge39" class="edge">
<title>No alma bárbara&#45;&gt;La minoría de los hombres</title>
<path fill="none" stroke="black" d="M2581.66,-72C2617.51,-72 2662.47,-72 2703.37,-72"/>
<polygon fill="black" stroke="black" points="2703.4,-75.5 2713.4,-72 2703.4,-68.5 2703.4,-75.5"/>
</g>
<!-- Estilo ambiguo -->
<g id="node39" class="node">
<title>Estilo ambiguo</title>
<polygon fill="none" stroke="white" points="1345.5,-218 1221.5,-218 1221.5,-182 1345.5,-182 1345.5,-218"/>
<text text-anchor="middle" x="1283.5" y="-196.3" font-family="Times,serif" font-size="14.00">Estilo ambiguo</text>
</g>
<!-- “aunque este logos existe siempre los hombres se vuelven incapaces de comprenderlo…”&#45;&gt;Estilo ambiguo -->
<g id="edge37" class="edge">
<title>“aunque este logos existe siempre los hombres se vuelven incapaces de comprenderlo…”&#45;&gt;Estilo ambiguo</title>
<path fill="none" stroke="black" d="M1117.64,-200C1152.21,-200 1184.37,-200 1210.94,-200"/>
<polygon fill="black" stroke="black" points="1211.22,-203.5 1221.22,-200 1211.22,-196.5 1211.22,-203.5"/>
</g>
<!-- Injusticia &#45; avasallamiento -->
<g id="node44" class="node">
<title>Injusticia &#45; avasallamiento</title>
<polygon fill="none" stroke="white" points="2918,-299 2715,-299 2715,-263 2918,-263 2918,-299"/>
<text text-anchor="middle" x="2816.5" y="-277.3" font-family="Times,serif" font-size="14.00">Injusticia &#45; avasallamiento</text>
</g>
<!-- Hybris (desmesura)&#45;&gt;Injusticia &#45; avasallamiento -->
<g id="edge42" class="edge">
<title>Hybris (desmesura)&#45;&gt;Injusticia &#45; avasallamiento</title>
<path fill="none" stroke="black" d="M2592.04,-281C2626.25,-281 2667.02,-281 2704.32,-281"/>
<polygon fill="black" stroke="black" points="2704.74,-284.5 2714.74,-281 2704.74,-277.5 2704.74,-284.5"/>
</g>
<!-- Injusticia &#45; avallasamiento -->
<g id="node43" class="node">
<title>Injusticia &#45; avallasamiento</title>
<polygon fill="none" stroke="white" points="203,-461 0,-461 0,-425 203,-425 203,-461"/>
<text text-anchor="middle" x="101.5" y="-439.3" font-family="Times,serif" font-size="14.00">Injusticia &#45; avallasamiento</text>
</g>
<!-- igual al nomos divino único, o parte conocida del nomos divino único&#45;&gt;Nomos divino unico -->
<g id="edge49" class="edge">
<title>igual al nomos divino único, o parte conocida del nomos divino único&#45;&gt;Nomos divino unico</title>
<path fill="none" stroke="black" d="M1906.7,-515C1914.66,-517.68 1922.45,-520.67 1930,-524 2020.71,-564.04 2100.82,-653.98 2136.83,-698.71"/>
<polygon fill="black" stroke="black" points="2134.27,-701.11 2143.23,-706.76 2139.75,-696.76 2134.27,-701.11"/>
</g>
</g>
</svg>
