<?xml version="1.0" encoding="UTF-8" standalone="no"?>
<!DOCTYPE svg PUBLIC "-//W3C//DTD SVG 1.1//EN"
 "http://www.w3.org/Graphics/SVG/1.1/DTD/svg11.dtd">
<!-- Generated by graphviz version 2.43.0 (0)
 -->
<!-- Title: %3 Pages: 1 -->
<svg width="1146pt" height="260pt"
 viewBox="0.00 0.00 1146.00 260.00" xmlns="http://www.w3.org/2000/svg" xmlns:xlink="http://www.w3.org/1999/xlink">
<g id="graph0" class="graph" transform="scale(1 1) rotate(0) translate(4 256)">
<title>%3</title>
<polygon fill="white" stroke="transparent" points="-4,4 -4,-256 1142,-256 1142,4 -4,4"/>
<!-- Fundación -->
<g id="node1" class="node">
<title>Fundación</title>
<polygon fill="none" stroke="white" points="91,-144 0,-144 0,-108 91,-108 91,-144"/>
<text text-anchor="middle" x="45.5" y="-122.3" font-family="Times,serif" font-size="14.00">Fundación</text>
</g>
<!-- Rómulo y Remo -->
<g id="node2" class="node">
<title>Rómulo y Remo</title>
<polygon fill="none" stroke="white" points="255,-144 127,-144 127,-108 255,-108 255,-144"/>
<text text-anchor="middle" x="191" y="-122.3" font-family="Times,serif" font-size="14.00">Rómulo y Remo</text>
</g>
<!-- Fundación&#45;&gt;Rómulo y Remo -->
<g id="edge1" class="edge">
<title>Fundación&#45;&gt;Rómulo y Remo</title>
<path fill="none" stroke="black" d="M91.12,-126C99.28,-126 107.99,-126 116.73,-126"/>
<polygon fill="black" stroke="black" points="116.97,-129.5 126.97,-126 116.97,-122.5 116.97,-129.5"/>
</g>
<!-- Hijo de Marte -->
<g id="node3" class="node">
<title>Hijo de Marte</title>
<polygon fill="none" stroke="white" points="629,-252 513,-252 513,-216 629,-216 629,-252"/>
<text text-anchor="middle" x="571" y="-230.3" font-family="Times,serif" font-size="14.00">Hijo de Marte</text>
</g>
<!-- Rómulo y Remo&#45;&gt;Hijo de Marte -->
<g id="edge2" class="edge">
<title>Rómulo y Remo&#45;&gt;Hijo de Marte</title>
<path fill="none" stroke="black" d="M207.79,-144.13C225.79,-163.42 257.12,-193.03 291,-207 359.22,-235.13 444.52,-239.41 502.72,-238.22"/>
<polygon fill="black" stroke="black" points="503,-241.72 512.91,-237.95 502.82,-234.72 503,-241.72"/>
</g>
<!-- Hijo de Rea Silvia -->
<g id="node4" class="node">
<title>Hijo de Rea Silvia</title>
<polygon fill="none" stroke="white" points="642.5,-198 499.5,-198 499.5,-162 642.5,-162 642.5,-198"/>
<text text-anchor="middle" x="571" y="-176.3" font-family="Times,serif" font-size="14.00">Hijo de Rea Silvia</text>
</g>
<!-- Rómulo y Remo&#45;&gt;Hijo de Rea Silvia -->
<g id="edge3" class="edge">
<title>Rómulo y Remo&#45;&gt;Hijo de Rea Silvia</title>
<path fill="none" stroke="black" d="M251.57,-144C264.48,-147.41 278.12,-150.64 291,-153 357.13,-165.13 433.13,-172.03 489.1,-175.81"/>
<polygon fill="black" stroke="black" points="489.1,-179.32 499.31,-176.48 489.56,-172.33 489.1,-179.32"/>
</g>
<!-- Amulio ordena matar -->
<g id="node5" class="node">
<title>Amulio ordena matar</title>
<polygon fill="none" stroke="white" points="654.5,-144 487.5,-144 487.5,-108 654.5,-108 654.5,-144"/>
<text text-anchor="middle" x="571" y="-122.3" font-family="Times,serif" font-size="14.00">Amulio ordena matar</text>
</g>
<!-- Rómulo y Remo&#45;&gt;Amulio ordena matar -->
<g id="edge4" class="edge">
<title>Rómulo y Remo&#45;&gt;Amulio ordena matar</title>
<path fill="none" stroke="black" d="M255.27,-126C315.97,-126 408.32,-126 477.32,-126"/>
<polygon fill="black" stroke="black" points="477.32,-129.5 487.32,-126 477.32,-122.5 477.32,-129.5"/>
</g>
<!-- Deciden fundar una ciudad -->
<g id="node6" class="node">
<title>Deciden fundar una ciudad</title>
<polygon fill="none" stroke="white" points="675.5,-90 466.5,-90 466.5,-54 675.5,-54 675.5,-90"/>
<text text-anchor="middle" x="571" y="-68.3" font-family="Times,serif" font-size="14.00">Deciden fundar una ciudad</text>
</g>
<!-- Rómulo y Remo&#45;&gt;Deciden fundar una ciudad -->
<g id="edge5" class="edge">
<title>Rómulo y Remo&#45;&gt;Deciden fundar una ciudad</title>
<path fill="none" stroke="black" d="M251.57,-108C264.48,-104.59 278.12,-101.36 291,-99 344.96,-89.1 405.5,-82.69 456.36,-78.61"/>
<polygon fill="black" stroke="black" points="456.7,-82.09 466.4,-77.82 456.16,-75.11 456.7,-82.09"/>
</g>
<!-- Abandonados en el Tíber, cuidados por una loba, rescatados por un granjero -->
<g id="node8" class="node">
<title>Abandonados en el Tíber, cuidados por una loba, rescatados por un granjero</title>
<polygon fill="none" stroke="white" points="851,-36 291,-36 291,0 851,0 851,-36"/>
<text text-anchor="middle" x="571" y="-14.3" font-family="Times,serif" font-size="14.00">Abandonados en el Tíber, cuidados por una loba, rescatados por un granjero</text>
</g>
<!-- Rómulo y Remo&#45;&gt;Abandonados en el Tíber, cuidados por una loba, rescatados por un granjero -->
<g id="edge7" class="edge">
<title>Rómulo y Remo&#45;&gt;Abandonados en el Tíber, cuidados por una loba, rescatados por un granjero</title>
<path fill="none" stroke="black" d="M207.79,-107.87C225.79,-88.58 257.12,-58.97 291,-45 295.87,-42.99 300.82,-41.11 305.84,-39.34"/>
<polygon fill="black" stroke="black" points="307.22,-42.57 315.59,-36.07 304.99,-35.93 307.22,-42.57"/>
</g>
<!-- Rómulo mata a Remo -->
<g id="node7" class="node">
<title>Rómulo mata a Remo</title>
<polygon fill="none" stroke="white" points="1097,-144 928,-144 928,-108 1097,-108 1097,-144"/>
<text text-anchor="middle" x="1012.5" y="-122.3" font-family="Times,serif" font-size="14.00">Rómulo mata a Remo</text>
</g>
<!-- Deciden fundar una ciudad&#45;&gt;Rómulo mata a Remo -->
<g id="edge6" class="edge">
<title>Deciden fundar una ciudad&#45;&gt;Rómulo mata a Remo</title>
<path fill="none" stroke="black" d="M675.55,-80.28C728.19,-84.93 793.11,-91.34 851,-99 872.74,-101.88 896.05,-105.49 917.98,-109.13"/>
<polygon fill="black" stroke="black" points="917.51,-112.6 927.95,-110.8 918.67,-105.7 917.51,-112.6"/>
</g>
<!-- Protección de la distancia al mar -->
<g id="node9" class="node">
<title>Protección de la distancia al mar</title>
<polygon fill="none" stroke="white" points="1138,-90 887,-90 887,-54 1138,-54 1138,-90"/>
<text text-anchor="middle" x="1012.5" y="-68.3" font-family="Times,serif" font-size="14.00">Protección de la distancia al mar</text>
</g>
<!-- Deciden fundar una ciudad&#45;&gt;Protección de la distancia al mar -->
<g id="edge8" class="edge">
<title>Deciden fundar una ciudad&#45;&gt;Protección de la distancia al mar</title>
<path fill="none" stroke="black" d="M675.6,-72C735.58,-72 811.77,-72 876.41,-72"/>
<polygon fill="black" stroke="black" points="876.68,-75.5 886.68,-72 876.68,-68.5 876.68,-75.5"/>
</g>
<!-- Rapto de las sabinas -->
<g id="node10" class="node">
<title>Rapto de las sabinas</title>
<polygon fill="none" stroke="white" points="1094.5,-36 930.5,-36 930.5,0 1094.5,0 1094.5,-36"/>
<text text-anchor="middle" x="1012.5" y="-14.3" font-family="Times,serif" font-size="14.00">Rapto de las sabinas</text>
</g>
<!-- Deciden fundar una ciudad&#45;&gt;Rapto de las sabinas -->
<g id="edge9" class="edge">
<title>Deciden fundar una ciudad&#45;&gt;Rapto de las sabinas</title>
<path fill="none" stroke="black" d="M675.55,-63.72C728.19,-59.07 793.11,-52.66 851,-45 873.57,-42.01 897.83,-38.23 920.49,-34.45"/>
<polygon fill="black" stroke="black" points="921.15,-37.89 930.43,-32.78 919.99,-30.99 921.15,-37.89"/>
</g>
</g>
</svg>
