<?xml version="1.0" encoding="UTF-8" standalone="no"?>
<!DOCTYPE svg PUBLIC "-//W3C//DTD SVG 1.1//EN"
 "http://www.w3.org/Graphics/SVG/1.1/DTD/svg11.dtd">
<!-- Generated by graphviz version 2.43.0 (0)
 -->
<!-- Title: %3 Pages: 1 -->
<svg width="786pt" height="422pt"
 viewBox="0.00 0.00 786.00 422.00" xmlns="http://www.w3.org/2000/svg" xmlns:xlink="http://www.w3.org/1999/xlink">
<g id="graph0" class="graph" transform="scale(1 1) rotate(0) translate(4 418)">
<title>%3</title>
<polygon fill="white" stroke="transparent" points="-4,4 -4,-418 782,-418 782,4 -4,4"/>
<!-- Rey (Rex) -->
<g id="node1" class="node">
<title>Rey (Rex)</title>
<polygon fill="none" stroke="white" points="183.5,-171 97.5,-171 97.5,-135 183.5,-135 183.5,-171"/>
<text text-anchor="middle" x="140.5" y="-149.3" font-family="Times,serif" font-size="14.00">Rey (Rex)</text>
</g>
<!-- Funciones religiosas -->
<g id="node4" class="node">
<title>Funciones religiosas</title>
<polygon fill="none" stroke="blue" points="515.5,-306 352.5,-306 352.5,-270 515.5,-270 515.5,-306"/>
<text text-anchor="middle" x="434" y="-284.3" font-family="Times,serif" font-size="14.00">Funciones religiosas</text>
</g>
<!-- Rey (Rex)&#45;&gt;Funciones religiosas -->
<g id="edge1" class="edge">
<title>Rey (Rex)&#45;&gt;Funciones religiosas</title>
<path fill="none" stroke="black" d="M165.14,-171.03C197.65,-194.99 258.77,-237.05 317,-261 325.13,-264.34 333.75,-267.32 342.49,-269.96"/>
<polygon fill="black" stroke="black" points="341.8,-273.4 352.38,-272.8 343.73,-266.68 341.8,-273.4"/>
</g>
<!-- Funciones Políticas -->
<g id="node5" class="node">
<title>Funciones Políticas</title>
<polygon fill="none" stroke="blue" points="511,-252 357,-252 357,-216 511,-216 511,-252"/>
<text text-anchor="middle" x="434" y="-230.3" font-family="Times,serif" font-size="14.00">Funciones Políticas</text>
</g>
<!-- Rey (Rex)&#45;&gt;Funciones Políticas -->
<g id="edge2" class="edge">
<title>Rey (Rex)&#45;&gt;Funciones Políticas</title>
<path fill="none" stroke="black" d="M183.81,-166.93C219.21,-178.36 271.14,-194.62 317,-207 326.76,-209.63 337.02,-212.25 347.23,-214.75"/>
<polygon fill="black" stroke="black" points="346.45,-218.16 357,-217.11 348.1,-211.36 346.45,-218.16"/>
</g>
<!-- Funciones Militares -->
<g id="node6" class="node">
<title>Funciones Militares</title>
<polygon fill="none" stroke="blue" points="513,-198 355,-198 355,-162 513,-162 513,-198"/>
<text text-anchor="middle" x="434" y="-176.3" font-family="Times,serif" font-size="14.00">Funciones Militares</text>
</g>
<!-- Rey (Rex)&#45;&gt;Funciones Militares -->
<g id="edge3" class="edge">
<title>Rey (Rex)&#45;&gt;Funciones Militares</title>
<path fill="none" stroke="black" d="M183.58,-156.9C225.49,-160.78 291.13,-166.86 344.56,-171.81"/>
<polygon fill="black" stroke="black" points="344.44,-175.31 354.72,-172.75 345.09,-168.34 344.44,-175.31"/>
</g>
<!-- Funciones Judiciales -->
<g id="node7" class="node">
<title>Funciones Judiciales</title>
<polygon fill="none" stroke="blue" points="515,-144 353,-144 353,-108 515,-108 515,-144"/>
<text text-anchor="middle" x="434" y="-122.3" font-family="Times,serif" font-size="14.00">Funciones Judiciales</text>
</g>
<!-- Rey (Rex)&#45;&gt;Funciones Judiciales -->
<g id="edge4" class="edge">
<title>Rey (Rex)&#45;&gt;Funciones Judiciales</title>
<path fill="none" stroke="black" d="M183.58,-149.1C225.05,-145.26 289.74,-139.27 342.85,-134.35"/>
<polygon fill="black" stroke="black" points="343.33,-137.82 352.97,-133.41 342.69,-130.85 343.33,-137.82"/>
</g>
<!-- Elegido por el pueblo -->
<g id="node10" class="node">
<title>Elegido por el pueblo</title>
<polygon fill="none" stroke="white" points="518.5,-90 349.5,-90 349.5,-54 518.5,-54 518.5,-90"/>
<text text-anchor="middle" x="434" y="-68.3" font-family="Times,serif" font-size="14.00">Elegido por el pueblo</text>
</g>
<!-- Rey (Rex)&#45;&gt;Elegido por el pueblo -->
<g id="edge7" class="edge">
<title>Rey (Rex)&#45;&gt;Elegido por el pueblo</title>
<path fill="none" stroke="black" d="M183.81,-139.07C219.21,-127.64 271.14,-111.38 317,-99 325.27,-96.77 333.9,-94.55 342.55,-92.41"/>
<polygon fill="black" stroke="black" points="343.44,-95.79 352.32,-90.01 341.77,-88.99 343.44,-95.79"/>
</g>
<!-- Cargo vitalicio no hereditario -->
<g id="node12" class="node">
<title>Cargo vitalicio no hereditario</title>
<polygon fill="none" stroke="white" points="547,-36 321,-36 321,0 547,0 547,-36"/>
<text text-anchor="middle" x="434" y="-14.3" font-family="Times,serif" font-size="14.00">Cargo vitalicio no hereditario</text>
</g>
<!-- Rey (Rex)&#45;&gt;Cargo vitalicio no hereditario -->
<g id="edge9" class="edge">
<title>Rey (Rex)&#45;&gt;Cargo vitalicio no hereditario</title>
<path fill="none" stroke="black" d="M165.14,-134.97C197.65,-111.01 258.77,-68.95 317,-45 322.08,-42.91 327.35,-40.96 332.73,-39.15"/>
<polygon fill="black" stroke="black" points="334.03,-42.41 342.49,-36.04 331.9,-35.75 334.03,-42.41"/>
</g>
<!-- Senatus (Senado) -->
<g id="node2" class="node">
<title>Senatus (Senado)</title>
<polygon fill="none" stroke="white" points="211.5,-360 69.5,-360 69.5,-324 211.5,-324 211.5,-360"/>
<text text-anchor="middle" x="140.5" y="-338.3" font-family="Times,serif" font-size="14.00">Senatus (Senado)</text>
</g>
<!-- Cuerpo consultivo de ancianos -->
<g id="node13" class="node">
<title>Cuerpo consultivo de ancianos</title>
<polygon fill="none" stroke="white" points="551,-360 317,-360 317,-324 551,-324 551,-360"/>
<text text-anchor="middle" x="434" y="-338.3" font-family="Times,serif" font-size="14.00">Cuerpo consultivo de ancianos</text>
</g>
<!-- Senatus (Senado)&#45;&gt;Cuerpo consultivo de ancianos -->
<g id="edge10" class="edge">
<title>Senatus (Senado)&#45;&gt;Cuerpo consultivo de ancianos</title>
<path fill="none" stroke="black" d="M211.69,-342C240.24,-342 274.14,-342 306.71,-342"/>
<polygon fill="black" stroke="black" points="306.77,-345.5 316.77,-342 306.77,-338.5 306.77,-345.5"/>
</g>
<!-- Comitia Curita (Comicios por Curias) -->
<g id="node3" class="node">
<title>Comitia Curita (Comicios por Curias)</title>
<polygon fill="none" stroke="white" points="281,-414 0,-414 0,-378 281,-378 281,-414"/>
<text text-anchor="middle" x="140.5" y="-392.3" font-family="Times,serif" font-size="14.00">Comitia Curita (Comicios por Curias)</text>
</g>
<!-- Comicios por cabeza -->
<g id="node15" class="node">
<title>Comicios por cabeza</title>
<polygon fill="none" stroke="white" points="515.5,-414 352.5,-414 352.5,-378 515.5,-378 515.5,-414"/>
<text text-anchor="middle" x="434" y="-392.3" font-family="Times,serif" font-size="14.00">Comicios por cabeza</text>
</g>
<!-- Comitia Curita (Comicios por Curias)&#45;&gt;Comicios por cabeza -->
<g id="edge12" class="edge">
<title>Comitia Curita (Comicios por Curias)&#45;&gt;Comicios por cabeza</title>
<path fill="none" stroke="black" d="M281.27,-396C302.05,-396 322.99,-396 342.41,-396"/>
<polygon fill="black" stroke="black" points="342.41,-399.5 352.41,-396 342.41,-392.5 342.41,-399.5"/>
</g>
<!-- Sacerdote supremo -->
<g id="node8" class="node">
<title>Sacerdote supremo</title>
<polygon fill="none" stroke="white" points="760,-306 605,-306 605,-270 760,-270 760,-306"/>
<text text-anchor="middle" x="682.5" y="-284.3" font-family="Times,serif" font-size="14.00">Sacerdote supremo</text>
</g>
<!-- Funciones religiosas&#45;&gt;Sacerdote supremo -->
<g id="edge6" class="edge">
<title>Funciones religiosas&#45;&gt;Sacerdote supremo</title>
<path fill="none" stroke="black" d="M515.71,-288C541,-288 569.01,-288 594.7,-288"/>
<polygon fill="black" stroke="black" points="594.79,-291.5 604.79,-288 594.79,-284.5 594.79,-291.5"/>
</g>
<!-- Comandante en jefe -->
<g id="node9" class="node">
<title>Comandante en jefe</title>
<polygon fill="none" stroke="white" points="762,-198 603,-198 603,-162 762,-162 762,-198"/>
<text text-anchor="middle" x="682.5" y="-176.3" font-family="Times,serif" font-size="14.00">Comandante en jefe</text>
</g>
<!-- Funciones Militares&#45;&gt;Comandante en jefe -->
<g id="edge5" class="edge">
<title>Funciones Militares&#45;&gt;Comandante en jefe</title>
<path fill="none" stroke="black" d="M513.33,-180C538.6,-180 566.78,-180 592.74,-180"/>
<polygon fill="black" stroke="black" points="592.95,-183.5 602.95,-180 592.95,-176.5 592.95,-183.5"/>
</g>
<!-- Ratificado por el Senado -->
<g id="node11" class="node">
<title>Ratificado por el Senado</title>
<polygon fill="none" stroke="white" points="778,-90 587,-90 587,-54 778,-54 778,-90"/>
<text text-anchor="middle" x="682.5" y="-68.3" font-family="Times,serif" font-size="14.00">Ratificado por el Senado</text>
</g>
<!-- Elegido por el pueblo&#45;&gt;Ratificado por el Senado -->
<g id="edge8" class="edge">
<title>Elegido por el pueblo&#45;&gt;Ratificado por el Senado</title>
<path fill="none" stroke="black" d="M518.8,-72C537.46,-72 557.47,-72 576.85,-72"/>
<polygon fill="black" stroke="black" points="576.91,-75.5 586.91,-72 576.91,-68.5 576.91,-75.5"/>
</g>
<!-- Paters Familias -->
<g id="node14" class="node">
<title>Paters Familias</title>
<polygon fill="none" stroke="white" points="746,-360 619,-360 619,-324 746,-324 746,-360"/>
<text text-anchor="middle" x="682.5" y="-338.3" font-family="Times,serif" font-size="14.00">Paters Familias</text>
</g>
<!-- Cuerpo consultivo de ancianos&#45;&gt;Paters Familias -->
<g id="edge11" class="edge">
<title>Cuerpo consultivo de ancianos&#45;&gt;Paters Familias</title>
<path fill="none" stroke="black" d="M551.03,-342C570.64,-342 590.5,-342 608.6,-342"/>
<polygon fill="black" stroke="black" points="608.76,-345.5 618.76,-342 608.76,-338.5 608.76,-345.5"/>
</g>
</g>
</svg>
