<?xml version="1.0" encoding="UTF-8" standalone="no"?>
<!DOCTYPE svg PUBLIC "-//W3C//DTD SVG 1.1//EN"
 "http://www.w3.org/Graphics/SVG/1.1/DTD/svg11.dtd">
<!-- Generated by graphviz version 2.43.0 (0)
 -->
<!-- Title: %3 Pages: 1 -->
<svg width="1274pt" height="379pt"
 viewBox="0.00 0.00 1274.00 379.00" xmlns="http://www.w3.org/2000/svg" xmlns:xlink="http://www.w3.org/1999/xlink">
<g id="graph0" class="graph" transform="scale(1 1) rotate(0) translate(4 375)">
<title>%3</title>
<polygon fill="white" stroke="transparent" points="-4,4 -4,-375 1270,-375 1270,4 -4,4"/>
<!-- Patricios -->
<g id="node1" class="node">
<title>Patricios</title>
<polygon fill="none" stroke="white" points="455,-244 376,-244 376,-208 455,-208 455,-244"/>
<text text-anchor="middle" x="415.5" y="-222.3" font-family="Times,serif" font-size="14.00">Patricios</text>
</g>
<!-- Nobleza -->
<g id="node3" class="node">
<title>Nobleza</title>
<polygon fill="none" stroke="white" points="683.5,-290 609.5,-290 609.5,-254 683.5,-254 683.5,-290"/>
<text text-anchor="middle" x="646.5" y="-268.3" font-family="Times,serif" font-size="14.00">Nobleza</text>
</g>
<!-- Patricios&#45;&gt;Nobleza -->
<g id="edge1" class="edge">
<title>Patricios&#45;&gt;Nobleza</title>
<path fill="none" stroke="black" d="M455.09,-233.75C494.89,-241.75 556.97,-254.22 599.34,-262.73"/>
<polygon fill="black" stroke="black" points="598.91,-266.21 609.4,-264.75 600.29,-259.35 598.91,-266.21"/>
</g>
<!-- Clientes -->
<g id="node9" class="node">
<title>Clientes</title>
<polygon fill="none" stroke="white" points="684,-198 609,-198 609,-162 684,-162 684,-198"/>
<text text-anchor="middle" x="646.5" y="-176.3" font-family="Times,serif" font-size="14.00">Clientes</text>
</g>
<!-- Patricios&#45;&gt;Clientes -->
<g id="edge10" class="edge">
<title>Patricios&#45;&gt;Clientes</title>
<path fill="none" stroke="blue" d="M455.09,-218.25C494.65,-210.3 556.23,-197.93 598.59,-189.42"/>
<polygon fill="blue" stroke="blue" points="599.54,-192.8 608.65,-187.4 598.16,-185.94 599.54,-192.8"/>
</g>
<!-- Pueblo Romano -->
<g id="node10" class="node">
<title>Pueblo Romano</title>
<polygon fill="none" stroke="white" points="924.5,-221 796.5,-221 796.5,-185 924.5,-185 924.5,-221"/>
<text text-anchor="middle" x="860.5" y="-199.3" font-family="Times,serif" font-size="14.00">Pueblo Romano</text>
</g>
<!-- Patricios&#45;&gt;Pueblo Romano -->
<g id="edge12" class="edge">
<title>Patricios&#45;&gt;Pueblo Romano</title>
<path fill="none" stroke="black" d="M455.04,-224C528.87,-220.17 691.33,-211.73 786.36,-206.8"/>
<polygon fill="black" stroke="black" points="786.67,-210.29 796.47,-206.27 786.31,-203.3 786.67,-210.29"/>
</g>
<!-- 3 tribus -->
<g id="node13" class="node">
<title>3 tribus</title>
<polygon fill="none" stroke="white" points="683,-344 610,-344 610,-308 683,-308 683,-344"/>
<text text-anchor="middle" x="646.5" y="-322.3" font-family="Times,serif" font-size="14.00">3 tribus</text>
</g>
<!-- Patricios&#45;&gt;3 tribus -->
<g id="edge17" class="edge">
<title>Patricios&#45;&gt;3 tribus</title>
<path fill="none" stroke="black" d="M443.3,-244.1C468.41,-260.38 507.43,-283.97 544,-299 561.62,-306.24 581.77,-312.07 599.44,-316.43"/>
<polygon fill="black" stroke="black" points="598.99,-319.92 609.53,-318.83 600.61,-313.11 598.99,-319.92"/>
</g>
<!-- Plebeyos -->
<g id="node2" class="node">
<title>Plebeyos</title>
<polygon fill="none" stroke="white" points="455.5,-144 375.5,-144 375.5,-108 455.5,-108 455.5,-144"/>
<text text-anchor="middle" x="415.5" y="-122.3" font-family="Times,serif" font-size="14.00">Plebeyos</text>
</g>
<!-- No tenían derechos civiles -->
<g id="node8" class="node">
<title>No tenían derechos civiles</title>
<polygon fill="none" stroke="white" points="749,-90 544,-90 544,-54 749,-54 749,-90"/>
<text text-anchor="middle" x="646.5" y="-68.3" font-family="Times,serif" font-size="14.00">No tenían derechos civiles</text>
</g>
<!-- Plebeyos&#45;&gt;No tenían derechos civiles -->
<g id="edge7" class="edge">
<title>Plebeyos&#45;&gt;No tenían derechos civiles</title>
<path fill="none" stroke="black" d="M455.61,-116.78C483.98,-110.09 523.47,-100.77 559.1,-92.37"/>
<polygon fill="black" stroke="black" points="560.1,-95.73 569.03,-90.03 558.5,-88.92 560.1,-95.73"/>
</g>
<!-- Plebeyos&#45;&gt;Clientes -->
<g id="edge9" class="edge">
<title>Plebeyos&#45;&gt;Clientes</title>
<path fill="none" stroke="black" d="M455.61,-135.22C495.34,-144.59 556.89,-159.1 599.07,-169.05"/>
<polygon fill="black" stroke="black" points="598.29,-172.46 608.83,-171.35 599.9,-165.65 598.29,-172.46"/>
</g>
<!-- Libertos -->
<g id="node18" class="node">
<title>Libertos</title>
<polygon fill="none" stroke="white" points="684.5,-144 608.5,-144 608.5,-108 684.5,-108 684.5,-144"/>
<text text-anchor="middle" x="646.5" y="-122.3" font-family="Times,serif" font-size="14.00">Libertos</text>
</g>
<!-- Plebeyos&#45;&gt;Libertos -->
<g id="edge21" class="edge">
<title>Plebeyos&#45;&gt;Libertos</title>
<path fill="none" stroke="red" d="M455.61,-126C495.14,-126 556.26,-126 598.43,-126"/>
<polygon fill="red" stroke="red" points="598.45,-129.5 608.45,-126 598.45,-122.5 598.45,-129.5"/>
</g>
<!-- Ciudadanos libres -->
<g id="node4" class="node">
<title>Ciudadanos libres</title>
<polygon fill="none" stroke="white" points="274.5,-144 129.5,-144 129.5,-108 274.5,-108 274.5,-144"/>
<text text-anchor="middle" x="202" y="-122.3" font-family="Times,serif" font-size="14.00">Ciudadanos libres</text>
</g>
<!-- Ciudadanos libres&#45;&gt;Patricios -->
<g id="edge2" class="edge">
<title>Ciudadanos libres&#45;&gt;Patricios</title>
<path fill="none" stroke="black" d="M241.3,-144.11C276.53,-160.76 328.89,-185.52 366.82,-203.45"/>
<polygon fill="black" stroke="black" points="365.59,-206.75 376.13,-207.86 368.58,-200.42 365.59,-206.75"/>
</g>
<!-- Ciudadanos libres&#45;&gt;Plebeyos -->
<g id="edge3" class="edge">
<title>Ciudadanos libres&#45;&gt;Plebeyos</title>
<path fill="none" stroke="black" d="M274.6,-126C304.33,-126 338.09,-126 365,-126"/>
<polygon fill="black" stroke="black" points="365.33,-129.5 375.33,-126 365.33,-122.5 365.33,-129.5"/>
</g>
<!-- Sociedad -->
<g id="node5" class="node">
<title>Sociedad</title>
<polygon fill="none" stroke="white" points="81,-90 0,-90 0,-54 81,-54 81,-90"/>
<text text-anchor="middle" x="40.5" y="-68.3" font-family="Times,serif" font-size="14.00">Sociedad</text>
</g>
<!-- Sociedad&#45;&gt;Ciudadanos libres -->
<g id="edge5" class="edge">
<title>Sociedad&#45;&gt;Ciudadanos libres</title>
<path fill="none" stroke="black" d="M81.38,-86.54C92.85,-90.64 105.4,-95.06 117,-99 122.58,-100.89 128.37,-102.83 134.19,-104.74"/>
<polygon fill="black" stroke="black" points="133.39,-108.16 143.98,-107.95 135.57,-101.51 133.39,-108.16"/>
</g>
<!-- Ciudadanos No libres -->
<g id="node6" class="node">
<title>Ciudadanos No libres</title>
<polygon fill="none" stroke="white" points="287,-90 117,-90 117,-54 287,-54 287,-90"/>
<text text-anchor="middle" x="202" y="-68.3" font-family="Times,serif" font-size="14.00">Ciudadanos No libres</text>
</g>
<!-- Sociedad&#45;&gt;Ciudadanos No libres -->
<g id="edge4" class="edge">
<title>Sociedad&#45;&gt;Ciudadanos No libres</title>
<path fill="none" stroke="black" d="M81.34,-72C89.25,-72 97.86,-72 106.73,-72"/>
<polygon fill="black" stroke="black" points="106.82,-75.5 116.82,-72 106.82,-68.5 106.82,-75.5"/>
</g>
<!-- Rey -->
<g id="node11" class="node">
<title>Rey</title>
<polygon fill="none" stroke="white" points="229,-36 175,-36 175,0 229,0 229,-36"/>
<text text-anchor="middle" x="202" y="-14.3" font-family="Times,serif" font-size="14.00">Rey</text>
</g>
<!-- Sociedad&#45;&gt;Rey -->
<g id="edge13" class="edge">
<title>Sociedad&#45;&gt;Rey</title>
<path fill="none" stroke="black" d="M81.38,-57.46C92.85,-53.36 105.4,-48.94 117,-45 132.67,-39.68 150.08,-34.04 164.97,-29.3"/>
<polygon fill="black" stroke="black" points="166.35,-32.53 174.82,-26.17 164.23,-25.86 166.35,-32.53"/>
</g>
<!-- Esclavos -->
<g id="node7" class="node">
<title>Esclavos</title>
<polygon fill="none" stroke="white" points="455,-90 376,-90 376,-54 455,-54 455,-90"/>
<text text-anchor="middle" x="415.5" y="-68.3" font-family="Times,serif" font-size="14.00">Esclavos</text>
</g>
<!-- Ciudadanos No libres&#45;&gt;Esclavos -->
<g id="edge6" class="edge">
<title>Ciudadanos No libres&#45;&gt;Esclavos</title>
<path fill="none" stroke="black" d="M287.2,-72C313.77,-72 342.24,-72 365.5,-72"/>
<polygon fill="black" stroke="black" points="365.8,-75.5 375.8,-72 365.8,-68.5 365.8,-75.5"/>
</g>
<!-- Esclavos&#45;&gt;No tenían derechos civiles -->
<g id="edge8" class="edge">
<title>Esclavos&#45;&gt;No tenían derechos civiles</title>
<path fill="none" stroke="black" d="M455.09,-72C476.77,-72 505.07,-72 533.18,-72"/>
<polygon fill="black" stroke="black" points="533.52,-75.5 543.52,-72 533.52,-68.5 533.52,-75.5"/>
</g>
<!-- Esclavos&#45;&gt;Libertos -->
<g id="edge20" class="edge">
<title>Esclavos&#45;&gt;Libertos</title>
<path fill="none" stroke="black" d="M455.09,-81.1C494.62,-90.42 556.13,-104.92 598.48,-114.91"/>
<polygon fill="black" stroke="black" points="597.74,-118.33 608.27,-117.22 599.35,-111.52 597.74,-118.33"/>
</g>
<!-- Propiedad animada -->
<g id="node19" class="node">
<title>Propiedad animada</title>
<polygon fill="none" stroke="white" points="724,-36 569,-36 569,0 724,0 724,-36"/>
<text text-anchor="middle" x="646.5" y="-14.3" font-family="Times,serif" font-size="14.00">Propiedad animada</text>
</g>
<!-- Esclavos&#45;&gt;Propiedad animada -->
<g id="edge22" class="edge">
<title>Esclavos&#45;&gt;Propiedad animada</title>
<path fill="none" stroke="black" d="M455.09,-62.9C483.4,-56.22 522.98,-46.89 558.73,-38.46"/>
<polygon fill="black" stroke="black" points="559.77,-41.81 568.7,-36.11 558.16,-35 559.77,-41.81"/>
</g>
<!-- Clientes&#45;&gt;Pueblo Romano -->
<g id="edge11" class="edge">
<title>Clientes&#45;&gt;Pueblo Romano</title>
<path fill="none" stroke="black" d="M684.43,-184.01C712.5,-187.05 752.02,-191.34 786.41,-195.07"/>
<polygon fill="black" stroke="black" points="786.11,-198.56 796.43,-196.16 786.87,-191.6 786.11,-198.56"/>
</g>
<!-- Elección y confirmación -->
<g id="node12" class="node">
<title>Elección y confirmación</title>
<polygon fill="none" stroke="white" points="508,-36 323,-36 323,0 508,0 508,-36"/>
<text text-anchor="middle" x="415.5" y="-14.3" font-family="Times,serif" font-size="14.00">Elección y confirmación</text>
</g>
<!-- Rey&#45;&gt;Elección y confirmación -->
<g id="edge14" class="edge">
<title>Rey&#45;&gt;Elección y confirmación</title>
<path fill="none" stroke="black" d="M229.36,-18C250.64,-18 282.04,-18 312.95,-18"/>
<polygon fill="black" stroke="black" points="312.96,-21.5 322.96,-18 312.96,-14.5 312.96,-21.5"/>
</g>
<!-- 10 curias por tribu -->
<g id="node15" class="node">
<title>10 curias por tribu</title>
<polygon fill="none" stroke="white" points="936,-344 785,-344 785,-308 936,-308 936,-344"/>
<text text-anchor="middle" x="860.5" y="-322.3" font-family="Times,serif" font-size="14.00">10 curias por tribu</text>
</g>
<!-- 3 tribus&#45;&gt;10 curias por tribu -->
<g id="edge15" class="edge">
<title>3 tribus&#45;&gt;10 curias por tribu</title>
<path fill="none" stroke="black" d="M683.46,-326C708.41,-326 742.72,-326 774.42,-326"/>
<polygon fill="black" stroke="black" points="774.61,-329.5 784.61,-326 774.61,-322.5 774.61,-329.5"/>
</g>
<!-- 10 gens por curia -->
<g id="node14" class="node">
<title>10 gens por curia</title>
<polygon fill="none" stroke="white" points="1114,-344 972,-344 972,-308 1114,-308 1114,-344"/>
<text text-anchor="middle" x="1043" y="-322.3" font-family="Times,serif" font-size="14.00">10 gens por curia</text>
</g>
<!-- Pater familias -->
<g id="node16" class="node">
<title>Pater familias</title>
<polygon fill="none" stroke="white" points="1266,-371 1150,-371 1150,-335 1266,-335 1266,-371"/>
<text text-anchor="middle" x="1208" y="-349.3" font-family="Times,serif" font-size="14.00">Pater familias</text>
</g>
<!-- 10 gens por curia&#45;&gt;Pater familias -->
<g id="edge18" class="edge">
<title>10 gens por curia&#45;&gt;Pater familias</title>
<path fill="none" stroke="black" d="M1114.07,-337.61C1122.69,-339.04 1131.49,-340.49 1140.06,-341.91"/>
<polygon fill="black" stroke="black" points="1139.56,-345.38 1150,-343.56 1140.7,-338.47 1139.56,-345.38"/>
</g>
<!-- Propiedad -->
<g id="node17" class="node">
<title>Propiedad</title>
<polygon fill="none" stroke="white" points="1252.5,-317 1163.5,-317 1163.5,-281 1252.5,-281 1252.5,-317"/>
<text text-anchor="middle" x="1208" y="-295.3" font-family="Times,serif" font-size="14.00">Propiedad</text>
</g>
<!-- 10 gens por curia&#45;&gt;Propiedad -->
<g id="edge19" class="edge">
<title>10 gens por curia&#45;&gt;Propiedad</title>
<path fill="none" stroke="black" d="M1114.07,-314.39C1127.15,-312.23 1140.63,-309.99 1153.12,-307.92"/>
<polygon fill="black" stroke="black" points="1154.07,-311.32 1163.36,-306.23 1152.92,-304.41 1154.07,-311.32"/>
</g>
<!-- 10 curias por tribu&#45;&gt;10 gens por curia -->
<g id="edge16" class="edge">
<title>10 curias por tribu&#45;&gt;10 gens por curia</title>
<path fill="none" stroke="black" d="M936.22,-326C944.63,-326 953.23,-326 961.71,-326"/>
<polygon fill="black" stroke="black" points="961.97,-329.5 971.97,-326 961.97,-322.5 961.97,-329.5"/>
</g>
</g>
</svg>
