<?xml version="1.0" encoding="UTF-8" standalone="no"?>
<!DOCTYPE svg PUBLIC "-//W3C//DTD SVG 1.1//EN"
 "http://www.w3.org/Graphics/SVG/1.1/DTD/svg11.dtd">
<!-- Generated by graphviz version 2.43.0 (0)
 -->
<!-- Title: %3 Pages: 1 -->
<svg width="1643pt" height="160pt"
 viewBox="0.00 0.00 1643.00 160.00" xmlns="http://www.w3.org/2000/svg" xmlns:xlink="http://www.w3.org/1999/xlink">
<g id="graph0" class="graph" transform="scale(1 1) rotate(0) translate(4 156)">
<title>%3</title>
<polygon fill="white" stroke="transparent" points="-4,4 -4,-156 1639,-156 1639,4 -4,4"/>
<!-- Lucha de clases (patricios vs plebeyos) -->
<g id="node1" class="node">
<title>Lucha de clases (patricios vs plebeyos)</title>
<polygon fill="none" stroke="white" points="294,-125 0,-125 0,-89 294,-89 294,-125"/>
<text text-anchor="middle" x="147" y="-103.3" font-family="Times,serif" font-size="14.00">Lucha de clases (patricios vs plebeyos)</text>
</g>
<!-- evolución institucional -->
<g id="node2" class="node">
<title>evolución institucional</title>
<polygon fill="none" stroke="white" points="507,-152 330,-152 330,-116 507,-116 507,-152"/>
<text text-anchor="middle" x="418.5" y="-130.3" font-family="Times,serif" font-size="14.00">evolución institucional</text>
</g>
<!-- Lucha de clases (patricios vs plebeyos)&#45;&gt;evolución institucional -->
<g id="edge1" class="edge">
<title>Lucha de clases (patricios vs plebeyos)&#45;&gt;evolución institucional</title>
<path fill="none" stroke="black" d="M294.19,-121.65C302.81,-122.51 311.37,-123.37 319.72,-124.2"/>
<polygon fill="black" stroke="black" points="319.5,-127.7 329.8,-125.21 320.19,-120.73 319.5,-127.7"/>
</g>
<!-- Plebeyos -->
<g id="node3" class="node">
<title>Plebeyos</title>
<polygon fill="none" stroke="white" points="458.5,-98 378.5,-98 378.5,-62 458.5,-62 458.5,-98"/>
<text text-anchor="middle" x="418.5" y="-76.3" font-family="Times,serif" font-size="14.00">Plebeyos</text>
</g>
<!-- Lucha de clases (patricios vs plebeyos)&#45;&gt;Plebeyos -->
<g id="edge2" class="edge">
<title>Lucha de clases (patricios vs plebeyos)&#45;&gt;Plebeyos</title>
<path fill="none" stroke="black" d="M294.19,-92.35C320.88,-89.68 346.97,-87.07 368.22,-84.94"/>
<polygon fill="black" stroke="black" points="368.65,-88.41 378.25,-83.93 367.95,-81.45 368.65,-88.41"/>
</g>
<!-- sin derechos ciudadanos -->
<g id="node4" class="node">
<title>sin derechos ciudadanos</title>
<polygon fill="none" stroke="white" points="738.5,-98 547.5,-98 547.5,-62 738.5,-62 738.5,-98"/>
<text text-anchor="middle" x="643" y="-76.3" font-family="Times,serif" font-size="14.00">sin derechos ciudadanos</text>
</g>
<!-- Plebeyos&#45;&gt;sin derechos ciudadanos -->
<g id="edge3" class="edge">
<title>Plebeyos&#45;&gt;sin derechos ciudadanos</title>
<path fill="none" stroke="black" d="M458.51,-80C480.49,-80 509.09,-80 537.15,-80"/>
<polygon fill="black" stroke="black" points="537.45,-83.5 547.45,-80 537.45,-76.5 537.45,-83.5"/>
</g>
<!-- participación en la infantería -->
<g id="node5" class="node">
<title>participación en la infantería</title>
<polygon fill="none" stroke="white" points="1002,-144 779,-144 779,-108 1002,-108 1002,-144"/>
<text text-anchor="middle" x="890.5" y="-122.3" font-family="Times,serif" font-size="14.00">participación en la infantería</text>
</g>
<!-- Plebeyos&#45;&gt;participación en la infantería -->
<g id="edge4" class="edge">
<title>Plebeyos&#45;&gt;participación en la infantería</title>
<path fill="none" stroke="black" d="M458.7,-90.26C482.84,-96.15 514.51,-103.13 543,-107 617.53,-117.12 701.77,-121.89 768.53,-124.12"/>
<polygon fill="black" stroke="black" points="768.56,-127.62 778.67,-124.44 768.78,-120.63 768.56,-127.62"/>
</g>
<!-- Tribunos de la Plebe (2&#45;5) -->
<g id="node6" class="node">
<title>Tribunos de la Plebe (2&#45;5)</title>
<polygon fill="none" stroke="white" points="743,-40 543,-40 543,-4 743,-4 743,-40"/>
<text text-anchor="middle" x="643" y="-18.3" font-family="Times,serif" font-size="14.00">Tribunos de la Plebe (2&#45;5)</text>
</g>
<!-- Plebeyos&#45;&gt;Tribunos de la Plebe (2&#45;5) -->
<g id="edge5" class="edge">
<title>Plebeyos&#45;&gt;Tribunos de la Plebe (2&#45;5)</title>
<path fill="none" stroke="black" d="M458.51,-69.83C487.33,-62.32 527.55,-51.83 562.99,-42.59"/>
<polygon fill="black" stroke="black" points="564.06,-45.94 572.85,-40.03 562.29,-39.16 564.06,-45.94"/>
</g>
<!-- sin derechos ciudadanos&#45;&gt;participación en la infantería -->
<g id="edge9" class="edge">
<title>sin derechos ciudadanos&#45;&gt;participación en la infantería</title>
<path fill="none" stroke="red" d="M738.57,-91.13C764.09,-95.62 791.33,-100.83 815.55,-105.89"/>
<polygon fill="red" stroke="red" points="814.87,-109.32 825.37,-107.97 816.32,-102.48 814.87,-109.32"/>
</g>
<!-- Amenaza de nueva ciudad -->
<g id="node11" class="node">
<title>Amenaza de nueva ciudad</title>
<polygon fill="none" stroke="white" points="991.5,-90 789.5,-90 789.5,-54 991.5,-54 991.5,-90"/>
<text text-anchor="middle" x="890.5" y="-68.3" font-family="Times,serif" font-size="14.00">Amenaza de nueva ciudad</text>
</g>
<!-- sin derechos ciudadanos&#45;&gt;Amenaza de nueva ciudad -->
<g id="edge11" class="edge">
<title>sin derechos ciudadanos&#45;&gt;Amenaza de nueva ciudad</title>
<path fill="none" stroke="blue" d="M738.57,-76.92C751.8,-76.49 765.51,-76.04 779.01,-75.6"/>
<polygon fill="blue" stroke="blue" points="779.4,-79.09 789.28,-75.27 779.18,-72.09 779.4,-79.09"/>
</g>
<!-- participación en la infantería&#45;&gt;sin derechos ciudadanos -->
<g id="edge10" class="edge">
<title>participación en la infantería&#45;&gt;sin derechos ciudadanos</title>
<path fill="none" stroke="red" d="M778.66,-111.95C758.11,-108.2 737.11,-104.11 717.99,-100.12"/>
<polygon fill="red" stroke="red" points="718.69,-96.69 708.18,-98.04 717.24,-103.54 718.69,-96.69"/>
</g>
<!-- Derecho a veto -->
<g id="node7" class="node">
<title>Derecho a veto</title>
<polygon fill="none" stroke="white" points="952.5,-36 828.5,-36 828.5,0 952.5,0 952.5,-36"/>
<text text-anchor="middle" x="890.5" y="-14.3" font-family="Times,serif" font-size="14.00">Derecho a veto</text>
</g>
<!-- Tribunos de la Plebe (2&#45;5)&#45;&gt;Derecho a veto -->
<g id="edge6" class="edge">
<title>Tribunos de la Plebe (2&#45;5)&#45;&gt;Derecho a veto</title>
<path fill="none" stroke="black" d="M743.15,-20.38C768.3,-19.97 794.83,-19.54 818.29,-19.16"/>
<polygon fill="black" stroke="black" points="818.55,-22.66 828.49,-18.99 818.43,-15.66 818.55,-22.66"/>
</g>
<!-- Eventualmente acceden -->
<g id="node8" class="node">
<title>Eventualmente acceden</title>
<polygon fill="none" stroke="white" points="1226,-117 1038,-117 1038,-81 1226,-81 1226,-117"/>
<text text-anchor="middle" x="1132" y="-95.3" font-family="Times,serif" font-size="14.00">Eventualmente acceden</text>
</g>
<!-- Ricos vs pobres -->
<g id="node9" class="node">
<title>Ricos vs pobres</title>
<polygon fill="none" stroke="white" points="1512.5,-144 1384.5,-144 1384.5,-108 1512.5,-108 1512.5,-144"/>
<text text-anchor="middle" x="1448.5" y="-122.3" font-family="Times,serif" font-size="14.00">Ricos vs pobres</text>
</g>
<!-- Eventualmente acceden&#45;&gt;Ricos vs pobres -->
<g id="edge7" class="edge">
<title>Eventualmente acceden&#45;&gt;Ricos vs pobres</title>
<path fill="none" stroke="black" d="M1226.08,-106.99C1273.3,-111.05 1329.84,-115.9 1373.96,-119.69"/>
<polygon fill="black" stroke="black" points="1373.78,-123.18 1384.04,-120.55 1374.37,-116.21 1373.78,-123.18"/>
</g>
<!-- Necesidad de amplia magistraturas por extensión -->
<g id="node10" class="node">
<title>Necesidad de amplia magistraturas por extensión</title>
<polygon fill="none" stroke="white" points="1635,-90 1262,-90 1262,-54 1635,-54 1635,-90"/>
<text text-anchor="middle" x="1448.5" y="-68.3" font-family="Times,serif" font-size="14.00">Necesidad de amplia magistraturas por extensión</text>
</g>
<!-- Eventualmente acceden&#45;&gt;Necesidad de amplia magistraturas por extensión -->
<g id="edge8" class="edge">
<title>Eventualmente acceden&#45;&gt;Necesidad de amplia magistraturas por extensión</title>
<path fill="none" stroke="black" d="M1226.08,-91.01C1234.44,-90.29 1243.09,-89.55 1251.91,-88.79"/>
<polygon fill="black" stroke="black" points="1252.27,-92.27 1261.93,-87.93 1251.67,-85.3 1252.27,-92.27"/>
</g>
<!-- Amenaza de nueva ciudad&#45;&gt;Eventualmente acceden -->
<g id="edge12" class="edge">
<title>Amenaza de nueva ciudad&#45;&gt;Eventualmente acceden</title>
<path fill="none" stroke="black" d="M991.68,-83.29C1003.6,-84.64 1015.78,-86.01 1027.74,-87.36"/>
<polygon fill="black" stroke="black" points="1027.39,-90.84 1037.72,-88.48 1028.18,-83.89 1027.39,-90.84"/>
</g>
<!-- Necesidad de plebeyos -->
<g id="node12" class="node">
<title>Necesidad de plebeyos</title>
<polygon fill="none" stroke="white" points="1222,-63 1042,-63 1042,-27 1222,-27 1222,-63"/>
<text text-anchor="middle" x="1132" y="-41.3" font-family="Times,serif" font-size="14.00">Necesidad de plebeyos</text>
</g>
<!-- Amenaza de nueva ciudad&#45;&gt;Necesidad de plebeyos -->
<g id="edge13" class="edge">
<title>Amenaza de nueva ciudad&#45;&gt;Necesidad de plebeyos</title>
<path fill="none" stroke="black" d="M991.68,-60.71C1004.96,-59.21 1018.57,-57.67 1031.83,-56.18"/>
<polygon fill="black" stroke="black" points="1032.35,-59.64 1041.89,-55.05 1031.56,-52.69 1032.35,-59.64"/>
</g>
</g>
</svg>
