<?xml version="1.0" encoding="UTF-8" standalone="no"?>
<!DOCTYPE svg PUBLIC "-//W3C//DTD SVG 1.1//EN" "http://www.w3.org/Graphics/SVG/1.1/DTD/svg11.dtd">
<!-- Generated by graphviz version 2.40.1 (20161225.0304)
 -->
<!-- Title: %0 Pages: 1 -->
<svg width="2133pt" height="975pt" viewBox="0.00 0.00 2133.48 975.00" xmlns="http://www.w3.org/2000/svg" xmlns:xlink="http://www.w3.org/1999/xlink">
<g id="graph0" class="graph" transform="scale(1 1) rotate(0) translate(4 971)">
<title>%0</title>
<polygon fill="#ffffff" stroke="transparent" points="-4,4 -4,-971 2129.4753,-971 2129.4753,4 -4,4"/>
<!-- Crisis del Antiguo Régimen -->
<g id="node1" class="node">
<title>Crisis del Antiguo Régimen</title>
<polygon fill="none" stroke="#ffffff" points="173.5086,-739 .1636,-739 .1636,-703 173.5086,-703 173.5086,-739"/>
<text text-anchor="middle" x="86.8361" y="-716.8" font-family="Times,serif" font-size="14.00" fill="#000000">Crisis del Antiguo Régimen</text>
</g>
<!-- Luis XVI -->
<g id="node2" class="node">
<title>Luis XVI</title>
<polygon fill="none" stroke="#ffff00" points="305.223,-745.6016 209.6214,-708.6992 400.8246,-708.6992 305.223,-745.6016"/>
<text text-anchor="middle" x="305.223" y="-716.8" font-family="Times,serif" font-size="14.00" fill="#000000">Luis XVI</text>
</g>
<!-- Crisis del Antiguo Régimen&#45;&gt;Luis XVI -->
<g id="edge1" class="edge">
<title>Crisis del Antiguo Régimen-&gt;Luis XVI</title>
<path fill="none" stroke="#000000" d="M173.7759,-721C192.8446,-721 212.859,-721 231.3573,-721"/>
<polygon fill="#000000" stroke="#000000" points="231.4625,-724.5001 241.4625,-721 231.4625,-717.5001 231.4625,-724.5001"/>
</g>
<!-- Indeciso -->
<g id="node3" class="node">
<title>Indeciso</title>
<polygon fill="none" stroke="#ffffff" points="719.7645,-967 655.9116,-967 655.9116,-931 719.7645,-931 719.7645,-967"/>
<text text-anchor="middle" x="687.838" y="-944.8" font-family="Times,serif" font-size="14.00" fill="#000000">Indeciso</text>
</g>
<!-- Luis XVI&#45;&gt;Indeciso -->
<g id="edge2" class="edge">
<title>Luis XVI-&gt;Indeciso</title>
<path fill="none" stroke="#000000" d="M314.0442,-742.2489C331.3476,-781.0756 373.6395,-863.1476 436.7738,-903 501.4131,-943.8025 592.9352,-950.5033 645.7621,-950.5336"/>
<polygon fill="#000000" stroke="#000000" points="645.8186,-954.0334 655.7922,-950.4589 645.7663,-947.0336 645.8186,-954.0334"/>
</g>
<!-- Poco interesado en gobernar -->
<g id="node4" class="node">
<title>Poco interesado en gobernar</title>
<polygon fill="none" stroke="#ffffff" points="775.3304,-766 600.3456,-766 600.3456,-730 775.3304,-730 775.3304,-766"/>
<text text-anchor="middle" x="687.838" y="-743.8" font-family="Times,serif" font-size="14.00" fill="#000000">Poco interesado en gobernar</text>
</g>
<!-- Luis XVI&#45;&gt;Poco interesado en gobernar -->
<g id="edge3" class="edge">
<title>Luis XVI-&gt;Poco interesado en gobernar</title>
<path fill="none" stroke="#000000" d="M359.2309,-724.8112C419.0395,-729.0317 516.6883,-735.9225 590.0277,-741.0978"/>
<polygon fill="#000000" stroke="#000000" points="589.9868,-744.6035 600.2084,-741.8162 590.4796,-737.6209 589.9868,-744.6035"/>
</g>
<!-- Torpe socialmente -->
<g id="node5" class="node">
<title>Torpe socialmente</title>
<polygon fill="none" stroke="#ffffff" points="747.6314,-712 628.0447,-712 628.0447,-676 747.6314,-676 747.6314,-712"/>
<text text-anchor="middle" x="687.838" y="-689.8" font-family="Times,serif" font-size="14.00" fill="#000000">Torpe socialmente</text>
</g>
<!-- Luis XVI&#45;&gt;Torpe socialmente -->
<g id="edge4" class="edge">
<title>Luis XVI-&gt;Torpe socialmente</title>
<path fill="none" stroke="#000000" d="M383.5741,-715.471C452.2661,-710.6236 551.2292,-703.6401 617.4438,-698.9675"/>
<polygon fill="#000000" stroke="#000000" points="618.0512,-702.4334 627.78,-698.2381 617.5584,-695.4508 618.0512,-702.4334"/>
</g>
<!-- Casado con María Antonieta -->
<g id="node6" class="node">
<title>Casado con María Antonieta</title>
<polygon fill="none" stroke="#ffff00" points="687.838,-833.6016 436.7095,-796.6992 938.9666,-796.6992 687.838,-833.6016"/>
<text text-anchor="middle" x="687.838" y="-804.8" font-family="Times,serif" font-size="14.00" fill="#000000">Casado con María Antonieta</text>
</g>
<!-- Luis XVI&#45;&gt;Casado con María Antonieta -->
<g id="edge5" class="edge">
<title>Luis XVI-&gt;Casado con María Antonieta</title>
<path fill="none" stroke="#000000" d="M333.2363,-734.9544C359.3846,-747.3815 399.8139,-765.0863 436.7738,-775 469.5439,-783.7899 505.3597,-790.3696 539.4108,-795.273"/>
<polygon fill="#000000" stroke="#000000" points="539.0497,-798.7565 549.4383,-796.6766 540.0201,-791.8241 539.0497,-798.7565"/>
</g>
<!-- Incapaz de tener sexo (reproducirse) -->
<g id="node13" class="node">
<title>Incapaz de tener sexo (reproducirse)</title>
<polygon fill="none" stroke="#ffffff" points="797.4935,-658 578.1826,-658 578.1826,-622 797.4935,-622 797.4935,-658"/>
<text text-anchor="middle" x="687.838" y="-635.8" font-family="Times,serif" font-size="14.00" fill="#000000">Incapaz de tener sexo (reproducirse)</text>
</g>
<!-- Luis XVI&#45;&gt;Incapaz de tener sexo (reproducirse) -->
<g id="edge14" class="edge">
<title>Luis XVI-&gt;Incapaz de tener sexo (reproducirse)</title>
<path fill="none" stroke="#000000" d="M329.7266,-708.4808C355.624,-695.8431 398.006,-676.8298 436.7738,-667 478.8679,-656.3268 525.977,-649.8709 567.9174,-645.9665"/>
<polygon fill="#000000" stroke="#000000" points="568.2501,-649.4509 577.8994,-645.0759 567.6279,-642.4786 568.2501,-649.4509"/>
</g>
<!-- No escuchar reformas -->
<g id="node14" class="node">
<title>No escuchar reformas</title>
<polygon fill="none" stroke="#ffffff" points="757.1546,-526 618.5215,-526 618.5215,-490 757.1546,-490 757.1546,-526"/>
<text text-anchor="middle" x="687.838" y="-503.8" font-family="Times,serif" font-size="14.00" fill="#000000">No escuchar reformas</text>
</g>
<!-- Luis XVI&#45;&gt;No escuchar reformas -->
<g id="edge15" class="edge">
<title>Luis XVI-&gt;No escuchar reformas</title>
<path fill="none" stroke="#000000" d="M317.7058,-708.5969C340.0237,-686.9402 388.9226,-641.7978 436.7738,-613 496.3184,-577.1648 570.3251,-547.8446 622.5156,-529.3836"/>
<polygon fill="#000000" stroke="#000000" points="623.7166,-532.6715 631.9984,-526.0638 621.4036,-526.0647 623.7166,-532.6715"/>
</g>
<!-- Revolución Estadounidense -->
<g id="node31" class="node">
<title>Revolución Estadounidense</title>
<polygon fill="none" stroke="#ff0000" points="687.838,-353.6016 444.1468,-316.6992 931.5293,-316.6992 687.838,-353.6016"/>
<text text-anchor="middle" x="687.838" y="-324.8" font-family="Times,serif" font-size="14.00" fill="#000000">Revolución Estadounidense</text>
</g>
<!-- Luis XVI&#45;&gt;Revolución Estadounidense -->
<g id="edge33" class="edge">
<title>Luis XVI-&gt;Revolución Estadounidense</title>
<path fill="none" stroke="#000000" d="M309.3702,-708.6143C322.6045,-670.5954 367.0924,-553.7434 436.7738,-481 493.9161,-421.3466 579.3731,-376.2888 634.3652,-351.2642"/>
<polygon fill="#000000" stroke="#000000" points="635.9018,-354.411 643.5921,-347.1233 633.0356,-348.0247 635.9018,-354.411"/>
</g>
<!-- Inestabilidad gubernamental -->
<g id="node9" class="node">
<title>Inestabilidad gubernamental</title>
<polygon fill="none" stroke="#ffffff" points="1503.5692,-877 1328.5648,-877 1328.5648,-841 1503.5692,-841 1503.5692,-877"/>
<text text-anchor="middle" x="1416.067" y="-854.8" font-family="Times,serif" font-size="14.00" fill="#000000">Inestabilidad gubernamental</text>
</g>
<!-- Indeciso&#45;&gt;Inestabilidad gubernamental -->
<g id="edge9" class="edge">
<title>Indeciso-&gt;Inestabilidad gubernamental</title>
<path fill="none" stroke="#000000" d="M719.5695,-952.6906C800.8314,-961.284 1022.682,-979.3324 1202.3751,-944 1264.11,-931.8613 1330.812,-902.4595 1372.9742,-881.6468"/>
<polygon fill="#000000" stroke="#000000" points="1374.7259,-884.6843 1382.1066,-877.0832 1371.5967,-878.4226 1374.7259,-884.6843"/>
</g>
<!-- Influencia sobre Luis XVI -->
<g id="node7" class="node">
<title>Influencia sobre Luis XVI</title>
<polygon fill="none" stroke="#ffffff" points="1170.4666,-935 1006.8108,-935 1006.8108,-899 1170.4666,-899 1170.4666,-935"/>
<text text-anchor="middle" x="1088.6387" y="-912.8" font-family="Times,serif" font-size="14.00" fill="#000000">Influencia sobre Luis XVI</text>
</g>
<!-- Casado con María Antonieta&#45;&gt;Influencia sobre Luis XVI -->
<g id="edge6" class="edge">
<title>Casado con María Antonieta-&gt;Influencia sobre Luis XVI</title>
<path fill="none" stroke="#000000" d="M754.3859,-823.85C805.4181,-835.8714 877.3136,-854.1842 938.9023,-875 955.3231,-880.5499 958.4161,-884.6474 974.9023,-890 982.0157,-892.3095 989.438,-894.5136 996.9328,-896.5947"/>
<polygon fill="#000000" stroke="#000000" points="996.2409,-900.0332 1006.8074,-899.2584 998.064,-893.2747 996.2409,-900.0332"/>
</g>
<!-- Despilfarro -->
<g id="node8" class="node">
<title>Despilfarro</title>
<polygon fill="none" stroke="#ffffff" points="1128.3825,-773 1048.8949,-773 1048.8949,-737 1128.3825,-737 1128.3825,-773"/>
<text text-anchor="middle" x="1088.6387" y="-750.8" font-family="Times,serif" font-size="14.00" fill="#000000">Despilfarro</text>
</g>
<!-- Casado con María Antonieta&#45;&gt;Despilfarro -->
<g id="edge8" class="edge">
<title>Casado con María Antonieta-&gt;Despilfarro</title>
<path fill="none" stroke="#000000" d="M779.2874,-796.679C859.7732,-785.8351 973.9455,-770.4526 1038.7039,-761.7277"/>
<polygon fill="#000000" stroke="#000000" points="1039.2171,-765.1903 1048.6602,-760.3863 1038.2824,-758.253 1039.2171,-765.1903"/>
</g>
<!-- Desprecio por la etiqueta -->
<g id="node10" class="node">
<title>Desprecio por la etiqueta</title>
<polygon fill="none" stroke="#ffffff" points="1166.9667,-719 1010.3108,-719 1010.3108,-683 1166.9667,-683 1166.9667,-719"/>
<text text-anchor="middle" x="1088.6387" y="-696.8" font-family="Times,serif" font-size="14.00" fill="#000000">Desprecio por la etiqueta</text>
</g>
<!-- Casado con María Antonieta&#45;&gt;Desprecio por la etiqueta -->
<g id="edge11" class="edge">
<title>Casado con María Antonieta-&gt;Desprecio por la etiqueta</title>
<path fill="none" stroke="#000000" d="M887.9966,-796.6899C905.8481,-791.2488 923.1148,-784.1631 938.9023,-775 961.6595,-761.7918 952.8228,-742.3122 974.9023,-728 982.8651,-722.8384 991.7134,-718.6616 1000.858,-715.2821"/>
<polygon fill="#000000" stroke="#000000" points="1002.1128,-718.5526 1010.4703,-712.0409 999.8762,-711.9196 1002.1128,-718.5526"/>
</g>
<!-- Gustos extranjeros -->
<g id="node11" class="node">
<title>Gustos extranjeros</title>
<polygon fill="none" stroke="#ffffff" points="1148.7167,-881 1028.5608,-881 1028.5608,-845 1148.7167,-845 1148.7167,-881"/>
<text text-anchor="middle" x="1088.6387" y="-858.8" font-family="Times,serif" font-size="14.00" fill="#000000">Gustos extranjeros</text>
</g>
<!-- Casado con María Antonieta&#45;&gt;Gustos extranjeros -->
<g id="edge12" class="edge">
<title>Casado con María Antonieta-&gt;Gustos extranjeros</title>
<path fill="none" stroke="#000000" d="M775.3002,-820.7838C848.1469,-830.5985 950.5552,-844.396 1018.2091,-853.511"/>
<polygon fill="#000000" stroke="#000000" points="1017.9668,-857.0099 1028.3446,-854.8766 1018.9015,-850.0726 1017.9668,-857.0099"/>
</g>
<!-- Oposición a reformas -->
<g id="node12" class="node">
<title>Oposición a reformas</title>
<polygon fill="none" stroke="#ffffff" points="1159.3072,-827 1017.9702,-827 1017.9702,-791 1159.3072,-791 1159.3072,-827"/>
<text text-anchor="middle" x="1088.6387" y="-804.8" font-family="Times,serif" font-size="14.00" fill="#000000">Oposición a reformas</text>
</g>
<!-- Casado con María Antonieta&#45;&gt;Oposición a reformas -->
<g id="edge13" class="edge">
<title>Casado con María Antonieta-&gt;Oposición a reformas</title>
<path fill="none" stroke="#000000" d="M855.4913,-809C908.2288,-809 964.0762,-809 1007.8873,-809"/>
<polygon fill="#000000" stroke="#000000" points="1007.899,-812.5001 1017.899,-809 1007.899,-805.5001 1007.899,-812.5001"/>
</g>
<!-- Influencia sobre Luis XVI&#45;&gt;Luis XVI -->
<g id="edge7" class="edge">
<title>Influencia sobre Luis XVI-&gt;Luis XVI</title>
<path fill="none" stroke="#000000" d="M1006.8986,-914.055C855.1989,-907.5574 536.4674,-888.769 436.7738,-843 390.1401,-821.5907 349.0491,-777.2149 325.6785,-748.2966"/>
<polygon fill="#000000" stroke="#000000" points="328.2379,-745.8906 319.2873,-740.2216 322.749,-750.2349 328.2379,-745.8906"/>
</g>
<!-- Despilfarro&#45;&gt;Inestabilidad gubernamental -->
<g id="edge10" class="edge">
<title>Despilfarro-&gt;Inestabilidad gubernamental</title>
<path fill="none" stroke="#000000" d="M1128.4063,-763.2862C1150.3755,-768.1519 1178.0622,-774.7589 1202.3751,-782 1257.1878,-798.3248 1318.4799,-820.8661 1361.3176,-837.3408"/>
<polygon fill="#000000" stroke="#000000" points="1360.1202,-840.6303 1370.7096,-840.9694 1362.6429,-834.1007 1360.1202,-840.6303"/>
</g>
<!-- Déficit -->
<g id="node15" class="node">
<title>Déficit</title>
<polygon fill="none" stroke="#ffffff" points="1116.4718,-665 1060.8057,-665 1060.8057,-629 1116.4718,-629 1116.4718,-665"/>
<text text-anchor="middle" x="1088.6387" y="-642.8" font-family="Times,serif" font-size="14.00" fill="#000000">Déficit</text>
</g>
<!-- No escuchar reformas&#45;&gt;Déficit -->
<g id="edge16" class="edge">
<title>No escuchar reformas-&gt;Déficit</title>
<path fill="none" stroke="#000000" d="M729.0279,-526.1651C784.2045,-550.0114 885.5353,-592.1072 974.9023,-620 999.8216,-627.7777 1028.4133,-634.556 1050.6959,-639.3756"/>
<polygon fill="#000000" stroke="#000000" points="1050.2593,-642.8608 1060.7682,-641.5142 1051.7133,-636.0135 1050.2593,-642.8608"/>
</g>
<!-- Máximo de impuestos -->
<g id="node16" class="node">
<title>Máximo de impuestos</title>
<polygon fill="none" stroke="#ffffff" points="1160.1767,-611 1017.1008,-611 1017.1008,-575 1160.1767,-575 1160.1767,-611"/>
<text text-anchor="middle" x="1088.6387" y="-588.8" font-family="Times,serif" font-size="14.00" fill="#000000">Máximo de impuestos</text>
</g>
<!-- No escuchar reformas&#45;&gt;Máximo de impuestos -->
<g id="edge17" class="edge">
<title>No escuchar reformas-&gt;Máximo de impuestos</title>
<path fill="none" stroke="#000000" d="M757.1946,-522.7088C826.6333,-537.4351 933.4514,-560.0886 1006.9531,-575.6765"/>
<polygon fill="#000000" stroke="#000000" points="1006.5874,-579.1767 1017.096,-577.8275 1008.0397,-572.329 1006.5874,-579.1767"/>
</g>
<!-- Crisis económicas -->
<g id="node17" class="node">
<title>Crisis económicas</title>
<polygon fill="none" stroke="#ffffff" points="1150.0511,-557 1027.2263,-557 1027.2263,-521 1150.0511,-521 1150.0511,-557"/>
<text text-anchor="middle" x="1088.6387" y="-534.8" font-family="Times,serif" font-size="14.00" fill="#000000">Crisis económicas</text>
</g>
<!-- No escuchar reformas&#45;&gt;Crisis económicas -->
<g id="edge18" class="edge">
<title>No escuchar reformas-&gt;Crisis económicas</title>
<path fill="none" stroke="#000000" d="M757.1946,-513.3644C829.8431,-518.9834 943.4066,-527.767 1016.9253,-533.4533"/>
<polygon fill="#000000" stroke="#000000" points="1016.7848,-536.9528 1027.025,-534.2345 1017.3247,-529.9737 1016.7848,-536.9528"/>
</g>
<!-- Turgot -->
<g id="node18" class="node">
<title>Turgot</title>
<polygon fill="none" stroke="#ffff00" points="1088.6387,-502.6016 1013.8592,-465.6992 1163.4182,-465.6992 1088.6387,-502.6016"/>
<text text-anchor="middle" x="1088.6387" y="-473.8" font-family="Times,serif" font-size="14.00" fill="#000000">Turgot</text>
</g>
<!-- No escuchar reformas&#45;&gt;Turgot -->
<g id="edge19" class="edge">
<title>No escuchar reformas-&gt;Turgot</title>
<path fill="none" stroke="#000000" d="M757.1946,-502.8086C836.101,-496.9025 963.2748,-487.3835 1034.9808,-482.0163"/>
<polygon fill="#000000" stroke="#000000" points="1035.4347,-485.4922 1045.1456,-481.2555 1034.9122,-478.5117 1035.4347,-485.4922"/>
</g>
<!-- Necker -->
<g id="node19" class="node">
<title>Necker</title>
<polygon fill="none" stroke="#ffff00" points="1088.6387,-434.6016 1010.9932,-397.6992 1166.2842,-397.6992 1088.6387,-434.6016"/>
<text text-anchor="middle" x="1088.6387" y="-405.8" font-family="Times,serif" font-size="14.00" fill="#000000">Necker</text>
</g>
<!-- No escuchar reformas&#45;&gt;Necker -->
<g id="edge20" class="edge">
<title>No escuchar reformas-&gt;Necker</title>
<path fill="none" stroke="#000000" d="M757.1946,-491.0416C839.7313,-470.8605 975.0791,-437.7665 1044.5156,-420.7886"/>
<polygon fill="#000000" stroke="#000000" points="1045.3855,-424.1791 1054.268,-418.404 1043.7228,-417.3794 1045.3855,-424.1791"/>
</g>
<!-- Calonne -->
<g id="node34" class="node">
<title>Calonne</title>
<polygon fill="none" stroke="#ffff00" points="1088.6387,-312.6016 1002.2617,-275.6992 1175.0157,-275.6992 1088.6387,-312.6016"/>
<text text-anchor="middle" x="1088.6387" y="-283.8" font-family="Times,serif" font-size="14.00" fill="#000000">Calonne</text>
</g>
<!-- No escuchar reformas&#45;&gt;Calonne -->
<g id="edge35" class="edge">
<title>No escuchar reformas-&gt;Calonne</title>
<path fill="none" stroke="#000000" d="M720.6372,-489.9965C795.4014,-448.9583 977.8708,-348.8006 1054.1908,-306.9085"/>
<polygon fill="#000000" stroke="#000000" points="1056.302,-309.7423 1063.3841,-301.8623 1052.9337,-303.6059 1056.302,-309.7423"/>
</g>
<!-- Brienne -->
<g id="node39" class="node">
<title>Brienne</title>
<polygon fill="none" stroke="#ffff00" points="1088.6387,-135.6016 1005.2159,-98.6992 1172.0615,-98.6992 1088.6387,-135.6016"/>
<text text-anchor="middle" x="1088.6387" y="-106.8" font-family="Times,serif" font-size="14.00" fill="#000000">Brienne</text>
</g>
<!-- No escuchar reformas&#45;&gt;Brienne -->
<g id="edge40" class="edge">
<title>No escuchar reformas-&gt;Brienne</title>
<path fill="none" stroke="#000000" d="M747.4059,-489.9733C805.7203,-469.1074 892.3767,-428.8911 938.9023,-363 989.7365,-291.007 921.9609,-238.4579 974.9023,-168 991.5778,-145.8072 1019.2938,-131.6667 1043.1903,-123.0211"/>
<polygon fill="#000000" stroke="#000000" points="1044.4678,-126.2836 1052.8112,-119.7538 1042.2168,-119.6554 1044.4678,-126.2836"/>
</g>
<!-- Reformas burguesas -->
<g id="node20" class="node">
<title>Reformas burguesas</title>
<polygon fill="none" stroke="#ffffff" points="1480.9683,-658 1351.1658,-658 1351.1658,-622 1480.9683,-622 1480.9683,-658"/>
<text text-anchor="middle" x="1416.067" y="-635.8" font-family="Times,serif" font-size="14.00" fill="#000000">Reformas burguesas</text>
</g>
<!-- Turgot&#45;&gt;Reformas burguesas -->
<g id="edge21" class="edge">
<title>Turgot-&gt;Reformas burguesas</title>
<path fill="none" stroke="#000000" d="M1125.4068,-484.5762C1148.5449,-489.757 1178.4469,-498.4196 1202.3751,-512 1221.2519,-522.7134 1220.6652,-532.4512 1238.3751,-545 1278.9868,-573.7764 1329.3461,-599.9118 1366.072,-617.4525"/>
<polygon fill="#000000" stroke="#000000" points="1365.0379,-620.835 1375.5744,-621.9448 1368.0297,-614.5065 1365.0379,-620.835"/>
</g>
<!-- Hombre de negocios -->
<g id="node27" class="node">
<title>Hombre de negocios</title>
<polygon fill="none" stroke="#ffffff" points="1481.9185,-536 1350.2155,-536 1350.2155,-500 1481.9185,-500 1481.9185,-536"/>
<text text-anchor="middle" x="1416.067" y="-513.8" font-family="Times,serif" font-size="14.00" fill="#000000">Hombre de negocios</text>
</g>
<!-- Necker&#45;&gt;Hombre de negocios -->
<g id="edge28" class="edge">
<title>Necker-&gt;Hombre de negocios</title>
<path fill="none" stroke="#000000" d="M1128.6823,-415.6555C1151.7811,-420.3893 1180.4903,-428.9047 1202.3751,-444 1224.0348,-458.94 1215.7256,-477.608 1238.3751,-491 1268.6802,-508.9186 1306.7885,-516.2872 1339.9349,-518.9246"/>
<polygon fill="#000000" stroke="#000000" points="1339.8379,-522.4258 1350.0483,-519.5977 1340.3028,-515.4412 1339.8379,-522.4258"/>
</g>
<!-- Primeras propuestas de Necker -->
<g id="node28" class="node">
<title>Primeras propuestas de Necker</title>
<polygon fill="none" stroke="#ffffff" points="1510.8212,-482 1321.3129,-482 1321.3129,-446 1510.8212,-446 1510.8212,-482"/>
<text text-anchor="middle" x="1416.067" y="-459.8" font-family="Times,serif" font-size="14.00" fill="#000000">Primeras propuestas de Necker</text>
</g>
<!-- Necker&#45;&gt;Primeras propuestas de Necker -->
<g id="edge29" class="edge">
<title>Necker-&gt;Primeras propuestas de Necker</title>
<path fill="none" stroke="#000000" d="M1125.8181,-416.9985C1156.0862,-422.6251 1199.9394,-430.6158 1238.3751,-437 1261.8076,-440.8921 1287.0166,-444.857 1310.8735,-448.5072"/>
<polygon fill="#000000" stroke="#000000" points="1310.5929,-452.0047 1321.006,-450.0511 1311.6474,-445.0846 1310.5929,-452.0047"/>
</g>
<!-- Caída por publicación de gasto público en pensiones -->
<g id="node33" class="node">
<title>Caída por publicación de gasto público en pensiones</title>
<polygon fill="none" stroke="#ffffff" points="1578.3499,-428 1253.7841,-428 1253.7841,-392 1578.3499,-392 1578.3499,-428"/>
<text text-anchor="middle" x="1416.067" y="-405.8" font-family="Times,serif" font-size="14.00" fill="#000000">Caída por publicación de gasto público en pensiones</text>
</g>
<!-- Necker&#45;&gt;Caída por publicación de gasto público en pensiones -->
<g id="edge34" class="edge">
<title>Necker-&gt;Caída por publicación de gasto público en pensiones</title>
<path fill="none" stroke="#000000" d="M1140.5207,-410C1168.9094,-410 1205.8918,-410 1243.4991,-410"/>
<polygon fill="#000000" stroke="#000000" points="1243.5904,-413.5001 1253.5903,-410 1243.5903,-406.5001 1243.5904,-413.5001"/>
</g>
<!-- Eliminar restreicciones y trabas al comercio -->
<g id="node21" class="node">
<title>Eliminar restreicciones y trabas al comercio</title>
<polygon fill="none" stroke="#ff0000" points="2008.6783,-820 1746.5559,-820 1746.5559,-784 2008.6783,-784 2008.6783,-820"/>
<text text-anchor="middle" x="1877.6171" y="-797.8" font-family="Times,serif" font-size="14.00" fill="#000000">Eliminar restreicciones y trabas al comercio</text>
</g>
<!-- Reformas burguesas&#45;&gt;Eliminar restreicciones y trabas al comercio -->
<g id="edge22" class="edge">
<title>Reformas burguesas-&gt;Eliminar restreicciones y trabas al comercio</title>
<path fill="none" stroke="#000000" d="M1437.3864,-658.2391C1473.9738,-688.3822 1552.2866,-747.9458 1629.7589,-775 1663.3771,-786.7399 1700.9842,-793.7227 1736.5448,-797.7935"/>
<polygon fill="#000000" stroke="#000000" points="1736.1985,-801.2764 1746.5155,-798.866 1736.9472,-794.3165 1736.1985,-801.2764"/>
</g>
<!-- Eliminar corvée royale (trabajo no remunerado) -->
<g id="node22" class="node">
<title>Eliminar corvée royale (trabajo no remunerado)</title>
<polygon fill="none" stroke="#ff0000" points="2019.9046,-766 1735.3296,-766 1735.3296,-730 2019.9046,-730 2019.9046,-766"/>
<text text-anchor="middle" x="1877.6171" y="-743.8" font-family="Times,serif" font-size="14.00" fill="#000000">Eliminar corvée royale (trabajo no remunerado)</text>
</g>
<!-- Reformas burguesas&#45;&gt;Eliminar corvée royale (trabajo no remunerado) -->
<g id="edge23" class="edge">
<title>Reformas burguesas-&gt;Eliminar corvée royale (trabajo no remunerado)</title>
<path fill="none" stroke="#000000" d="M1454.8964,-658.1573C1497.0088,-677.026 1566.6794,-705.8698 1629.7589,-721 1660.2388,-728.3108 1693.3069,-733.6461 1725.0603,-737.5384"/>
<polygon fill="#000000" stroke="#000000" points="1724.9767,-741.0528 1735.3187,-738.7521 1725.7993,-734.1013 1724.9767,-741.0528"/>
</g>
<!-- libertad de trabajo -->
<g id="node23" class="node">
<title>libertad de trabajo</title>
<polygon fill="none" stroke="#ff0000" points="1936.4644,-712 1818.7698,-712 1818.7698,-676 1936.4644,-676 1936.4644,-712"/>
<text text-anchor="middle" x="1877.6171" y="-689.8" font-family="Times,serif" font-size="14.00" fill="#000000">libertad de trabajo</text>
</g>
<!-- Reformas burguesas&#45;&gt;libertad de trabajo -->
<g id="edge24" class="edge">
<title>Reformas burguesas-&gt;libertad de trabajo</title>
<path fill="none" stroke="#000000" d="M1481.0264,-648.5019C1523.3581,-653.9696 1579.8081,-661.1241 1629.7589,-667 1690.0864,-674.0965 1758.7537,-681.5261 1808.4896,-686.7911"/>
<polygon fill="#000000" stroke="#000000" points="1808.1782,-690.2776 1818.4906,-687.8477 1808.9137,-683.3164 1808.1782,-690.2776"/>
</g>
<!-- impuestos sobre privilegiados -->
<g id="node24" class="node">
<title>impuestos sobre privilegiados</title>
<polygon fill="none" stroke="#ff0000" points="1969.3094,-658 1785.9248,-658 1785.9248,-622 1969.3094,-622 1969.3094,-658"/>
<text text-anchor="middle" x="1877.6171" y="-635.8" font-family="Times,serif" font-size="14.00" fill="#000000">impuestos sobre privilegiados</text>
</g>
<!-- Reformas burguesas&#45;&gt;impuestos sobre privilegiados -->
<g id="edge25" class="edge">
<title>Reformas burguesas-&gt;impuestos sobre privilegiados</title>
<path fill="none" stroke="#000000" d="M1481.2169,-640C1557.7827,-640 1685.7577,-640 1775.5351,-640"/>
<polygon fill="#000000" stroke="#000000" points="1775.7397,-643.5001 1785.7397,-640 1775.7396,-636.5001 1775.7397,-643.5001"/>
</g>
<!-- Coincide con malas cosechas -->
<g id="node25" class="node">
<title>Coincide con malas cosechas</title>
<polygon fill="none" stroke="#ff0000" points="1877.6171,-603.6016 1629.9007,-566.6992 2125.3335,-566.6992 1877.6171,-603.6016"/>
<text text-anchor="middle" x="1877.6171" y="-574.8" font-family="Times,serif" font-size="14.00" fill="#000000">Coincide con malas cosechas</text>
</g>
<!-- Reformas burguesas&#45;&gt;Coincide con malas cosechas -->
<g id="edge26" class="edge">
<title>Reformas burguesas-&gt;Coincide con malas cosechas</title>
<path fill="none" stroke="#000000" d="M1481.2169,-631.3896C1559.0579,-621.1018 1690.0348,-603.7915 1779.9886,-591.9029"/>
<polygon fill="#000000" stroke="#000000" points="1780.4719,-595.3696 1789.9271,-590.5894 1779.5547,-588.4299 1780.4719,-595.3696"/>
</g>
<!-- Enemigo de la nobleza -->
<g id="node26" class="node">
<title>Enemigo de la nobleza</title>
<polygon fill="none" stroke="#ffffff" points="1949.5197,-536 1805.7145,-536 1805.7145,-500 1949.5197,-500 1949.5197,-536"/>
<text text-anchor="middle" x="1877.6171" y="-513.8" font-family="Times,serif" font-size="14.00" fill="#000000">Enemigo de la nobleza</text>
</g>
<!-- Reformas burguesas&#45;&gt;Enemigo de la nobleza -->
<g id="edge27" class="edge">
<title>Reformas burguesas-&gt;Enemigo de la nobleza</title>
<path fill="none" stroke="#000000" d="M1448.2128,-621.9005C1489.0482,-599.8171 1562.3353,-563.1829 1629.7589,-545 1683.7977,-530.4267 1746.4799,-523.687 1795.2882,-520.5853"/>
<polygon fill="#000000" stroke="#000000" points="1795.7108,-524.0664 1805.4846,-519.9772 1795.2939,-517.0788 1795.7108,-524.0664"/>
</g>
<!-- Empréstitos -->
<g id="node29" class="node">
<title>Empréstitos</title>
<polygon fill="none" stroke="#ffffff" points="1919.4612,-482 1835.7729,-482 1835.7729,-446 1919.4612,-446 1919.4612,-482"/>
<text text-anchor="middle" x="1877.6171" y="-459.8" font-family="Times,serif" font-size="14.00" fill="#000000">Empréstitos</text>
</g>
<!-- Primeras propuestas de Necker&#45;&gt;Empréstitos -->
<g id="edge30" class="edge">
<title>Primeras propuestas de Necker-&gt;Empréstitos</title>
<path fill="none" stroke="#000000" d="M1510.8614,-464C1605.9775,-464 1749,-464 1825.2935,-464"/>
<polygon fill="#000000" stroke="#000000" points="1825.604,-467.5001 1835.604,-464 1825.604,-460.5001 1825.604,-467.5001"/>
</g>
<!-- Especulación financiera -->
<g id="node30" class="node">
<title>Especulación financiera</title>
<polygon fill="none" stroke="#ffffff" points="1954.8755,-428 1800.3587,-428 1800.3587,-392 1954.8755,-392 1954.8755,-428"/>
<text text-anchor="middle" x="1877.6171" y="-405.8" font-family="Times,serif" font-size="14.00" fill="#000000">Especulación financiera</text>
</g>
<!-- Primeras propuestas de Necker&#45;&gt;Especulación financiera -->
<g id="edge31" class="edge">
<title>Primeras propuestas de Necker-&gt;Especulación financiera</title>
<path fill="none" stroke="#000000" d="M1510.9655,-451.6544C1548.0124,-446.928 1590.8567,-441.5762 1629.7589,-437 1682.9258,-430.7458 1742.5702,-424.2329 1790.0248,-419.171"/>
<polygon fill="#000000" stroke="#000000" points="1790.6932,-422.6197 1800.2665,-418.0808 1789.9522,-415.659 1790.6932,-422.6197"/>
</g>
<!-- Apoyo de Francia (en contra de R.U.) -->
<g id="node32" class="node">
<title>Apoyo de Francia (en contra de R.U.)</title>
<polygon fill="none" stroke="#ffffff" points="1202.612,-213 974.6654,-213 974.6654,-177 1202.612,-177 1202.612,-213"/>
<text text-anchor="middle" x="1088.6387" y="-190.8" font-family="Times,serif" font-size="14.00" fill="#000000">Apoyo de Francia (en contra de R.U.)</text>
</g>
<!-- Revolución Estadounidense&#45;&gt;Apoyo de Francia (en contra de R.U.) -->
<g id="edge32" class="edge">
<title>Revolución Estadounidense-&gt;Apoyo de Francia (en contra de R.U.)</title>
<path fill="none" stroke="#000000" d="M724.826,-316.6338C793.3085,-293.738 940.5683,-244.5045 1025.2386,-216.1966"/>
<polygon fill="#000000" stroke="#000000" points="1026.3669,-219.5099 1034.7411,-213.0196 1024.1473,-212.8711 1026.3669,-219.5099"/>
</g>
<!-- Incremento del gasto público -->
<g id="node35" class="node">
<title>Incremento del gasto público</title>
<polygon fill="none" stroke="#ffffff" points="1507.3394,-198 1324.7947,-198 1324.7947,-162 1507.3394,-162 1507.3394,-198"/>
<text text-anchor="middle" x="1416.067" y="-175.8" font-family="Times,serif" font-size="14.00" fill="#000000">Incremento del gasto público</text>
</g>
<!-- Apoyo de Francia (en contra de R.U.)&#45;&gt;Incremento del gasto público -->
<g id="edge41" class="edge">
<title>Apoyo de Francia (en contra de R.U.)-&gt;Incremento del gasto público</title>
<path fill="none" stroke="#000000" d="M1202.6976,-189.7748C1238.9812,-188.1126 1278.8591,-186.2857 1314.2216,-184.6657"/>
<polygon fill="#000000" stroke="#000000" points="1314.7246,-188.1464 1324.5539,-184.1924 1314.4042,-181.1538 1314.7246,-188.1464"/>
</g>
<!-- Calonne&#45;&gt;Incremento del gasto público -->
<g id="edge36" class="edge">
<title>Calonne-&gt;Incremento del gasto público</title>
<path fill="none" stroke="#000000" d="M1109.4207,-275.5963C1143.9903,-255.1632 1212.1024,-215.8038 1238.3751,-207 1262.5355,-198.9041 1289.3627,-193.2258 1314.697,-189.2466"/>
<polygon fill="#000000" stroke="#000000" points="1315.3254,-192.6916 1324.6972,-187.7501 1314.2893,-185.7687 1315.3254,-192.6916"/>
</g>
<!-- Etapa próspera -->
<g id="node36" class="node">
<title>Etapa próspera</title>
<polygon fill="none" stroke="#ff0000" points="1416.067,-373.6016 1272.4884,-336.6992 1559.6456,-336.6992 1416.067,-373.6016"/>
<text text-anchor="middle" x="1416.067" y="-344.8" font-family="Times,serif" font-size="14.00" fill="#000000">Etapa próspera</text>
</g>
<!-- Calonne&#45;&gt;Etapa próspera -->
<g id="edge37" class="edge">
<title>Calonne-&gt;Etapa próspera</title>
<path fill="none" stroke="#000000" d="M1128.7879,-295.4798C1181.1712,-305.2388 1273.9057,-322.5153 1339.8373,-334.7984"/>
<polygon fill="#000000" stroke="#000000" points="1339.2981,-338.2581 1349.77,-336.6489 1340.5802,-331.3765 1339.2981,-338.2581"/>
</g>
<!-- Déficit fiscal -->
<g id="node37" class="node">
<title>Déficit fiscal</title>
<polygon fill="none" stroke="#ffffff" points="1460.7161,-306 1371.4179,-306 1371.4179,-270 1460.7161,-270 1460.7161,-306"/>
<text text-anchor="middle" x="1416.067" y="-283.8" font-family="Times,serif" font-size="14.00" fill="#000000">Déficit fiscal</text>
</g>
<!-- Calonne&#45;&gt;Déficit fiscal -->
<g id="edge38" class="edge">
<title>Calonne-&gt;Déficit fiscal</title>
<path fill="none" stroke="#000000" d="M1146.4226,-288C1206.953,-288 1301.341,-288 1360.8806,-288"/>
<polygon fill="#000000" stroke="#000000" points="1361.2134,-291.5001 1371.2133,-288 1361.2133,-284.5001 1361.2134,-291.5001"/>
</g>
<!-- Reforma tributaria (sacar BBPP, hacer registro inmobiliario) -->
<g id="node38" class="node">
<title>Reforma tributaria (sacar BBPP, hacer registro inmobiliario)</title>
<polygon fill="none" stroke="#ffffff" points="1593.951,-252 1238.183,-252 1238.183,-216 1593.951,-216 1593.951,-252"/>
<text text-anchor="middle" x="1416.067" y="-229.8" font-family="Times,serif" font-size="14.00" fill="#000000">Reforma tributaria (sacar BBPP, hacer registro inmobiliario)</text>
</g>
<!-- Calonne&#45;&gt;Reforma tributaria (sacar BBPP, hacer registro inmobiliario) -->
<g id="edge39" class="edge">
<title>Calonne-&gt;Reforma tributaria (sacar BBPP, hacer registro inmobiliario)</title>
<path fill="none" stroke="#000000" d="M1154.9111,-275.644C1180.9078,-270.9035 1211.0141,-265.5447 1238.3751,-261 1253.1467,-258.5464 1268.6242,-256.064 1284.024,-253.6497"/>
<polygon fill="#000000" stroke="#000000" points="1284.7834,-257.0736 1294.1244,-252.074 1283.7044,-250.1573 1284.7834,-257.0736"/>
</g>
<!-- Propone nueva reforma impositiva -->
<g id="node40" class="node">
<title>Propone nueva reforma impositiva</title>
<polygon fill="none" stroke="#ffffff" points="1521.0678,-90 1311.0662,-90 1311.0662,-54 1521.0678,-54 1521.0678,-90"/>
<text text-anchor="middle" x="1416.067" y="-67.8" font-family="Times,serif" font-size="14.00" fill="#000000">Propone nueva reforma impositiva</text>
</g>
<!-- Brienne&#45;&gt;Propone nueva reforma impositiva -->
<g id="edge42" class="edge">
<title>Brienne-&gt;Propone nueva reforma impositiva</title>
<path fill="none" stroke="#000000" d="M1164.9929,-101.9055C1205.3999,-97.0926 1255.848,-91.0837 1300.9025,-85.7172"/>
<polygon fill="#000000" stroke="#000000" points="1301.5099,-89.1697 1311.0257,-84.5115 1300.6819,-82.2189 1301.5099,-89.1697"/>
</g>
<!-- Ahorro en el ejército -->
<g id="node41" class="node">
<title>Ahorro en el ejército</title>
<polygon fill="none" stroke="#ffffff" points="1482.7555,-36 1349.3785,-36 1349.3785,0 1482.7555,0 1482.7555,-36"/>
<text text-anchor="middle" x="1416.067" y="-13.8" font-family="Times,serif" font-size="14.00" fill="#000000">Ahorro en el ejército</text>
</g>
<!-- Brienne&#45;&gt;Ahorro en el ejército -->
<g id="edge43" class="edge">
<title>Brienne-&gt;Ahorro en el ejército</title>
<path fill="none" stroke="#000000" d="M1111.5194,-98.6211C1140.2894,-83.6011 1191.5911,-58.6038 1238.3751,-45 1270.8188,-35.5661 1307.6071,-29.2823 1339.2603,-25.1716"/>
<polygon fill="#000000" stroke="#000000" points="1339.8558,-28.6245 1349.3449,-23.912 1338.9882,-21.6784 1339.8558,-28.6245"/>
</g>
<!-- Ciertos derechos a protestantes -->
<g id="node42" class="node">
<title>Ciertos derechos a protestantes</title>
<polygon fill="none" stroke="#ffffff" points="1510.8338,-144 1321.3003,-144 1321.3003,-108 1510.8338,-108 1510.8338,-144"/>
<text text-anchor="middle" x="1416.067" y="-121.8" font-family="Times,serif" font-size="14.00" fill="#000000">Ciertos derechos a protestantes</text>
</g>
<!-- Brienne&#45;&gt;Ciertos derechos a protestantes -->
<g id="edge44" class="edge">
<title>Brienne-&gt;Ciertos derechos a protestantes</title>
<path fill="none" stroke="#000000" d="M1139.0818,-113.3109C1184.6884,-115.4002 1253.2977,-118.5433 1310.8206,-121.1785"/>
<polygon fill="#000000" stroke="#000000" points="1310.9048,-124.6859 1321.0546,-121.6473 1311.2252,-117.6933 1310.9048,-124.6859"/>
</g>
</g>
</svg>