<?xml version="1.0" encoding="UTF-8" standalone="no"?>
<!DOCTYPE svg PUBLIC "-//W3C//DTD SVG 1.1//EN" "http://www.w3.org/Graphics/SVG/1.1/DTD/svg11.dtd">
<!-- Generated by graphviz version 2.40.1 (20161225.0304)
 -->
<!-- Title: %0 Pages: 1 -->
<svg width="3543pt" height="610pt" viewBox="0.00 0.00 3543.40 609.74" xmlns="http://www.w3.org/2000/svg" xmlns:xlink="http://www.w3.org/1999/xlink">
<g id="graph0" class="graph" transform="scale(1 1) rotate(0) translate(4 605.7417)">
<title>%0</title>
<polygon fill="#ffffff" stroke="transparent" points="-4,4 -4,-605.7417 3539.402,-605.7417 3539.402,4 -4,4"/>
<!-- Los Estados Generales -->
<g id="node1" class="node">
<title>Los Estados Generales</title>
<polygon fill="none" stroke="#ffffff" points="143.2584,-269.7417 .2466,-269.7417 .2466,-233.7417 143.2584,-233.7417 143.2584,-269.7417"/>
<text text-anchor="middle" x="71.7525" y="-247.5417" font-family="Times,serif" font-size="14.00" fill="#000000">Los Estados Generales</text>
</g>
<!-- Representantes -->
<g id="node2" class="node">
<title>Representantes</title>
<polygon fill="none" stroke="#ffffff" points="280.1162,-269.7417 179.6344,-269.7417 179.6344,-233.7417 280.1162,-233.7417 280.1162,-269.7417"/>
<text text-anchor="middle" x="229.8753" y="-247.5417" font-family="Times,serif" font-size="14.00" fill="#000000">Representantes</text>
</g>
<!-- Los Estados Generales&#45;&gt;Representantes -->
<g id="edge1" class="edge">
<title>Los Estados Generales-&gt;Representantes</title>
<path fill="none" stroke="#000000" d="M143.4115,-251.7417C152.0093,-251.7417 160.7249,-251.7417 169.1468,-251.7417"/>
<polygon fill="#000000" stroke="#000000" points="169.2463,-255.2418 179.2462,-251.7417 169.2462,-248.2418 169.2463,-255.2418"/>
</g>
<!-- Nobleza -->
<g id="node3" class="node">
<title>Nobleza</title>
<polygon fill="none" stroke="#ffffff" points="393.4907,-269.7417 331.2067,-269.7417 331.2067,-233.7417 393.4907,-233.7417 393.4907,-269.7417"/>
<text text-anchor="middle" x="362.3487" y="-247.5417" font-family="Times,serif" font-size="14.00" fill="#000000">Nobleza</text>
</g>
<!-- Representantes&#45;&gt;Nobleza -->
<g id="edge2" class="edge">
<title>Representantes-&gt;Nobleza</title>
<path fill="none" stroke="#000000" d="M280.3357,-251.7417C293.8365,-251.7417 308.2656,-251.7417 321.1979,-251.7417"/>
<polygon fill="#000000" stroke="#000000" points="321.202,-255.2418 331.2019,-251.7417 321.2019,-248.2418 321.202,-255.2418"/>
</g>
<!-- Campesinado -->
<g id="node4" class="node">
<title>Campesinado</title>
<polygon fill="none" stroke="#ffffff" points="408.5551,-323.7417 316.1423,-323.7417 316.1423,-287.7417 408.5551,-287.7417 408.5551,-323.7417"/>
<text text-anchor="middle" x="362.3487" y="-301.5417" font-family="Times,serif" font-size="14.00" fill="#000000">Campesinado</text>
</g>
<!-- Representantes&#45;&gt;Campesinado -->
<g id="edge3" class="edge">
<title>Representantes-&gt;Campesinado</title>
<path fill="none" stroke="#000000" d="M274.3555,-269.8732C285.2781,-274.3255 297.0886,-279.1398 308.4031,-283.7519"/>
<polygon fill="#000000" stroke="#000000" points="307.179,-287.0325 317.7604,-287.5662 309.8213,-280.5503 307.179,-287.0325"/>
</g>
<!-- Burguesía -->
<g id="node5" class="node">
<title>Burguesía</title>
<polygon fill="none" stroke="#ffffff" points="401.5411,-215.7417 323.1563,-215.7417 323.1563,-179.7417 401.5411,-179.7417 401.5411,-215.7417"/>
<text text-anchor="middle" x="362.3487" y="-193.5417" font-family="Times,serif" font-size="14.00" fill="#000000">Burguesía</text>
</g>
<!-- Representantes&#45;&gt;Burguesía -->
<g id="edge4" class="edge">
<title>Representantes-&gt;Burguesía</title>
<path fill="none" stroke="#000000" d="M274.3555,-233.6103C286.9341,-228.4829 300.6902,-222.8755 313.5104,-217.6496"/>
<polygon fill="#000000" stroke="#000000" points="315.1576,-220.7578 323.0967,-213.742 312.5153,-214.2757 315.1576,-220.7578"/>
</g>
<!-- Planteo de reformas administrativas/financieras al Rey -->
<g id="node6" class="node">
<title>Planteo de reformas administrativas/financieras al Rey</title>
<polygon fill="none" stroke="#ffffff" points="838.8603,-269.7417 516.9735,-269.7417 516.9735,-233.7417 838.8603,-233.7417 838.8603,-269.7417"/>
<text text-anchor="middle" x="677.9169" y="-247.5417" font-family="Times,serif" font-size="14.00" fill="#000000">Planteo de reformas administrativas/financieras al Rey</text>
</g>
<!-- Nobleza&#45;&gt;Planteo de reformas administrativas/financieras al Rey -->
<g id="edge5" class="edge">
<title>Nobleza-&gt;Planteo de reformas administrativas/financieras al Rey</title>
<path fill="none" stroke="#000000" d="M393.7603,-251.7417C421.1679,-251.7417 463.2565,-251.7417 506.7127,-251.7417"/>
<polygon fill="#000000" stroke="#000000" points="506.8864,-255.2418 516.8864,-251.7417 506.8863,-248.2418 506.8864,-255.2418"/>
</g>
<!-- Campesinado&#45;&gt;Planteo de reformas administrativas/financieras al Rey -->
<g id="edge7" class="edge">
<title>Campesinado-&gt;Planteo de reformas administrativas/financieras al Rey</title>
<path fill="none" stroke="#000000" d="M408.573,-297.8318C448.9447,-290.9234 509.2663,-280.6012 562.5958,-271.4755"/>
<polygon fill="#000000" stroke="#000000" points="563.1995,-274.9231 572.4658,-269.7865 562.0187,-268.0234 563.1995,-274.9231"/>
</g>
<!-- Burguesía&#45;&gt;Planteo de reformas administrativas/financieras al Rey -->
<g id="edge6" class="edge">
<title>Burguesía-&gt;Planteo de reformas administrativas/financieras al Rey</title>
<path fill="none" stroke="#0000ff" d="M401.571,-212.4331C415.0062,-216.9829 430.2365,-221.6162 444.4518,-224.7417 464.491,-229.1477 485.6659,-232.8646 506.7569,-235.993"/>
<polygon fill="#0000ff" stroke="#0000ff" points="506.3694,-239.4733 516.7664,-237.4355 507.3679,-232.5448 506.3694,-239.4733"/>
</g>
<!-- Superrepresentada en la Asamblea (por ser más apropiados que los campesinos) -->
<g id="node11" class="node">
<title>Superrepresentada en la Asamblea (por ser más apropiados que los campesinos)</title>
<polygon fill="none" stroke="#ffffff" points="911.3471,-215.7417 444.4867,-215.7417 444.4867,-179.7417 911.3471,-179.7417 911.3471,-215.7417"/>
<text text-anchor="middle" x="677.9169" y="-193.5417" font-family="Times,serif" font-size="14.00" fill="#000000">Superrepresentada en la Asamblea (por ser más apropiados que los campesinos)</text>
</g>
<!-- Burguesía&#45;&gt;Superrepresentada en la Asamblea (por ser más apropiados que los campesinos) -->
<g id="edge12" class="edge">
<title>Burguesía-&gt;Superrepresentada en la Asamblea (por ser más apropiados que los campesinos)</title>
<path fill="none" stroke="#000000" d="M401.6776,-197.7417C411.294,-197.7417 422.2938,-197.7417 434.2383,-197.7417"/>
<polygon fill="#000000" stroke="#000000" points="434.4842,-201.2418 444.4841,-197.7417 434.4841,-194.2418 434.4842,-201.2418"/>
</g>
<!-- Disputa sobre forma de elección (por Estado o por cabeza) -->
<g id="node7" class="node">
<title>Disputa sobre forma de elección (por Estado o por cabeza)</title>
<polygon fill="none" stroke="#ffffff" points="1296.5707,-362.7417 947.3191,-362.7417 947.3191,-326.7417 1296.5707,-326.7417 1296.5707,-362.7417"/>
<text text-anchor="middle" x="1121.9449" y="-340.5417" font-family="Times,serif" font-size="14.00" fill="#000000">Disputa sobre forma de elección (por Estado o por cabeza)</text>
</g>
<!-- Planteo de reformas administrativas/financieras al Rey&#45;&gt;Disputa sobre forma de elección (por Estado o por cabeza) -->
<g id="edge8" class="edge">
<title>Planteo de reformas administrativas/financieras al Rey-&gt;Disputa sobre forma de elección (por Estado o por cabeza)</title>
<path fill="none" stroke="#000000" d="M764.0565,-269.7833C839.1523,-285.5119 947.948,-308.2987 1025.8464,-324.6142"/>
<polygon fill="#000000" stroke="#000000" points="1025.1617,-328.0467 1035.6669,-326.6711 1026.5968,-321.1954 1025.1617,-328.0467"/>
</g>
<!-- Debate político popular (prohibido) -->
<g id="node22" class="node">
<title>Debate político popular (prohibido)</title>
<polygon fill="none" stroke="#ffffff" points="1232.3223,-149.7417 1011.5675,-149.7417 1011.5675,-113.7417 1232.3223,-113.7417 1232.3223,-149.7417"/>
<text text-anchor="middle" x="1121.9449" y="-127.5417" font-family="Times,serif" font-size="14.00" fill="#000000">Debate político popular (prohibido)</text>
</g>
<!-- Planteo de reformas administrativas/financieras al Rey&#45;&gt;Debate político popular (prohibido) -->
<g id="edge25" class="edge">
<title>Planteo de reformas administrativas/financieras al Rey-&gt;Debate político popular (prohibido)</title>
<path fill="none" stroke="#000000" d="M838.9402,-239.5586C863.4405,-235.8573 888.2507,-231.0321 911.382,-224.7417 972.6872,-208.0701 1039.0533,-176.2399 1080.5527,-154.5074"/>
<polygon fill="#000000" stroke="#000000" points="1082.325,-157.5295 1089.5289,-149.7607 1079.0527,-151.3414 1082.325,-157.5295"/>
</g>
<!-- Se creía que tenía intenciones de corregir -->
<g id="node29" class="node">
<title>Se creía que tenía intenciones de corregir</title>
<polygon fill="none" stroke="#ffffff" points="1250.6998,-269.7417 993.19,-269.7417 993.19,-233.7417 1250.6998,-233.7417 1250.6998,-269.7417"/>
<text text-anchor="middle" x="1121.9449" y="-247.5417" font-family="Times,serif" font-size="14.00" fill="#000000">Se creía que tenía intenciones de corregir</text>
</g>
<!-- Planteo de reformas administrativas/financieras al Rey&#45;&gt;Se creía que tenía intenciones de corregir -->
<g id="edge30" class="edge">
<title>Planteo de reformas administrativas/financieras al Rey-&gt;Se creía que tenía intenciones de corregir</title>
<path fill="none" stroke="#000000" d="M839.1631,-251.7417C886.2127,-251.7417 937.2071,-251.7417 982.768,-251.7417"/>
<polygon fill="#000000" stroke="#000000" points="983.0081,-255.2418 993.0081,-251.7417 983.008,-248.2418 983.0081,-255.2418"/>
</g>
<!-- Rey -->
<g id="node33" class="node">
<title>Rey</title>
<polygon fill="none" stroke="#ffff00" points="2869.4862,-496.3433 2816.1179,-459.4409 2922.8545,-459.4409 2869.4862,-496.3433"/>
<text text-anchor="middle" x="2869.4862" y="-467.5417" font-family="Times,serif" font-size="14.00" fill="#000000">Rey</text>
</g>
<!-- Planteo de reformas administrativas/financieras al Rey&#45;&gt;Rey -->
<g id="edge37" class="edge">
<title>Planteo de reformas administrativas/financieras al Rey-&gt;Rey</title>
<path fill="none" stroke="#000000" d="M700.5909,-269.8222C792.8281,-341.4924 1151.0925,-601.7417 1489.9935,-601.7417 1489.9935,-601.7417 1489.9935,-601.7417 2241.1258,-601.7417 2484.4511,-601.7417 2546.0667,-572.6266 2780.3024,-506.7417 2800.1118,-501.1698 2821.6038,-492.809 2838.5254,-485.6562"/>
<polygon fill="#000000" stroke="#000000" points="2840.1123,-488.7837 2847.9133,-481.6146 2837.3443,-482.3542 2840.1123,-488.7837"/>
</g>
<!-- Asamblea Nacional -->
<g id="node8" class="node">
<title>Asamblea Nacional</title>
<polygon fill="none" stroke="#ffff00" points="1553.0013,-335.7417 1426.9857,-335.7417 1426.9857,-299.7417 1553.0013,-299.7417 1553.0013,-335.7417"/>
<text text-anchor="middle" x="1489.9935" y="-313.5417" font-family="Times,serif" font-size="14.00" fill="#000000">Asamblea Nacional</text>
</g>
<!-- Disputa sobre forma de elección (por Estado o por cabeza)&#45;&gt;Asamblea Nacional -->
<g id="edge9" class="edge">
<title>Disputa sobre forma de elección (por Estado o por cabeza)-&gt;Asamblea Nacional</title>
<path fill="none" stroke="#000000" d="M1296.538,-331.9336C1338.9466,-328.8225 1382.0247,-325.6623 1416.7321,-323.1162"/>
<polygon fill="#000000" stroke="#000000" points="1417.0397,-326.6031 1426.7568,-322.3808 1416.5275,-319.6219 1417.0397,-326.6031"/>
</g>
<!-- 600 Tercer Estado, 300 Clearo, 300 Nobleza -->
<g id="node21" class="node">
<title>600 Tercer Estado, 300 Clearo, 300 Nobleza</title>
<polygon fill="none" stroke="#ffffff" points="1622.5718,-389.7417 1357.4152,-389.7417 1357.4152,-353.7417 1622.5718,-353.7417 1622.5718,-389.7417"/>
<text text-anchor="middle" x="1489.9935" y="-367.5417" font-family="Times,serif" font-size="14.00" fill="#000000">600 Tercer Estado, 300 Clearo, 300 Nobleza</text>
</g>
<!-- Disputa sobre forma de elección (por Estado o por cabeza)&#45;&gt;600 Tercer Estado, 300 Clearo, 300 Nobleza -->
<g id="edge22" class="edge">
<title>Disputa sobre forma de elección (por Estado o por cabeza)-&gt;600 Tercer Estado, 300 Clearo, 300 Nobleza</title>
<path fill="none" stroke="#000000" d="M1296.538,-357.5498C1313.4484,-358.7904 1330.4652,-360.0387 1347.0153,-361.2528"/>
<polygon fill="#000000" stroke="#000000" points="1347.0253,-364.7629 1357.2546,-362.004 1347.5375,-357.7817 1347.0253,-364.7629"/>
</g>
<!-- No debía ser modificado sin consentimiento del Rey -->
<g id="node30" class="node">
<title>No debía ser modificado sin consentimiento del Rey</title>
<polygon fill="none" stroke="#ffffff" points="1647.4649,-504.7417 1332.5221,-504.7417 1332.5221,-468.7417 1647.4649,-468.7417 1647.4649,-504.7417"/>
<text text-anchor="middle" x="1489.9935" y="-482.5417" font-family="Times,serif" font-size="14.00" fill="#000000">No debía ser modificado sin consentimiento del Rey</text>
</g>
<!-- Disputa sobre forma de elección (por Estado o por cabeza)&#45;&gt;No debía ser modificado sin consentimiento del Rey -->
<g id="edge31" class="edge">
<title>Disputa sobre forma de elección (por Estado o por cabeza)-&gt;No debía ser modificado sin consentimiento del Rey</title>
<path fill="none" stroke="#000000" d="M1168.9323,-362.8703C1236.627,-388.9882 1361.3976,-437.127 1433.8528,-465.0816"/>
<polygon fill="#000000" stroke="#000000" points="1432.6962,-468.3868 1443.2858,-468.721 1435.216,-461.856 1432.6962,-468.3868"/>
</g>
<!-- Objetivo de crear una Constitución -->
<g id="node9" class="node">
<title>Objetivo de crear una Constitución</title>
<polygon fill="none" stroke="#ffffff" points="1912.3087,-281.7417 1696.0959,-281.7417 1696.0959,-245.7417 1912.3087,-245.7417 1912.3087,-281.7417"/>
<text text-anchor="middle" x="1804.2023" y="-259.5417" font-family="Times,serif" font-size="14.00" fill="#000000">Objetivo de crear una Constitución</text>
</g>
<!-- Asamblea Nacional&#45;&gt;Objetivo de crear una Constitución -->
<g id="edge10" class="edge">
<title>Asamblea Nacional-&gt;Objetivo de crear una Constitución</title>
<path fill="none" stroke="#000000" d="M1553.2004,-306.879C1592.1848,-300.1791 1643.3533,-291.3853 1689.3148,-283.4863"/>
<polygon fill="#000000" stroke="#000000" points="1690.0785,-286.9065 1699.3412,-281.7632 1688.8928,-280.0076 1690.0785,-286.9065"/>
</g>
<!-- Juramento de la Chancha de Pelota -->
<g id="node10" class="node">
<title>Juramento de la Chancha de Pelota</title>
<polygon fill="none" stroke="#ffffff" points="1910.5259,-227.7417 1697.8787,-227.7417 1697.8787,-191.7417 1910.5259,-191.7417 1910.5259,-227.7417"/>
<text text-anchor="middle" x="1804.2023" y="-205.5417" font-family="Times,serif" font-size="14.00" fill="#000000">Juramento de la Chancha de Pelota</text>
</g>
<!-- Asamblea Nacional&#45;&gt;Juramento de la Chancha de Pelota -->
<g id="edge11" class="edge">
<title>Asamblea Nacional-&gt;Juramento de la Chancha de Pelota</title>
<path fill="none" stroke="#000000" d="M1527.4314,-299.7382C1565.8736,-281.8105 1627.7863,-254.4742 1683.4792,-236.7417 1690.5226,-234.4991 1697.8543,-232.3715 1705.2693,-230.3684"/>
<polygon fill="#000000" stroke="#000000" points="1706.2608,-233.7269 1715.048,-227.8078 1704.4876,-226.9552 1706.2608,-233.7269"/>
</g>
<!-- Representantes (cahiers) -->
<g id="node12" class="node">
<title>Representantes (cahiers)</title>
<polygon fill="none" stroke="#ffffff" points="1880.9038,-389.7417 1727.5008,-389.7417 1727.5008,-353.7417 1880.9038,-353.7417 1880.9038,-389.7417"/>
<text text-anchor="middle" x="1804.2023" y="-367.5417" font-family="Times,serif" font-size="14.00" fill="#000000">Representantes (cahiers)</text>
</g>
<!-- Asamblea Nacional&#45;&gt;Representantes (cahiers) -->
<g id="edge13" class="edge">
<title>Asamblea Nacional-&gt;Representantes (cahiers)</title>
<path fill="none" stroke="#000000" d="M1553.2153,-328.5687C1581.9773,-333.4974 1616.449,-339.4088 1647.4792,-344.7417 1670.1157,-348.632 1694.59,-352.8451 1717.3173,-356.7604"/>
<polygon fill="#000000" stroke="#000000" points="1716.8316,-360.2282 1727.2807,-358.477 1718.0202,-353.3298 1716.8316,-360.2282"/>
</g>
<!-- Principios de revolución -->
<g id="node31" class="node">
<title>Principios de revolución</title>
<polygon fill="none" stroke="#ffffff" points="1882.7234,-481.7417 1725.6812,-481.7417 1725.6812,-445.7417 1882.7234,-445.7417 1882.7234,-481.7417"/>
<text text-anchor="middle" x="1804.2023" y="-459.5417" font-family="Times,serif" font-size="14.00" fill="#000000">Principios de revolución</text>
</g>
<!-- Asamblea Nacional&#45;&gt;Principios de revolución -->
<g id="edge34" class="edge">
<title>Asamblea Nacional-&gt;Principios de revolución</title>
<path fill="none" stroke="#000000" d="M1553.3119,-314.8682C1584.6389,-316.6119 1621.2559,-323.7896 1647.4792,-344.7417 1680.1718,-370.8627 1651.9854,-404.1872 1683.4792,-431.7417 1692.8789,-439.9657 1704.1606,-446.1089 1716.0015,-450.6913"/>
<polygon fill="#000000" stroke="#000000" points="1714.9973,-454.0479 1725.5922,-454.0416 1717.3059,-447.4395 1714.9973,-454.0479"/>
</g>
<!-- Facultad de determinar impuestos -->
<g id="node34" class="node">
<title>Facultad de determinar impuestos</title>
<polygon fill="none" stroke="#ff0000" points="2343.9607,-458.7417 2138.2909,-458.7417 2138.2909,-422.7417 2343.9607,-422.7417 2343.9607,-458.7417"/>
<text text-anchor="middle" x="2241.1258" y="-436.5417" font-family="Times,serif" font-size="14.00" fill="#000000">Facultad de determinar impuestos</text>
</g>
<!-- Asamblea Nacional&#45;&gt;Facultad de determinar impuestos -->
<g id="edge38" class="edge">
<title>Asamblea Nacional-&gt;Facultad de determinar impuestos</title>
<path fill="none" stroke="#000000" d="M1553.2463,-317.2081C1583.8244,-319.6545 1619.8,-326.7535 1647.4792,-344.7417 1671.6649,-360.4596 1658.5772,-384.1852 1683.4792,-398.7417 1720.811,-420.5641 1976.2564,-432.3541 2128.1544,-437.5064"/>
<polygon fill="#000000" stroke="#000000" points="2128.3455,-441.0147 2138.4569,-437.8511 2128.5796,-434.0186 2128.3455,-441.0147"/>
</g>
<!-- Todos los acreedores serían satisfechos -->
<g id="node35" class="node">
<title>Todos los acreedores serían satisfechos</title>
<polygon fill="none" stroke="#ff0000" points="1925.1489,-335.7417 1683.2557,-335.7417 1683.2557,-299.7417 1925.1489,-299.7417 1925.1489,-335.7417"/>
<text text-anchor="middle" x="1804.2023" y="-313.5417" font-family="Times,serif" font-size="14.00" fill="#000000">Todos los acreedores serían satisfechos</text>
</g>
<!-- Asamblea Nacional&#45;&gt;Todos los acreedores serían satisfechos -->
<g id="edge39" class="edge">
<title>Asamblea Nacional-&gt;Todos los acreedores serían satisfechos</title>
<path fill="none" stroke="#000000" d="M1553.2004,-317.7417C1587.6362,-317.7417 1631.5787,-317.7417 1673.0417,-317.7417"/>
<polygon fill="#000000" stroke="#000000" points="1673.2407,-321.2418 1683.2406,-317.7417 1673.2406,-314.2418 1673.2407,-321.2418"/>
</g>
<!-- Investigar causas de escasez de alimentos -->
<g id="node36" class="node">
<title>Investigar causas de escasez de alimentos</title>
<polygon fill="none" stroke="#ff0000" points="2365.4627,-177.7417 2116.7889,-177.7417 2116.7889,-141.7417 2365.4627,-141.7417 2365.4627,-177.7417"/>
<text text-anchor="middle" x="2241.1258" y="-155.5417" font-family="Times,serif" font-size="14.00" fill="#000000">Investigar causas de escasez de alimentos</text>
</g>
<!-- Asamblea Nacional&#45;&gt;Investigar causas de escasez de alimentos -->
<g id="edge40" class="edge">
<title>Asamblea Nacional-&gt;Investigar causas de escasez de alimentos</title>
<path fill="none" stroke="#000000" d="M1507.9956,-299.6795C1539.9938,-268.9448 1610.3173,-207.4105 1683.4792,-182.7417 1758.8345,-157.3333 1966.8128,-155.0521 2106.3639,-156.6863"/>
<polygon fill="#000000" stroke="#000000" points="2106.6659,-160.1903 2116.709,-156.8161 2106.7537,-153.1909 2106.6659,-160.1903"/>
</g>
<!-- Moderados -->
<g id="node13" class="node">
<title>Moderados</title>
<polygon fill="none" stroke="#ffffff" points="2060.2954,-362.7417 1981.3374,-362.7417 1981.3374,-326.7417 2060.2954,-326.7417 2060.2954,-362.7417"/>
<text text-anchor="middle" x="2020.8164" y="-340.5417" font-family="Times,serif" font-size="14.00" fill="#000000">Moderados</text>
</g>
<!-- Representantes (cahiers)&#45;&gt;Moderados -->
<g id="edge14" class="edge">
<title>Representantes (cahiers)-&gt;Moderados</title>
<path fill="none" stroke="#000000" d="M1880.8772,-362.1845C1910.7463,-358.4615 1944.1339,-354.2999 1970.8039,-350.9756"/>
<polygon fill="#000000" stroke="#000000" points="1971.5554,-354.4091 1981.0456,-349.699 1970.6895,-347.4628 1971.5554,-354.4091"/>
</g>
<!-- Reformas tributarias y administrativas -->
<g id="node14" class="node">
<title>Reformas tributarias y administrativas</title>
<polygon fill="none" stroke="#ffffff" points="2356.3427,-335.7417 2125.9089,-335.7417 2125.9089,-299.7417 2356.3427,-299.7417 2356.3427,-335.7417"/>
<text text-anchor="middle" x="2241.1258" y="-313.5417" font-family="Times,serif" font-size="14.00" fill="#000000">Reformas tributarias y administrativas</text>
</g>
<!-- Moderados&#45;&gt;Reformas tributarias y administrativas -->
<g id="edge15" class="edge">
<title>Moderados-&gt;Reformas tributarias y administrativas</title>
<path fill="none" stroke="#000000" d="M2060.4577,-339.8835C2076.3545,-337.9352 2095.6314,-335.5728 2115.5955,-333.1261"/>
<polygon fill="#000000" stroke="#000000" points="2116.2602,-336.5709 2125.7602,-331.8803 2115.4086,-329.6229 2116.2602,-336.5709"/>
</g>
<!-- Necesidad de remediar la miseria del pueblo -->
<g id="node15" class="node">
<title>Necesidad de remediar la miseria del pueblo</title>
<polygon fill="none" stroke="#ffffff" points="2723.2062,-173.7417 2458.6404,-173.7417 2458.6404,-137.7417 2723.2062,-137.7417 2723.2062,-173.7417"/>
<text text-anchor="middle" x="2590.9233" y="-151.5417" font-family="Times,serif" font-size="14.00" fill="#000000">Necesidad de remediar la miseria del pueblo</text>
</g>
<!-- Reformas tributarias y administrativas&#45;&gt;Necesidad de remediar la miseria del pueblo -->
<g id="edge16" class="edge">
<title>Reformas tributarias y administrativas-&gt;Necesidad de remediar la miseria del pueblo</title>
<path fill="none" stroke="#000000" d="M2256.2635,-299.6635C2282.4524,-269.7574 2339.4085,-210.534 2401.5442,-182.7417 2416.2938,-176.1445 2432.2772,-171.0796 2448.4927,-167.203"/>
<polygon fill="#000000" stroke="#000000" points="2449.6155,-170.5384 2458.6102,-164.9397 2448.0873,-163.7072 2449.6155,-170.5384"/>
</g>
<!-- Cargos públicos para Tercer Estado -->
<g id="node16" class="node">
<title>Cargos públicos para Tercer Estado</title>
<polygon fill="none" stroke="#ffffff" points="2700.6053,-281.7417 2481.2413,-281.7417 2481.2413,-245.7417 2700.6053,-245.7417 2700.6053,-281.7417"/>
<text text-anchor="middle" x="2590.9233" y="-259.5417" font-family="Times,serif" font-size="14.00" fill="#000000">Cargos públicos para Tercer Estado</text>
</g>
<!-- Reformas tributarias y administrativas&#45;&gt;Cargos públicos para Tercer Estado -->
<g id="edge17" class="edge">
<title>Reformas tributarias y administrativas-&gt;Cargos públicos para Tercer Estado</title>
<path fill="none" stroke="#000000" d="M2345.9083,-299.7162C2364.431,-296.641 2383.5441,-293.5392 2401.5442,-290.7417 2423.9846,-287.2541 2447.9489,-283.7033 2471.0217,-280.3718"/>
<polygon fill="#000000" stroke="#000000" points="2471.7986,-283.7961 2481.1985,-278.9081 2470.802,-276.8674 2471.7986,-283.7961"/>
</g>
<!-- Confianza en el Rey -->
<g id="node17" class="node">
<title>Confianza en el Rey</title>
<polygon fill="none" stroke="#ffffff" points="2655.8259,-227.7417 2526.0207,-227.7417 2526.0207,-191.7417 2655.8259,-191.7417 2655.8259,-227.7417"/>
<text text-anchor="middle" x="2590.9233" y="-205.5417" font-family="Times,serif" font-size="14.00" fill="#000000">Confianza en el Rey</text>
</g>
<!-- Reformas tributarias y administrativas&#45;&gt;Confianza en el Rey -->
<g id="edge18" class="edge">
<title>Reformas tributarias y administrativas-&gt;Confianza en el Rey</title>
<path fill="none" stroke="#000000" d="M2269.7623,-299.6505C2300.9428,-280.8375 2352.8814,-252.0405 2401.5442,-236.7417 2438.1654,-225.2286 2480.3252,-218.6078 2515.556,-214.8085"/>
<polygon fill="#000000" stroke="#000000" points="2516.1824,-218.2628 2525.7746,-213.7639 2515.4705,-211.2991 2516.1824,-218.2628"/>
</g>
<!-- Sólo representantes hicieran leyes -->
<g id="node18" class="node">
<title>Sólo representantes hicieran leyes</title>
<polygon fill="none" stroke="#ffffff" points="2696.1719,-443.7417 2485.6747,-443.7417 2485.6747,-407.7417 2696.1719,-407.7417 2696.1719,-443.7417"/>
<text text-anchor="middle" x="2590.9233" y="-421.5417" font-family="Times,serif" font-size="14.00" fill="#000000">Sólo representantes hicieran leyes</text>
</g>
<!-- Reformas tributarias y administrativas&#45;&gt;Sólo representantes hicieran leyes -->
<g id="edge19" class="edge">
<title>Reformas tributarias y administrativas-&gt;Sólo representantes hicieran leyes</title>
<path fill="none" stroke="#000000" d="M2269.7623,-335.8329C2300.9428,-354.6459 2352.8814,-383.4429 2401.5442,-398.7417 2424.9344,-406.0952 2450.5841,-411.4529 2475.2447,-415.3544"/>
<polygon fill="#000000" stroke="#000000" points="2474.9621,-418.8514 2485.373,-416.8855 2476.0085,-411.93 2474.9621,-418.8514"/>
</g>
<!-- Nueva división del territorio -->
<g id="node19" class="node">
<title>Nueva división del territorio</title>
<polygon fill="none" stroke="#ffffff" points="2680.6004,-389.7417 2501.2462,-389.7417 2501.2462,-353.7417 2680.6004,-353.7417 2680.6004,-389.7417"/>
<text text-anchor="middle" x="2590.9233" y="-367.5417" font-family="Times,serif" font-size="14.00" fill="#000000">Nueva división del territorio</text>
</g>
<!-- Reformas tributarias y administrativas&#45;&gt;Nueva división del territorio -->
<g id="edge20" class="edge">
<title>Reformas tributarias y administrativas-&gt;Nueva división del territorio</title>
<path fill="none" stroke="#000000" d="M2345.9083,-335.7673C2364.431,-338.8424 2383.5441,-341.9442 2401.5442,-344.7417 2430.4595,-349.2356 2461.9049,-353.8345 2490.7133,-357.9339"/>
<polygon fill="#000000" stroke="#000000" points="2490.3923,-361.4233 2500.7847,-359.362 2491.3752,-354.4926 2490.3923,-361.4233"/>
</g>
<!-- Pedido de constitución, límites y atribuciones a los organismos -->
<g id="node20" class="node">
<title>Pedido de constitución, límites y atribuciones a los organismos</title>
<polygon fill="none" stroke="#ffffff" points="2780.1816,-335.7417 2401.665,-335.7417 2401.665,-299.7417 2780.1816,-299.7417 2780.1816,-335.7417"/>
<text text-anchor="middle" x="2590.9233" y="-313.5417" font-family="Times,serif" font-size="14.00" fill="#000000">Pedido de constitución, límites y atribuciones a los organismos</text>
</g>
<!-- Reformas tributarias y administrativas&#45;&gt;Pedido de constitución, límites y atribuciones a los organismos -->
<g id="edge21" class="edge">
<title>Reformas tributarias y administrativas-&gt;Pedido de constitución, límites y atribuciones a los organismos</title>
<path fill="none" stroke="#000000" d="M2356.632,-317.7417C2367.9813,-317.7417 2379.7091,-317.7417 2391.5904,-317.7417"/>
<polygon fill="#000000" stroke="#000000" points="2391.6019,-321.2418 2401.6019,-317.7417 2391.6019,-314.2418 2391.6019,-321.2418"/>
</g>
<!-- Confianza en el Rey&#45;&gt;Rey -->
<g id="edge36" class="edge">
<title>Confianza en el Rey-&gt;Rey</title>
<path fill="none" stroke="#000000" d="M2656.1826,-203.339C2696.0455,-202.9353 2745.8141,-209.145 2780.3024,-236.7417 2847.6481,-290.6302 2864.1644,-401.3933 2868.1948,-449.0828"/>
<polygon fill="#000000" stroke="#000000" points="2864.7201,-449.5577 2868.9431,-459.2745 2871.7013,-449.045 2864.7201,-449.5577"/>
</g>
<!-- Jean&#45;Paul Marat -->
<g id="node23" class="node">
<title>Jean-Paul Marat</title>
<polygon fill="none" stroke="#ffff00" points="1489.9935,-95.3433 1341.8089,-58.4409 1638.1781,-58.4409 1489.9935,-95.3433"/>
<text text-anchor="middle" x="1489.9935" y="-66.5417" font-family="Times,serif" font-size="14.00" fill="#000000">Jean-Paul Marat</text>
</g>
<!-- Debate político popular (prohibido)&#45;&gt;Jean&#45;Paul Marat -->
<g id="edge23" class="edge">
<title>Debate político popular (prohibido)-&gt;Jean-Paul Marat</title>
<path fill="none" stroke="#000000" d="M1230.8778,-113.6873C1292.2116,-103.5219 1366.9782,-91.1301 1420.4058,-82.2751"/>
<polygon fill="#000000" stroke="#000000" points="1421.1676,-85.6967 1430.4607,-80.6086 1420.0229,-78.7909 1421.1676,-85.6967"/>
</g>
<!-- Cahiers de Cuarto Orden -->
<g id="node25" class="node">
<title>Cahiers de Cuarto Orden</title>
<polygon fill="none" stroke="#ffffff" points="1567.5545,-149.7417 1412.4325,-149.7417 1412.4325,-113.7417 1567.5545,-113.7417 1567.5545,-149.7417"/>
<text text-anchor="middle" x="1489.9935" y="-127.5417" font-family="Times,serif" font-size="14.00" fill="#000000">Cahiers de Cuarto Orden</text>
</g>
<!-- Debate político popular (prohibido)&#45;&gt;Cahiers de Cuarto Orden -->
<g id="edge26" class="edge">
<title>Debate político popular (prohibido)-&gt;Cahiers de Cuarto Orden</title>
<path fill="none" stroke="#000000" d="M1232.3716,-131.7417C1286.6491,-131.7417 1351.1536,-131.7417 1402.0391,-131.7417"/>
<polygon fill="#000000" stroke="#000000" points="1402.3545,-135.2418 1412.3545,-131.7417 1402.3544,-128.2418 1402.3545,-135.2418"/>
</g>
<!-- Secuestrado -->
<g id="node24" class="node">
<title>Secuestrado</title>
<polygon fill="none" stroke="#ffffff" points="1845.8399,-81.7417 1762.5647,-81.7417 1762.5647,-45.7417 1845.8399,-45.7417 1845.8399,-81.7417"/>
<text text-anchor="middle" x="1804.2023" y="-59.5417" font-family="Times,serif" font-size="14.00" fill="#000000">Secuestrado</text>
</g>
<!-- Jean&#45;Paul Marat&#45;&gt;Secuestrado -->
<g id="edge24" class="edge">
<title>Jean-Paul Marat-&gt;Secuestrado</title>
<path fill="none" stroke="#000000" d="M1598.5663,-68.3229C1650.5676,-67.1644 1710.4352,-65.8307 1752.1131,-64.9022"/>
<polygon fill="#000000" stroke="#000000" points="1752.3819,-68.3971 1762.3014,-64.6752 1752.2259,-61.3989 1752.3819,-68.3971"/>
</g>
<!-- Reformas sustanciales -->
<g id="node26" class="node">
<title>Reformas sustanciales</title>
<polygon fill="none" stroke="#ffffff" points="1874.4887,-135.7417 1733.9159,-135.7417 1733.9159,-99.7417 1874.4887,-99.7417 1874.4887,-135.7417"/>
<text text-anchor="middle" x="1804.2023" y="-113.5417" font-family="Times,serif" font-size="14.00" fill="#000000">Reformas sustanciales</text>
</g>
<!-- Cahiers de Cuarto Orden&#45;&gt;Reformas sustanciales -->
<g id="edge27" class="edge">
<title>Cahiers de Cuarto Orden-&gt;Reformas sustanciales</title>
<path fill="none" stroke="#000000" d="M1567.6631,-128.281C1615.1687,-126.1644 1675.8243,-123.4618 1723.8188,-121.3233"/>
<polygon fill="#000000" stroke="#000000" points="1724.0246,-124.8177 1733.8589,-120.876 1723.713,-117.8246 1724.0246,-124.8177"/>
</g>
<!-- Trabajo asegurado -->
<g id="node27" class="node">
<title>Trabajo asegurado</title>
<polygon fill="none" stroke="#ffffff" points="2080.5986,-135.7417 1961.0342,-135.7417 1961.0342,-99.7417 2080.5986,-99.7417 2080.5986,-135.7417"/>
<text text-anchor="middle" x="2020.8164" y="-113.5417" font-family="Times,serif" font-size="14.00" fill="#000000">Trabajo asegurado</text>
</g>
<!-- Reformas sustanciales&#45;&gt;Trabajo asegurado -->
<g id="edge28" class="edge">
<title>Reformas sustanciales-&gt;Trabajo asegurado</title>
<path fill="none" stroke="#000000" d="M1874.5307,-117.7417C1898.9597,-117.7417 1926.3403,-117.7417 1950.7483,-117.7417"/>
<polygon fill="#000000" stroke="#000000" points="1951.0097,-121.2418 1961.0096,-117.7417 1951.0096,-114.2418 1951.0097,-121.2418"/>
</g>
<!-- Salario mínimo -->
<g id="node28" class="node">
<title>Salario mínimo</title>
<polygon fill="none" stroke="#ffffff" points="2074.9631,-81.7417 1966.6697,-81.7417 1966.6697,-45.7417 2074.9631,-45.7417 2074.9631,-81.7417"/>
<text text-anchor="middle" x="2020.8164" y="-59.5417" font-family="Times,serif" font-size="14.00" fill="#000000">Salario mínimo</text>
</g>
<!-- Reformas sustanciales&#45;&gt;Salario mínimo -->
<g id="edge29" class="edge">
<title>Reformas sustanciales-&gt;Salario mínimo</title>
<path fill="none" stroke="#000000" d="M1874.5755,-102.6801C1891.1311,-98.9495 1908.683,-94.8415 1924.9254,-90.7417 1935.3249,-88.1168 1946.3132,-85.1791 1956.9947,-82.2343"/>
<polygon fill="#000000" stroke="#000000" points="1957.9961,-85.5887 1966.6923,-79.5367 1956.12,-78.8448 1957.9961,-85.5887"/>
</g>
<!-- No debía ser modificado sin consentimiento del Rey&#45;&gt;Principios de revolución -->
<g id="edge32" class="edge">
<title>No debía ser modificado sin consentimiento del Rey-&gt;Principios de revolución</title>
<path fill="none" stroke="#000000" d="M1647.5582,-475.208C1670.8495,-473.5031 1694.1273,-471.7992 1715.3439,-470.2461"/>
<polygon fill="#000000" stroke="#000000" points="1715.867,-473.7173 1725.5847,-469.4965 1715.3559,-466.736 1715.867,-473.7173"/>
</g>
<!-- Finalmente aceptada -->
<g id="node32" class="node">
<title>Finalmente aceptada</title>
<polygon fill="none" stroke="#ffffff" points="1870.1555,-573.7417 1738.2491,-573.7417 1738.2491,-537.7417 1870.1555,-537.7417 1870.1555,-573.7417"/>
<text text-anchor="middle" x="1804.2023" y="-551.5417" font-family="Times,serif" font-size="14.00" fill="#000000">Finalmente aceptada</text>
</g>
<!-- No debía ser modificado sin consentimiento del Rey&#45;&gt;Finalmente aceptada -->
<g id="edge33" class="edge">
<title>No debía ser modificado sin consentimiento del Rey-&gt;Finalmente aceptada</title>
<path fill="none" stroke="#000000" d="M1572.1377,-504.7805C1620.5182,-515.4048 1681.2864,-528.7495 1728.5014,-539.1179"/>
<polygon fill="#000000" stroke="#000000" points="1727.8435,-542.5567 1738.3615,-541.2831 1729.345,-535.7196 1727.8435,-542.5567"/>
</g>
<!-- No debía ser modificado sin consentimiento del Rey&#45;&gt;Rey -->
<g id="edge35" class="edge">
<title>No debía ser modificado sin consentimiento del Rey-&gt;Rey</title>
<path fill="none" stroke="#000000" d="M1647.5695,-497.1482C1753.133,-503.2386 1895.2503,-509.7417 2020.8164,-509.7417 2020.8164,-509.7417 2020.8164,-509.7417 2241.1258,-509.7417 2463.0534,-509.7417 2728.268,-485.8323 2828.462,-475.9443"/>
<polygon fill="#000000" stroke="#000000" points="2828.8657,-479.4215 2838.4701,-474.9488 2828.1728,-472.4558 2828.8657,-479.4215"/>
</g>
<!-- Qué hacer frente a la Asamblea Nacional  -->
<g id="node37" class="node">
<title>Qué hacer frente a la Asamblea Nacional </title>
<polygon fill="none" stroke="#ffffff" points="3209.0086,-405.7417 2958.8903,-405.7417 2958.8903,-369.7417 3209.0086,-369.7417 3209.0086,-405.7417"/>
<text text-anchor="middle" x="3083.9495" y="-383.5417" font-family="Times,serif" font-size="14.00" fill="#000000">Qué hacer frente a la Asamblea Nacional </text>
</g>
<!-- Rey&#45;&gt;Qué hacer frente a la Asamblea Nacional  -->
<g id="edge43" class="edge">
<title>Rey-&gt;Qué hacer frente a la Asamblea Nacional </title>
<path fill="none" stroke="#000000" d="M2901.131,-459.3472C2934.5704,-446.2498 2987.9629,-425.3373 3028.4333,-409.486"/>
<polygon fill="#000000" stroke="#000000" points="3029.8658,-412.6839 3037.9006,-405.7779 3027.3128,-406.166 3029.8658,-412.6839"/>
</g>
<!-- Facultad de determinar impuestos&#45;&gt;Rey -->
<g id="edge41" class="edge">
<title>Facultad de determinar impuestos-&gt;Rey</title>
<path fill="none" stroke="#000000" d="M2344.2146,-448.9749C2363.2694,-450.3485 2383.0028,-451.6721 2401.5442,-452.7417 2555.2451,-461.6083 2737.5818,-467.7532 2822.1043,-470.3518"/>
<polygon fill="#000000" stroke="#000000" points="2822.0586,-473.8519 2832.1607,-470.6584 2822.272,-466.8552 2822.0586,-473.8519"/>
</g>
<!-- Investigar causas de escasez de alimentos&#45;&gt;Necesidad de remediar la miseria del pueblo -->
<g id="edge42" class="edge">
<title>Investigar causas de escasez de alimentos-&gt;Necesidad de remediar la miseria del pueblo</title>
<path fill="none" stroke="#000000" d="M2365.9293,-158.3146C2392.6652,-158.0088 2421.1069,-157.6836 2448.4525,-157.3709"/>
<polygon fill="#000000" stroke="#000000" points="2448.5131,-160.8705 2458.4724,-157.2563 2448.433,-153.871 2448.5131,-160.8705"/>
</g>
<!-- Necker -->
<g id="node38" class="node">
<title>Necker</title>
<polygon fill="none" stroke="#ffff00" points="3333.8073,-412.3433 3256.1618,-375.4409 3411.4528,-375.4409 3333.8073,-412.3433"/>
<text text-anchor="middle" x="3333.8073" y="-383.5417" font-family="Times,serif" font-size="14.00" fill="#000000">Necker</text>
</g>
<!-- Qué hacer frente a la Asamblea Nacional &#45;&gt;Necker -->
<g id="edge44" class="edge">
<title>Qué hacer frente a la Asamblea Nacional -&gt;Necker</title>
<path fill="none" stroke="#000000" d="M3209.2444,-387.7417C3231.0222,-387.7417 3252.7852,-387.7417 3271.8862,-387.7417"/>
<polygon fill="#000000" stroke="#000000" points="3271.9116,-391.2418 3281.9116,-387.7417 3271.9116,-384.2418 3271.9116,-391.2418"/>
</g>
<!-- Barentin -->
<g id="node39" class="node">
<title>Barentin</title>
<polygon fill="none" stroke="#ffff00" points="3333.8073,-261.3433 3245.1503,-224.4409 3422.4643,-224.4409 3333.8073,-261.3433"/>
<text text-anchor="middle" x="3333.8073" y="-232.5417" font-family="Times,serif" font-size="14.00" fill="#000000">Barentin</text>
</g>
<!-- Qué hacer frente a la Asamblea Nacional &#45;&gt;Barentin -->
<g id="edge45" class="edge">
<title>Qué hacer frente a la Asamblea Nacional -&gt;Barentin</title>
<path fill="none" stroke="#000000" d="M3114.0882,-369.5276C3161.2531,-341.0238 3252.1459,-286.0932 3300.9386,-256.6057"/>
<polygon fill="#000000" stroke="#000000" points="3302.7911,-259.5757 3309.5393,-251.4079 3299.1705,-253.5848 3302.7911,-259.5757"/>
</g>
<!-- Aceptar -->
<g id="node40" class="node">
<title>Aceptar</title>
<polygon fill="none" stroke="#ffffff" points="3527.1962,-405.7417 3466.5915,-405.7417 3466.5915,-369.7417 3527.1962,-369.7417 3527.1962,-405.7417"/>
<text text-anchor="middle" x="3496.8939" y="-383.5417" font-family="Times,serif" font-size="14.00" fill="#000000">Aceptar</text>
</g>
<!-- Necker&#45;&gt;Aceptar -->
<g id="edge46" class="edge">
<title>Necker-&gt;Aceptar</title>
<path fill="none" stroke="#000000" d="M3385.8573,-387.7417C3408.7689,-387.7417 3435.2708,-387.7417 3456.6361,-387.7417"/>
<polygon fill="#000000" stroke="#000000" points="3456.6738,-391.2418 3466.6737,-387.7417 3456.6737,-384.2418 3456.6738,-391.2418"/>
</g>
<!-- No aceptar -->
<g id="node41" class="node">
<title>No aceptar</title>
<polygon fill="none" stroke="#ff0000" points="3535.4101,-228.7417 3458.3777,-228.7417 3458.3777,-192.7417 3535.4101,-192.7417 3535.4101,-228.7417"/>
<text text-anchor="middle" x="3496.8939" y="-206.5417" font-family="Times,serif" font-size="14.00" fill="#000000">No aceptar</text>
</g>
<!-- Barentin&#45;&gt;No aceptar -->
<g id="edge47" class="edge">
<title>Barentin-&gt;No aceptar</title>
<path fill="none" stroke="#000000" d="M3411.0522,-224.427C3423.6603,-222.4169 3436.4057,-220.385 3448.0784,-218.5241"/>
<polygon fill="#000000" stroke="#000000" points="3448.7055,-221.9684 3458.0297,-216.9376 3447.6033,-215.0557 3448.7055,-221.9684"/>
</g>
<!-- No aceptar&#45;&gt;Planteo de reformas administrativas/financieras al Rey -->
<g id="edge48" class="edge">
<title>No aceptar-&gt;Planteo de reformas administrativas/financieras al Rey</title>
<path fill="none" stroke="#000000" d="M3475.7264,-192.5847C3417.467,-144.5401 3248.1555,-17.7417 3083.9495,-17.7417 1489.9935,-17.7417 1489.9935,-17.7417 1489.9935,-17.7417 1245.7527,-17.7417 1129.8634,57.5978 947.382,-104.7417 905.7802,-141.7516 954.0686,-188.9884 911.382,-224.7417 893.3864,-239.8145 871.6881,-249.4762 848.8603,-255.3977"/>
<polygon fill="#000000" stroke="#000000" points="847.9493,-252.0164 839.0153,-257.7114 849.5508,-258.8307 847.9493,-252.0164"/>
</g>
</g>
</svg>